<svg id="svg" version="1.1" xmlns="http://www.w3.org/2000/svg" xmlns:xlink="http://www.w3.org/1999/xlink" width="400" height="400" viewBox="0, 0, 400,400"><g id="svgg"><path id="path0" d="M308.213 42.674 C 307.560 43.028,306.819 43.515,306.566 43.758 C 306.313 44.001,305.677 44.580,305.153 45.044 C 301.895 47.927,248.000 102.370,248.000 102.778 C 248.000 103.053,247.460 103.783,246.800 104.400 C 246.140 105.017,245.600 105.725,245.600 105.975 C 245.600 106.224,245.230 106.827,244.778 107.314 C 243.851 108.313,241.200 112.710,241.200 113.248 C 241.200 113.442,241.020 113.600,240.800 113.600 C 240.580 113.600,240.400 113.960,240.400 114.400 C 240.400 114.840,240.220 115.200,240.000 115.200 C 239.780 115.200,239.600 115.560,239.600 116.000 C 239.600 116.440,239.420 116.800,239.200 116.800 C 238.980 116.800,238.800 117.160,238.800 117.600 C 238.800 118.040,238.620 118.400,238.400 118.400 C 238.180 118.400,238.000 118.760,238.000 119.200 C 238.000 119.640,237.820 120.000,237.600 120.000 C 237.380 120.000,237.200 120.360,237.200 120.800 C 237.200 121.240,237.020 121.600,236.800 121.600 C 236.580 121.600,236.400 121.960,236.400 122.400 C 236.400 122.840,236.220 123.200,236.000 123.200 C 235.780 123.200,235.600 123.740,235.600 124.400 C 235.600 125.060,235.420 125.600,235.200 125.600 C 234.980 125.600,234.800 125.949,234.800 126.376 C 234.800 126.803,234.620 127.264,234.400 127.400 C 234.180 127.536,234.000 128.076,234.000 128.600 C 234.000 129.124,233.820 129.664,233.600 129.800 C 233.380 129.936,233.200 130.476,233.200 131.000 C 233.200 131.524,233.020 132.064,232.800 132.200 C 232.580 132.336,232.400 132.966,232.400 133.600 C 232.400 134.234,232.220 134.864,232.000 135.000 C 231.780 135.136,231.600 135.946,231.600 136.800 C 231.600 137.654,231.420 138.464,231.200 138.600 C 230.980 138.736,230.800 139.737,230.800 140.824 C 230.800 141.911,230.634 142.800,230.432 142.800 C 229.638 142.800,228.818 164.578,229.584 165.344 C 229.813 165.573,230.000 166.973,230.000 168.456 C 230.000 169.939,230.180 171.264,230.400 171.400 C 230.620 171.536,230.800 172.436,230.800 173.400 C 230.800 174.364,230.980 175.264,231.200 175.400 C 231.420 175.536,231.600 176.346,231.600 177.200 C 231.600 178.054,231.780 178.864,232.000 179.000 C 232.220 179.136,232.400 179.766,232.400 180.400 C 232.400 181.034,232.580 181.664,232.800 181.800 C 233.020 181.936,233.200 182.577,233.200 183.224 C 233.200 183.871,233.380 184.400,233.600 184.400 C 233.820 184.400,234.000 184.940,234.000 185.600 C 234.000 186.260,234.180 186.800,234.400 186.800 C 234.620 186.800,234.800 187.149,234.800 187.576 C 234.800 188.003,234.980 188.464,235.200 188.600 C 235.420 188.736,235.600 189.287,235.600 189.824 C 235.600 190.361,235.780 190.800,236.000 190.800 C 236.220 190.800,236.400 191.160,236.400 191.600 C 236.400 192.040,236.580 192.400,236.800 192.400 C 237.020 192.400,237.200 192.760,237.200 193.200 C 237.200 193.640,237.380 194.000,237.600 194.000 C 237.820 194.000,238.000 194.360,238.000 194.800 C 238.000 195.240,238.180 195.600,238.400 195.600 C 238.620 195.600,238.800 196.016,238.800 196.525 C 238.800 197.033,239.160 197.836,239.600 198.308 C 240.040 198.780,240.400 199.444,240.400 199.783 C 240.400 200.122,240.580 200.400,240.800 200.400 C 241.020 200.400,241.200 200.760,241.200 201.200 C 241.200 201.640,241.335 202.001,241.500 202.001 C 241.665 202.002,242.334 202.992,242.986 204.201 C 243.638 205.411,244.301 206.400,244.459 206.400 C 244.617 206.400,244.863 206.769,245.006 207.220 C 245.149 207.671,245.882 208.655,246.633 209.407 C 247.385 210.158,248.000 210.951,248.000 211.167 C 248.000 212.707,300.901 265.307,301.793 264.655 C 302.505 264.134,302.522 262.791,302.266 227.157 C 302.121 206.831,302.001 186.248,302.001 181.418 L 302.000 172.635 287.464 158.018 C 271.896 142.362,271.562 141.942,271.275 137.684 C 270.805 130.726,275.729 125.379,282.572 125.415 C 287.087 125.439,288.500 126.288,295.215 133.015 C 298.391 136.197,301.217 138.800,301.495 138.800 C 301.894 138.800,302.002 135.085,302.010 121.100 C 302.023 97.772,302.849 95.100,310.658 93.129 C 311.726 92.860,312.825 92.473,313.100 92.271 C 313.491 91.983,313.600 86.449,313.600 66.951 L 313.600 42.000 311.500 42.016 C 310.345 42.025,308.866 42.321,308.213 42.674 M40.704 157.429 C 40.301 157.833,35.869 158.468,33.826 158.415 C 32.740 158.387,31.300 158.575,30.626 158.832 C 27.737 159.934,23.200 162.153,23.200 162.463 C 23.200 162.648,22.975 162.800,22.700 162.800 C 22.425 162.801,21.677 163.251,21.038 163.800 C 20.399 164.350,19.726 164.800,19.542 164.800 C 18.968 164.800,10.888 173.092,10.610 173.967 C 10.465 174.425,10.207 174.800,10.037 174.800 C 9.868 174.800,9.385 175.518,8.964 176.395 C 8.544 177.273,8.065 177.993,7.900 177.995 C 7.735 177.998,7.600 178.270,7.600 178.600 C 7.600 178.930,7.420 179.200,7.200 179.200 C 6.980 179.200,6.800 179.560,6.800 180.000 C 6.800 180.440,6.620 180.800,6.400 180.800 C 6.180 180.800,6.000 181.160,6.000 181.600 C 6.000 182.040,5.820 182.400,5.600 182.400 C 5.380 182.400,5.200 182.940,5.200 183.600 C 5.200 184.260,5.020 184.800,4.800 184.800 C 4.580 184.800,4.400 185.340,4.400 186.000 C 4.400 186.660,4.220 187.200,4.000 187.200 C 3.780 187.200,3.600 187.819,3.600 188.576 C 3.600 189.333,3.420 190.064,3.200 190.200 C 2.980 190.336,2.800 191.337,2.800 192.424 C 2.800 193.511,2.620 194.400,2.400 194.400 C 2.139 194.400,2.000 201.208,2.000 214.024 C 2.000 227.004,2.135 233.564,2.400 233.400 C 2.620 233.264,2.800 233.463,2.800 233.841 C 2.800 235.043,5.163 238.268,6.913 239.456 L 8.600 240.600 17.200 240.726 C 21.930 240.796,25.971 241.021,26.180 241.226 C 26.918 241.952,46.524 241.699,46.243 240.967 C 46.109 240.619,46.000 221.629,46.000 198.767 L 46.000 157.200 43.467 157.200 C 42.073 157.200,40.830 157.303,40.704 157.429 M59.600 158.800 C 59.600 159.020,60.061 159.200,60.624 159.200 C 61.204 159.200,61.540 159.027,61.400 158.800 C 61.264 158.580,60.803 158.400,60.376 158.400 C 59.949 158.400,59.600 158.580,59.600 158.800 M64.904 160.800 C 66.586 161.701,66.800 161.751,66.800 161.239 C 66.800 161.041,66.233 160.681,65.540 160.439 C 63.568 159.752,63.267 159.923,64.904 160.800 M70.000 163.025 C 70.000 163.325,71.073 164.400,71.371 164.400 C 71.880 164.400,71.551 163.762,70.800 163.293 C 70.360 163.018,70.000 162.898,70.000 163.025 M72.000 164.629 C 72.000 165.053,73.236 166.097,73.467 165.867 C 73.592 165.741,73.417 165.360,73.076 165.019 C 72.441 164.384,72.000 164.224,72.000 164.629 M76.000 167.825 C 76.000 168.125,77.073 169.200,77.371 169.200 C 77.880 169.200,77.551 168.562,76.800 168.093 C 76.360 167.818,76.000 167.698,76.000 167.825 M80.000 172.618 C 80.000 172.920,81.906 174.800,82.212 174.800 C 82.559 174.800,80.669 172.449,80.300 172.422 C 80.135 172.410,80.000 172.498,80.000 172.618 M88.800 190.153 C 88.800 190.483,88.980 190.864,89.200 191.000 C 89.420 191.136,89.600 190.977,89.600 190.647 C 89.600 190.317,89.420 189.936,89.200 189.800 C 88.980 189.664,88.800 189.823,88.800 190.153 M89.628 194.276 C 89.613 194.758,89.780 195.264,90.000 195.400 C 90.473 195.692,90.473 195.301,90.000 194.200 C 89.669 193.429,89.655 193.431,89.628 194.276 M364.443 226.423 C 363.917 226.861,363.565 227.298,363.661 227.394 C 363.756 227.490,364.350 227.125,364.979 226.584 C 365.609 226.043,365.961 225.606,365.762 225.613 C 365.563 225.621,364.970 225.985,364.443 226.423 M348.043 242.823 C 347.517 243.261,347.191 243.725,347.319 243.852 C 347.447 243.980,348.021 243.616,348.594 243.042 C 349.816 241.821,349.431 241.668,348.043 242.823 M342.700 248.188 C 341.691 249.575,341.839 249.797,343.000 248.636 C 344.023 247.613,344.231 247.190,343.700 247.213 C 343.535 247.219,343.085 247.658,342.700 248.188 M326.493 264.400 C 326.218 264.840,326.131 265.200,326.300 265.200 C 326.469 265.200,326.832 264.840,327.107 264.400 C 327.382 263.960,327.469 263.600,327.300 263.600 C 327.131 263.600,326.768 263.960,326.493 264.400 " stroke="none" fill="#bbe35b" fill-rule="evenodd"></path><path id="path1" d="M99.600 4.000 C 99.600 4.220,98.621 4.400,97.424 4.400 C 96.227 4.400,95.136 4.580,95.000 4.800 C 94.864 5.020,94.133 5.200,93.376 5.200 C 92.619 5.200,92.000 5.380,92.000 5.600 C 92.000 5.820,91.381 6.000,90.624 6.000 C 89.867 6.000,89.136 6.180,89.000 6.400 C 88.864 6.620,88.223 6.800,87.576 6.800 C 86.929 6.800,86.400 6.980,86.400 7.200 C 86.400 7.420,85.860 7.600,85.200 7.600 C 84.540 7.600,84.000 7.780,84.000 8.000 C 84.000 8.220,83.640 8.400,83.200 8.400 C 82.760 8.400,82.400 8.599,82.400 8.843 C 82.400 9.086,82.115 9.176,81.766 9.042 C 81.158 8.809,75.941 11.082,75.667 11.700 C 75.593 11.865,75.188 12.000,74.767 12.000 C 74.345 12.000,74.000 12.180,74.000 12.400 C 74.000 12.620,73.640 12.800,73.200 12.800 C 72.760 12.800,72.400 12.980,72.400 13.200 C 72.400 13.420,72.130 13.600,71.800 13.600 C 71.470 13.600,71.200 13.780,71.200 14.000 C 71.200 14.220,70.930 14.400,70.600 14.400 C 70.270 14.400,70.000 14.580,70.000 14.800 C 70.000 15.020,69.680 15.200,69.288 15.200 C 68.897 15.200,68.317 15.560,68.000 16.000 C 67.683 16.440,67.175 16.800,66.872 16.800 C 66.569 16.800,65.817 17.340,65.200 18.000 C 64.583 18.660,63.867 19.200,63.608 19.200 C 63.349 19.200,62.446 19.920,61.600 20.800 C 60.754 21.680,59.968 22.400,59.852 22.400 C 59.364 22.400,53.600 28.216,53.600 28.708 C 53.600 29.005,53.420 29.136,53.200 29.000 C 52.980 28.864,52.800 28.958,52.800 29.208 C 52.800 29.458,52.080 30.354,51.200 31.200 C 50.320 32.046,49.600 32.905,49.600 33.109 C 49.600 33.314,49.060 34.046,48.400 34.737 C 47.740 35.428,47.200 36.198,47.200 36.449 C 47.200 36.701,46.885 37.197,46.500 37.553 C 46.115 37.909,45.742 38.470,45.670 38.800 C 45.599 39.130,45.374 39.460,45.170 39.533 C 44.967 39.607,44.800 40.012,44.800 40.433 C 44.800 40.855,44.659 41.200,44.486 41.200 C 44.172 41.200,42.622 43.565,42.608 44.067 C 42.604 44.213,42.465 44.468,42.300 44.633 C 42.135 44.798,42.000 45.263,42.000 45.667 C 42.000 46.070,41.820 46.400,41.600 46.400 C 41.380 46.400,41.200 46.760,41.200 47.200 C 41.200 47.640,41.020 48.000,40.800 48.000 C 40.580 48.000,40.400 48.349,40.400 48.776 C 40.400 49.203,40.220 49.664,40.000 49.800 C 39.780 49.936,39.600 50.487,39.600 51.024 C 39.600 51.561,39.420 52.000,39.200 52.000 C 38.980 52.000,38.800 52.349,38.800 52.776 C 38.800 53.203,38.620 53.664,38.400 53.800 C 38.180 53.936,38.000 54.487,38.000 55.024 C 38.000 55.561,37.820 56.000,37.600 56.000 C 37.380 56.000,37.200 56.594,37.200 57.320 C 37.200 58.046,37.026 58.814,36.813 59.027 C 36.601 59.239,36.383 59.995,36.328 60.707 C 36.274 61.418,36.088 62.000,35.915 62.000 C 35.742 62.000,35.600 62.720,35.600 63.600 C 35.600 64.480,35.451 65.200,35.268 65.200 C 35.086 65.200,34.896 66.235,34.846 67.500 C 34.796 68.765,34.585 69.860,34.378 69.933 C 34.144 70.016,34.000 86.909,34.000 114.276 C 34.000 156.226,34.036 158.471,34.700 158.191 C 37.439 157.037,50.688 156.570,55.439 157.459 C 56.560 157.669,57.685 157.772,57.939 157.687 C 58.283 157.572,58.400 147.557,58.400 118.229 C 58.400 79.633,58.572 70.212,59.270 70.643 C 59.462 70.762,59.594 70.711,59.563 70.530 C 59.329 69.186,59.659 66.673,60.000 67.200 C 60.284 67.639,60.389 67.345,60.394 66.100 C 60.397 65.165,60.580 64.400,60.800 64.400 C 61.020 64.400,61.200 63.860,61.200 63.200 C 61.200 62.540,61.380 62.000,61.600 62.000 C 61.820 62.000,62.000 61.640,62.000 61.200 C 62.000 60.760,62.180 60.400,62.400 60.400 C 62.620 60.400,62.800 60.040,62.800 59.600 C 62.800 59.160,62.980 58.800,63.200 58.800 C 63.420 58.800,63.604 58.485,63.609 58.100 C 63.614 57.715,63.970 56.950,64.400 56.400 C 64.830 55.850,65.186 55.175,65.191 54.900 C 65.196 54.625,65.380 54.400,65.600 54.400 C 65.820 54.400,66.000 54.040,66.000 53.600 C 66.000 53.160,66.180 52.800,66.400 52.800 C 66.620 52.800,66.800 52.519,66.800 52.176 C 66.800 51.833,66.980 51.664,67.200 51.800 C 67.420 51.936,67.600 51.757,67.600 51.402 C 67.600 51.047,68.139 50.181,68.798 49.478 C 69.457 48.775,69.997 48.056,69.998 47.881 C 69.999 47.706,70.765 46.775,71.700 45.812 C 72.635 44.849,73.976 43.463,74.681 42.731 C 76.560 40.778,77.755 39.759,78.838 39.185 C 79.367 38.904,80.091 38.343,80.447 37.937 C 80.803 37.532,81.308 37.200,81.571 37.200 C 81.833 37.200,81.936 37.020,81.800 36.800 C 81.664 36.580,81.923 36.400,82.376 36.400 C 82.829 36.400,83.200 36.220,83.200 36.000 C 83.200 35.780,83.560 35.600,84.000 35.600 C 84.440 35.600,84.800 35.420,84.800 35.200 C 84.800 34.980,85.042 34.800,85.338 34.800 C 85.634 34.800,86.202 34.440,86.600 34.000 C 86.998 33.560,87.645 33.200,88.038 33.200 C 88.431 33.200,88.864 33.020,89.000 32.800 C 89.136 32.580,89.597 32.400,90.024 32.400 C 90.451 32.400,90.800 32.220,90.800 32.000 C 90.800 31.780,91.160 31.600,91.600 31.600 C 92.040 31.600,92.400 31.420,92.400 31.200 C 92.400 30.980,92.940 30.800,93.600 30.800 C 94.260 30.800,94.800 30.620,94.800 30.400 C 94.800 30.180,95.329 30.000,95.976 30.000 C 96.623 30.000,97.264 29.820,97.400 29.600 C 97.536 29.380,98.267 29.200,99.024 29.200 C 99.781 29.200,100.400 29.020,100.400 28.800 C 100.400 28.577,101.475 28.400,102.824 28.400 C 104.176 28.400,105.148 28.239,105.022 28.036 C 104.892 27.825,107.312 27.651,110.799 27.622 C 114.706 27.589,116.800 27.715,116.800 27.985 C 116.800 28.225,117.810 28.400,119.200 28.400 C 120.533 28.400,121.600 28.578,121.600 28.800 C 121.600 29.020,122.320 29.200,123.200 29.200 C 124.080 29.200,124.800 29.380,124.800 29.600 C 124.800 29.820,125.239 30.000,125.776 30.000 C 126.313 30.000,126.864 30.180,127.000 30.400 C 127.136 30.620,127.672 30.800,128.190 30.800 C 128.709 30.800,129.193 30.978,129.267 31.197 C 129.340 31.415,129.895 31.634,130.500 31.684 C 131.105 31.734,131.600 31.915,131.600 32.087 C 131.600 32.259,131.960 32.400,132.400 32.400 C 132.840 32.400,133.200 32.580,133.200 32.800 C 133.200 33.020,133.560 33.200,134.000 33.200 C 134.440 33.200,134.800 33.380,134.800 33.600 C 134.800 33.820,135.160 34.000,135.600 34.000 C 136.040 34.000,136.400 34.180,136.400 34.400 C 136.400 34.620,136.681 34.800,137.024 34.800 C 137.409 34.800,137.537 34.991,137.359 35.300 C 137.201 35.575,137.216 35.670,137.392 35.511 C 137.694 35.238,139.631 36.123,140.650 37.000 C 140.906 37.220,142.124 38.192,143.357 39.160 C 144.591 40.128,145.600 41.073,145.600 41.260 C 145.600 41.447,145.881 41.600,146.224 41.600 C 146.567 41.600,146.736 41.780,146.600 42.000 C 146.464 42.220,146.644 42.400,147.000 42.400 C 147.356 42.400,147.565 42.535,147.466 42.700 C 147.229 43.091,148.240 44.026,148.557 43.709 C 148.691 43.576,148.800 43.668,148.800 43.914 C 148.800 44.160,149.700 45.262,150.800 46.362 C 151.900 47.462,152.800 48.552,152.800 48.785 C 152.800 49.017,153.340 49.772,154.000 50.463 C 154.660 51.154,155.200 51.962,155.200 52.259 C 155.200 52.557,155.358 52.800,155.551 52.800 C 155.745 52.800,156.127 53.340,156.400 54.000 C 156.673 54.660,157.018 55.200,157.167 55.200 C 157.491 55.200,159.042 58.868,158.900 59.298 C 158.845 59.464,158.980 59.600,159.200 59.600 C 159.420 59.600,159.600 60.014,159.600 60.520 C 159.600 61.026,159.775 61.615,159.989 61.829 C 160.202 62.042,160.438 62.614,160.512 63.098 C 160.586 63.583,160.771 64.104,160.923 64.256 C 161.075 64.409,161.200 65.043,161.200 65.667 C 161.200 66.290,161.380 66.800,161.600 66.800 C 161.820 66.800,162.000 67.430,162.000 68.200 C 162.000 68.970,162.180 69.600,162.400 69.600 C 162.620 69.600,162.800 70.579,162.800 71.776 C 162.800 72.973,162.980 74.064,163.200 74.200 C 163.465 74.364,163.600 117.471,163.600 202.224 C 163.600 287.141,163.734 330.000,164.000 330.000 C 164.229 330.000,164.400 331.200,164.400 332.800 C 164.400 334.400,164.571 335.600,164.800 335.600 C 165.020 335.600,165.200 336.410,165.200 337.400 C 165.200 338.390,165.380 339.200,165.600 339.200 C 165.820 339.200,166.000 339.920,166.000 340.800 C 166.000 341.680,166.180 342.400,166.400 342.400 C 166.620 342.400,166.800 343.131,166.800 344.024 C 166.800 345.004,166.958 345.549,167.200 345.400 C 167.433 345.256,167.600 345.663,167.600 346.376 C 167.600 347.049,167.780 347.600,168.000 347.600 C 168.220 347.600,168.400 348.050,168.400 348.600 C 168.400 349.150,168.580 349.600,168.800 349.600 C 169.020 349.600,169.200 350.140,169.200 350.800 C 169.200 351.460,169.380 352.000,169.600 352.000 C 169.820 352.000,170.000 352.360,170.000 352.800 C 170.000 353.240,170.180 353.600,170.400 353.600 C 170.620 353.600,170.800 353.960,170.800 354.400 C 170.800 354.840,170.946 355.200,171.125 355.200 C 171.304 355.200,171.698 355.830,172.000 356.600 C 172.302 357.370,172.696 358.000,172.875 358.000 C 173.054 358.000,173.200 358.360,173.200 358.800 C 173.200 359.240,173.380 359.600,173.600 359.600 C 173.820 359.600,174.000 359.960,174.000 360.400 C 174.000 360.840,174.180 361.200,174.400 361.200 C 174.620 361.200,174.800 361.571,174.800 362.024 C 174.800 362.477,174.980 362.736,175.200 362.600 C 175.420 362.464,175.600 362.609,175.600 362.922 C 175.600 363.236,175.973 363.966,176.429 364.546 C 176.885 365.126,177.127 365.600,176.968 365.600 C 176.808 365.600,177.065 365.936,177.539 366.347 C 178.012 366.758,178.400 367.316,178.400 367.586 C 178.400 367.857,178.940 368.583,179.600 369.200 C 180.260 369.817,180.800 370.490,180.800 370.697 C 180.800 370.905,181.655 371.901,182.700 372.911 C 183.745 373.922,186.172 376.290,188.094 378.174 C 190.016 380.058,191.861 381.600,192.194 381.600 C 192.527 381.600,192.800 381.772,192.800 381.982 C 192.800 382.468,194.717 384.400,195.200 384.400 C 195.400 384.400,196.014 384.850,196.564 385.400 C 197.114 385.950,197.842 386.400,198.182 386.400 C 198.522 386.400,198.800 386.580,198.800 386.800 C 198.800 387.020,199.036 387.200,199.325 387.200 C 199.613 387.200,200.236 387.560,200.708 388.000 C 201.180 388.440,201.829 388.800,202.150 388.800 C 202.471 388.800,202.793 388.935,202.867 389.100 C 203.077 389.574,207.038 391.600,207.754 391.600 C 208.109 391.600,208.400 391.780,208.400 392.000 C 208.400 392.220,208.850 392.400,209.400 392.400 C 209.950 392.400,210.400 392.580,210.400 392.800 C 210.400 393.020,210.861 393.200,211.424 393.200 C 212.004 393.200,212.340 393.373,212.200 393.600 C 212.056 393.833,212.463 394.000,213.176 394.000 C 213.849 394.000,214.400 394.180,214.400 394.400 C 214.400 394.620,214.940 394.800,215.600 394.800 C 216.260 394.800,216.800 394.980,216.800 395.200 C 216.800 395.420,217.329 395.600,217.976 395.600 C 218.623 395.600,219.264 395.780,219.400 396.000 C 219.536 396.220,220.166 396.400,220.800 396.400 C 221.434 396.400,222.064 396.580,222.200 396.800 C 222.336 397.020,223.157 397.200,224.024 397.200 C 224.891 397.200,225.600 397.380,225.600 397.600 C 225.600 397.826,226.733 398.000,228.200 398.000 C 229.667 398.000,230.800 398.174,230.800 398.400 C 230.800 398.659,235.733 398.800,244.800 398.800 C 253.867 398.800,258.800 398.659,258.800 398.400 C 258.800 398.178,259.867 398.000,261.200 398.000 C 262.533 398.000,263.600 397.822,263.600 397.600 C 263.600 397.380,264.500 397.200,265.600 397.200 C 266.700 397.200,267.600 397.020,267.600 396.800 C 267.600 396.580,268.320 396.400,269.200 396.400 C 270.080 396.400,270.800 396.220,270.800 396.000 C 270.800 395.780,271.340 395.600,272.000 395.600 C 272.660 395.600,273.200 395.420,273.200 395.200 C 273.200 394.980,273.650 394.800,274.200 394.800 C 274.750 394.800,275.200 394.620,275.200 394.400 C 275.200 394.180,275.560 394.000,276.000 394.000 C 276.440 394.000,276.800 393.820,276.800 393.600 C 276.800 393.380,277.340 393.200,278.000 393.200 C 278.660 393.200,279.200 393.020,279.200 392.800 C 279.200 392.580,279.549 392.400,279.976 392.400 C 280.403 392.400,280.850 392.243,280.968 392.052 C 281.086 391.860,281.760 391.588,282.465 391.447 C 283.171 391.306,284.074 390.895,284.474 390.533 C 284.873 390.172,285.200 390.007,285.200 390.167 C 285.200 390.326,285.485 390.173,285.832 389.825 C 286.180 389.477,286.630 389.295,286.832 389.420 C 287.035 389.545,287.200 389.501,287.200 389.321 C 287.200 389.142,287.741 388.756,288.402 388.463 C 289.075 388.165,289.488 387.743,289.340 387.504 C 289.185 387.252,289.265 387.193,289.535 387.360 C 289.788 387.516,290.443 387.193,290.997 386.640 C 291.548 386.088,292.000 385.827,292.000 386.060 C 292.000 386.294,292.522 385.926,293.160 385.242 C 293.799 384.559,294.537 384.000,294.800 384.000 C 295.063 384.000,295.783 383.460,296.400 382.800 C 297.017 382.140,297.684 381.600,297.884 381.600 C 298.425 381.600,306.917 373.217,308.013 371.600 C 308.535 370.830,309.286 369.909,309.681 369.553 C 310.076 369.197,310.400 368.692,310.400 368.429 C 310.400 368.167,310.580 368.064,310.800 368.200 C 311.020 368.336,311.200 368.077,311.200 367.624 C 311.200 367.171,311.350 366.800,311.532 366.800 C 311.715 366.800,312.119 366.305,312.430 365.700 C 312.740 365.095,313.311 364.309,313.697 363.953 C 314.084 363.597,314.400 363.012,314.400 362.653 C 314.400 362.294,314.580 362.000,314.800 362.000 C 315.020 362.000,315.200 361.680,315.200 361.288 C 315.200 360.897,315.560 360.317,316.000 360.000 C 316.440 359.683,316.800 359.103,316.800 358.712 C 316.800 358.320,316.935 357.999,317.100 357.997 C 317.459 357.993,318.400 356.056,318.400 355.320 C 318.400 355.034,318.535 354.799,318.700 354.797 C 319.106 354.793,320.000 352.814,320.000 351.920 C 320.000 351.524,320.147 351.200,320.328 351.200 C 320.508 351.200,320.900 350.300,321.200 349.200 C 321.500 348.100,321.892 347.200,322.072 347.200 C 322.253 347.200,322.400 346.660,322.400 346.000 C 322.400 345.340,322.580 344.800,322.800 344.800 C 323.020 344.800,323.200 344.080,323.200 343.200 C 323.200 342.320,323.361 341.600,323.558 341.600 C 323.755 341.600,324.026 340.835,324.160 339.900 C 324.295 338.965,324.503 337.660,324.623 337.000 C 324.743 336.340,324.945 333.865,325.072 331.500 C 325.199 329.135,325.460 327.200,325.651 327.200 C 325.847 327.200,326.000 313.554,326.000 296.200 C 326.000 274.154,325.874 265.200,325.565 265.200 C 325.326 265.200,324.021 266.265,322.665 267.567 C 317.010 272.996,310.748 273.613,306.047 269.204 C 303.755 267.054,301.955 265.600,301.586 265.600 C 301.341 265.600,301.200 277.311,301.200 297.624 C 301.200 318.871,301.065 329.564,300.800 329.400 C 300.553 329.248,300.400 329.929,300.400 331.176 C 300.400 332.289,300.220 333.200,300.000 333.200 C 299.780 333.200,299.600 333.920,299.600 334.800 C 299.600 335.680,299.420 336.400,299.200 336.400 C 298.980 336.400,298.800 336.852,298.800 337.405 C 298.800 337.958,298.635 338.723,298.433 339.105 C 297.573 340.732,296.282 343.839,296.275 344.300 C 296.270 344.575,296.138 344.800,295.980 344.800 C 295.822 344.800,295.593 345.115,295.471 345.500 C 295.252 346.193,293.989 348.414,293.596 348.800 C 293.484 348.910,293.038 349.675,292.605 350.500 C 292.172 351.325,291.679 352.000,291.509 352.000 C 291.339 352.000,291.200 352.270,291.200 352.600 C 291.200 352.929,290.480 353.941,289.600 354.848 C 288.720 355.755,288.000 356.705,288.000 356.960 C 288.000 357.215,287.626 357.688,287.169 358.012 C 285.938 358.883,283.944 360.503,283.122 361.300 C 282.725 361.685,282.308 362.000,282.196 362.000 C 282.084 362.000,281.428 362.540,280.737 363.200 C 280.046 363.860,279.304 364.400,279.088 364.400 C 278.871 364.400,278.403 364.716,278.047 365.103 C 277.691 365.489,276.860 366.073,276.200 366.400 C 275.540 366.727,274.709 367.311,274.353 367.697 C 273.997 368.084,273.412 368.400,273.053 368.400 C 272.694 368.400,272.400 368.580,272.400 368.800 C 272.400 369.020,272.040 369.200,271.600 369.200 C 271.160 369.200,270.800 369.380,270.800 369.600 C 270.800 369.820,270.440 370.000,270.000 370.000 C 269.560 370.000,269.200 370.180,269.200 370.400 C 269.200 370.620,268.649 370.800,267.976 370.800 C 267.263 370.800,266.856 370.967,267.000 371.200 C 267.144 371.433,266.745 371.600,266.047 371.600 C 265.387 371.600,264.736 371.780,264.600 372.000 C 264.464 372.220,263.823 372.400,263.176 372.400 C 262.529 372.400,262.000 372.580,262.000 372.800 C 262.000 373.020,261.381 373.200,260.624 373.200 C 259.867 373.200,259.136 373.380,259.000 373.600 C 258.864 373.820,257.593 374.000,256.176 374.000 C 254.725 374.000,253.600 374.175,253.600 374.400 C 253.600 374.655,250.304 374.798,244.500 374.794 C 238.477 374.790,235.603 374.657,236.000 374.400 C 236.418 374.130,235.720 374.010,233.700 374.006 C 232.037 374.003,230.800 373.829,230.800 373.600 C 230.800 373.380,230.080 373.200,229.200 373.200 C 228.320 373.200,227.600 373.020,227.600 372.800 C 227.600 372.580,227.148 372.400,226.595 372.400 C 226.042 372.400,225.187 372.192,224.695 371.938 C 222.769 370.942,222.383 370.800,221.605 370.800 C 221.162 370.800,220.800 370.620,220.800 370.400 C 220.800 370.180,220.440 370.000,220.000 370.000 C 219.560 370.000,219.200 369.820,219.200 369.600 C 219.200 369.380,218.840 369.200,218.400 369.200 C 217.960 369.200,217.600 369.020,217.600 368.800 C 217.600 368.580,217.240 368.400,216.800 368.400 C 216.360 368.400,216.000 368.220,216.000 368.000 C 216.000 367.780,215.680 367.600,215.288 367.600 C 214.897 367.600,214.317 367.240,214.000 366.800 C 213.683 366.360,213.103 366.000,212.712 366.000 C 212.320 366.000,212.000 365.850,212.000 365.668 C 212.000 365.485,211.506 365.080,210.903 364.768 C 210.300 364.455,209.244 363.660,208.558 363.000 C 207.872 362.340,206.552 361.187,205.625 360.437 C 203.487 358.710,200.745 355.922,200.965 355.701 C 201.058 355.609,200.429 354.806,199.567 353.918 C 198.705 353.030,198.000 352.121,198.000 351.899 C 198.000 351.676,197.684 351.203,197.297 350.847 C 196.911 350.491,196.340 349.705,196.030 349.100 C 195.719 348.495,195.315 348.000,195.132 348.000 C 194.950 348.000,194.800 347.640,194.800 347.200 C 194.800 346.760,194.620 346.400,194.400 346.400 C 194.180 346.400,194.000 346.051,194.000 345.624 C 194.000 345.197,193.820 344.736,193.600 344.600 C 193.380 344.464,193.200 344.003,193.200 343.576 C 193.200 343.149,193.020 342.800,192.800 342.800 C 192.580 342.800,192.400 342.440,192.400 342.000 C 192.400 341.560,192.220 341.200,192.000 341.200 C 191.780 341.200,191.600 340.811,191.600 340.335 C 191.600 339.376,190.514 335.391,189.957 334.305 C 189.760 333.923,189.600 332.924,189.600 332.085 C 189.600 331.246,189.419 330.379,189.199 330.159 C 188.932 329.892,188.798 287.643,188.797 204.279 C 188.797 121.177,188.663 78.800,188.399 78.800 C 188.179 78.800,188.021 78.665,188.047 78.500 C 188.299 76.906,187.920 69.202,187.600 69.400 C 187.349 69.555,187.200 68.671,187.200 67.024 C 187.200 65.541,187.026 64.400,186.800 64.400 C 186.580 64.400,186.400 63.691,186.400 62.824 C 186.400 61.957,186.220 61.136,186.000 61.000 C 185.780 60.864,185.600 60.223,185.600 59.576 C 185.600 58.929,185.420 58.400,185.200 58.400 C 184.980 58.400,184.800 57.860,184.800 57.200 C 184.800 56.540,184.620 56.000,184.400 56.000 C 184.180 56.000,184.000 55.460,184.000 54.800 C 184.000 54.140,183.820 53.600,183.600 53.600 C 183.380 53.600,183.200 53.060,183.200 52.400 C 183.200 51.740,183.020 51.200,182.800 51.200 C 182.580 51.200,182.400 50.840,182.400 50.400 C 182.400 49.960,182.220 49.600,182.000 49.600 C 181.780 49.600,181.600 49.240,181.600 48.800 C 181.600 48.360,181.465 47.999,181.300 47.997 C 180.935 47.993,180.000 46.051,180.000 45.297 C 180.000 44.998,179.820 44.864,179.600 45.000 C 179.373 45.140,179.200 44.804,179.200 44.224 C 179.200 43.661,179.020 43.200,178.800 43.200 C 178.580 43.200,178.400 42.930,178.400 42.600 C 178.400 42.270,178.220 42.000,178.000 42.000 C 177.780 42.000,177.600 41.680,177.600 41.288 C 177.600 40.897,177.240 40.317,176.800 40.000 C 176.360 39.683,176.000 39.103,176.000 38.712 C 176.000 38.320,175.820 38.000,175.600 38.000 C 175.380 38.000,175.200 37.717,175.200 37.371 C 175.200 37.026,174.975 36.492,174.700 36.185 C 173.504 34.852,173.200 34.407,173.200 33.993 C 173.200 33.751,173.020 33.664,172.800 33.800 C 172.580 33.936,172.400 33.749,172.400 33.384 C 172.400 33.019,171.860 32.217,171.200 31.600 C 170.540 30.983,170.000 30.288,170.000 30.054 C 170.000 29.820,169.640 29.435,169.200 29.200 C 168.760 28.965,168.400 28.508,168.400 28.186 C 168.400 27.864,168.260 27.600,168.090 27.600 C 167.919 27.600,166.594 26.459,165.144 25.065 C 163.694 23.672,161.898 22.103,161.154 21.581 C 160.409 21.058,159.323 20.129,158.740 19.515 C 158.156 18.902,157.491 18.400,157.262 18.400 C 157.033 18.400,156.608 18.085,156.318 17.700 C 156.028 17.315,155.387 16.775,154.895 16.500 C 154.403 16.225,153.597 15.775,153.104 15.500 C 152.612 15.225,151.916 14.685,151.557 14.300 C 151.199 13.915,150.612 13.600,150.253 13.600 C 149.894 13.600,149.600 13.420,149.600 13.200 C 149.600 12.980,149.240 12.800,148.800 12.800 C 148.360 12.800,148.000 12.620,148.000 12.400 C 148.000 12.180,147.640 12.000,147.200 12.000 C 146.760 12.000,146.400 11.820,146.400 11.600 C 146.400 11.380,146.040 11.200,145.600 11.200 C 145.160 11.200,144.800 11.064,144.800 10.898 C 144.800 10.731,144.215 10.353,143.500 10.057 C 142.785 9.761,141.633 9.268,140.940 8.960 C 140.246 8.652,139.301 8.400,138.840 8.400 C 138.378 8.400,138.000 8.220,138.000 8.000 C 138.000 7.780,137.460 7.600,136.800 7.600 C 136.140 7.600,135.600 7.420,135.600 7.200 C 135.600 6.980,135.060 6.800,134.400 6.800 C 133.740 6.800,133.200 6.620,133.200 6.400 C 133.200 6.180,132.480 6.000,131.600 6.000 C 130.720 6.000,130.000 5.820,130.000 5.600 C 130.000 5.380,129.280 5.200,128.400 5.200 C 127.520 5.200,126.800 5.020,126.800 4.800 C 126.800 4.577,125.725 4.400,124.376 4.400 C 122.863 4.400,122.046 4.250,122.200 4.000 C 122.363 3.737,118.537 3.600,111.024 3.600 C 103.675 3.600,99.600 3.743,99.600 4.000 M89.226 235.731 C 88.661 237.219,86.468 239.538,85.057 240.140 C 82.019 241.438,80.730 241.600,73.463 241.600 L 65.983 241.600 66.010 256.812 C 66.026 266.365,66.178 271.937,66.418 271.789 C 66.628 271.659,66.800 271.915,66.800 272.358 C 66.800 273.344,70.804 277.600,71.731 277.600 C 72.099 277.600,72.400 277.780,72.400 278.000 C 72.400 278.220,72.760 278.400,73.200 278.400 C 73.640 278.400,74.000 278.580,74.000 278.800 C 74.000 279.376,80.490 279.301,82.406 278.703 C 83.283 278.429,84.000 278.069,84.000 277.903 C 84.000 277.736,84.241 277.600,84.536 277.600 C 85.832 277.600,89.600 273.157,89.600 271.629 C 89.600 271.199,89.780 270.736,90.000 270.600 C 90.257 270.441,90.400 264.070,90.400 252.800 C 90.400 235.811,90.216 233.129,89.226 235.731 " stroke="none" fill="#046434" fill-rule="evenodd"></path><path id="path2" d="M314.243 42.633 C 314.109 42.981,314.000 54.195,314.000 67.552 L 314.000 91.839 315.500 92.401 C 316.325 92.710,317.150 92.921,317.334 92.870 C 319.167 92.362,324.800 98.315,324.800 100.760 C 324.800 101.196,324.980 101.664,325.200 101.800 C 325.457 101.959,325.600 108.463,325.600 120.000 C 325.600 129.874,325.751 138.046,325.935 138.160 C 326.119 138.273,327.334 137.339,328.635 136.083 C 334.194 130.717,341.071 130.282,346.300 134.964 C 347.015 135.605,347.600 136.370,347.600 136.664 C 347.600 136.959,347.735 137.201,347.900 137.203 C 348.301 137.207,349.200 139.181,349.200 140.056 C 349.200 140.439,349.380 140.864,349.600 141.000 C 349.820 141.136,350.000 142.317,350.000 143.624 C 350.000 144.941,349.822 146.000,349.600 146.000 C 349.380 146.000,349.200 146.540,349.200 147.200 C 349.200 147.860,349.020 148.400,348.800 148.400 C 348.580 148.400,348.400 148.745,348.400 149.167 C 348.400 149.588,348.265 149.998,348.100 150.077 C 347.935 150.157,342.805 155.264,336.700 161.427 L 325.600 172.633 325.606 217.616 C 325.610 243.173,325.766 262.843,325.968 263.162 C 326.407 263.855,378.400 212.000,378.400 210.869 C 378.400 210.693,378.940 210.032,379.600 209.400 C 380.260 208.768,380.800 208.027,380.800 207.754 C 380.800 207.481,381.034 207.019,381.319 206.729 C 382.206 205.825,384.400 202.478,384.400 202.028 C 384.400 201.793,384.546 201.600,384.725 201.600 C 384.904 201.600,385.298 200.970,385.600 200.200 C 385.902 199.430,386.262 198.800,386.400 198.800 C 386.538 198.800,386.898 198.170,387.200 197.400 C 387.502 196.630,387.896 196.000,388.075 196.000 C 388.254 196.000,388.400 195.640,388.400 195.200 C 388.400 194.760,388.645 194.400,388.945 194.400 C 389.310 194.400,389.426 194.071,389.298 193.400 C 389.186 192.816,389.293 192.400,389.553 192.400 C 389.799 192.400,390.000 192.040,390.000 191.600 C 390.000 191.160,390.180 190.800,390.400 190.800 C 390.620 190.800,390.800 190.350,390.800 189.800 C 390.800 189.250,390.980 188.800,391.200 188.800 C 391.420 188.800,391.600 188.350,391.600 187.800 C 391.600 187.250,391.780 186.800,392.000 186.800 C 392.220 186.800,392.400 186.260,392.400 185.600 C 392.400 184.940,392.580 184.400,392.800 184.400 C 393.020 184.400,393.200 183.860,393.200 183.200 C 393.200 182.482,393.409 182.000,393.720 182.000 C 394.078 182.000,394.189 181.565,394.076 180.600 C 393.976 179.743,394.085 179.200,394.356 179.200 C 394.607 179.200,394.800 178.505,394.800 177.600 C 394.800 176.720,394.980 176.000,395.200 176.000 C 395.420 176.000,395.600 175.089,395.600 173.976 C 395.600 172.729,395.753 172.048,396.000 172.200 C 396.252 172.356,396.400 171.404,396.400 169.624 C 396.400 168.071,396.559 166.800,396.754 166.800 C 397.230 166.800,397.142 147.473,396.665 147.143 C 396.461 147.002,396.318 145.787,396.349 144.443 C 396.381 143.037,396.233 142.000,396.002 142.000 C 395.781 142.000,395.600 141.100,395.600 140.000 C 395.600 138.900,395.420 138.000,395.200 138.000 C 394.980 138.000,394.800 137.280,394.800 136.400 C 394.800 135.520,394.620 134.800,394.400 134.800 C 394.180 134.800,394.000 134.170,394.000 133.400 C 394.000 132.630,393.820 132.000,393.600 132.000 C 393.380 132.000,393.200 131.460,393.200 130.800 C 393.200 130.140,393.020 129.600,392.800 129.600 C 392.580 129.600,392.400 129.060,392.400 128.400 C 392.400 127.740,392.220 127.200,392.000 127.200 C 391.780 127.200,391.600 126.750,391.600 126.200 C 391.600 125.650,391.420 125.200,391.200 125.200 C 390.980 125.200,390.800 124.750,390.800 124.200 C 390.800 123.650,390.620 123.200,390.400 123.200 C 390.180 123.200,390.000 122.840,390.000 122.400 C 390.000 121.960,389.820 121.600,389.600 121.600 C 389.380 121.600,389.200 121.251,389.200 120.824 C 389.200 120.397,389.004 119.926,388.765 119.778 C 388.526 119.631,388.418 119.176,388.524 118.769 C 388.636 118.342,388.523 118.064,388.259 118.114 C 388.007 118.161,387.813 117.804,387.830 117.320 C 387.846 116.836,387.699 116.539,387.503 116.660 C 387.307 116.781,387.047 116.502,386.926 116.040 C 386.806 115.578,386.581 115.200,386.428 115.200 C 386.275 115.200,385.902 114.570,385.600 113.800 C 385.298 113.030,384.926 112.400,384.774 112.400 C 384.622 112.400,384.273 111.860,384.000 111.200 C 383.727 110.540,383.345 110.000,383.151 110.000 C 382.958 110.000,382.798 109.775,382.795 109.500 C 382.792 109.225,382.431 108.550,381.992 108.000 C 380.356 105.948,378.400 103.241,378.400 103.029 C 378.400 101.982,319.640 43.600,318.587 43.600 C 318.264 43.600,318.000 43.420,318.000 43.200 C 318.000 42.980,317.460 42.800,316.800 42.800 C 316.140 42.800,315.600 42.620,315.600 42.400 C 315.600 41.754,314.508 41.942,314.243 42.633 M329.200 52.125 C 329.200 52.194,329.785 52.779,330.500 53.425 L 331.800 54.600 330.625 53.300 C 329.530 52.088,329.200 51.816,329.200 52.125 M345.600 68.525 C 345.600 68.594,346.185 69.179,346.900 69.825 L 348.200 71.000 347.025 69.700 C 345.930 68.488,345.600 68.216,345.600 68.525 " stroke="none" fill="#04cc73" fill-rule="evenodd"></path><path id="path3" d="M299.792 50.100 L 295.800 54.200 299.900 50.208 C 302.155 48.012,304.000 46.167,304.000 46.108 C 304.000 45.818,303.501 46.292,299.792 50.100 M282.992 66.900 L 279.400 70.600 283.100 67.008 C 286.536 63.672,286.982 63.200,286.692 63.200 C 286.632 63.200,284.967 64.865,282.992 66.900 M266.592 83.300 L 263.000 87.000 266.700 83.408 C 270.136 80.072,270.582 79.600,270.292 79.600 C 270.232 79.600,268.567 81.265,266.592 83.300 M310.875 93.025 C 302.794 95.199,302.023 97.642,302.010 121.100 C 302.002 135.085,301.894 138.800,301.495 138.800 C 301.217 138.800,298.391 136.197,295.215 133.015 C 288.500 126.288,287.087 125.439,282.572 125.415 C 275.729 125.379,270.805 130.726,271.275 137.684 C 271.562 141.942,271.896 142.362,287.464 158.018 L 302.000 172.635 302.082 192.418 C 302.127 203.298,302.172 224.073,302.182 238.584 L 302.200 264.967 303.940 266.572 C 306.828 269.234,307.674 269.908,308.761 270.412 C 309.332 270.677,310.113 271.052,310.495 271.247 C 310.877 271.441,311.642 271.600,312.195 271.600 L 313.200 271.600 313.200 182.000 C 313.200 132.720,313.155 92.412,313.100 92.426 C 313.045 92.441,312.044 92.710,310.875 93.025 M46.000 198.725 C 46.000 221.610,46.109 240.619,46.243 240.967 C 46.518 241.684,65.470 241.947,66.220 241.244 C 66.429 241.048,70.380 240.799,75.000 240.691 C 85.343 240.449,87.419 239.567,88.845 234.807 C 89.110 233.923,89.568 233.200,89.863 233.200 C 90.537 233.200,90.672 195.816,90.000 195.400 C 89.780 195.264,89.600 194.274,89.600 193.200 C 89.600 192.126,89.420 191.136,89.200 191.000 C 88.980 190.864,88.800 190.144,88.800 189.400 C 88.800 188.656,88.620 187.936,88.400 187.800 C 88.180 187.664,88.000 187.023,88.000 186.376 C 88.000 185.729,87.812 185.200,87.582 185.200 C 87.353 185.200,87.194 184.975,87.230 184.700 C 87.417 183.256,87.181 182.210,86.800 182.800 C 86.486 183.285,86.411 183.228,86.406 182.500 C 86.403 182.005,86.265 181.599,86.100 181.599 C 85.935 181.598,85.350 180.608,84.800 179.400 C 84.250 178.192,83.665 177.202,83.500 177.201 C 83.335 177.201,83.200 176.919,83.200 176.576 C 83.200 176.233,83.008 176.071,82.773 176.217 C 82.531 176.366,82.401 176.228,82.473 175.897 C 82.543 175.576,82.015 174.766,81.300 174.096 C 80.585 173.427,80.000 172.674,80.000 172.423 C 80.000 172.172,79.640 171.580,79.200 171.108 C 78.760 170.636,78.400 170.013,78.400 169.725 C 78.400 169.436,78.112 169.200,77.760 169.200 C 77.409 169.200,76.573 168.615,75.904 167.900 C 75.234 167.185,74.445 166.652,74.150 166.716 C 73.810 166.789,73.700 166.604,73.851 166.212 C 74.030 165.744,73.913 165.659,73.375 165.865 C 72.828 166.075,72.719 165.987,72.910 165.490 C 73.086 165.033,72.988 164.907,72.580 165.063 C 72.261 165.186,72.000 165.086,72.000 164.843 C 72.000 164.599,71.802 164.400,71.560 164.400 C 71.319 164.400,70.614 163.858,69.995 163.195 C 69.243 162.390,68.802 162.158,68.667 162.495 C 68.539 162.812,68.451 162.748,68.432 162.324 C 68.414 161.952,68.192 161.519,67.938 161.362 C 67.652 161.185,67.585 161.252,67.762 161.538 C 67.919 161.792,67.857 162.000,67.624 162.000 C 67.391 162.000,67.200 161.809,67.200 161.576 C 67.200 161.343,67.024 161.262,66.808 161.395 C 66.296 161.712,64.715 160.862,64.989 160.417 C 65.106 160.229,64.796 160.163,64.301 160.272 C 63.552 160.436,63.501 160.390,64.000 160.001 C 64.482 159.625,64.343 159.577,63.300 159.756 C 62.385 159.914,62.000 159.826,62.000 159.459 C 62.000 159.108,61.609 158.996,60.800 159.115 C 60.067 159.222,59.600 159.114,59.600 158.836 C 59.600 158.571,58.973 158.394,58.100 158.412 C 57.275 158.429,55.610 158.243,54.400 157.999 C 53.190 157.756,50.805 157.457,49.100 157.336 L 46.000 157.115 46.000 198.725 " stroke="none" fill="#9cdb04" fill-rule="evenodd"></path><path id="path4" d="M314.400 182.200 C 314.400 231.370,314.535 271.597,314.700 271.594 C 315.197 271.584,317.734 270.613,318.772 270.036 C 319.306 269.738,320.967 268.346,322.462 266.942 L 325.180 264.389 325.195 218.505 L 325.210 172.621 335.590 162.210 C 346.120 151.649,348.369 149.139,348.389 147.924 C 348.395 147.552,348.580 147.136,348.800 147.000 C 349.658 146.470,349.262 140.658,348.228 138.616 C 346.625 135.449,343.578 132.800,341.539 132.800 C 341.132 132.800,340.800 132.620,340.800 132.400 C 340.800 132.171,339.600 132.000,338.000 132.000 C 336.400 132.000,335.200 132.171,335.200 132.400 C 335.200 132.620,334.750 132.800,334.200 132.800 C 333.650 132.800,333.200 132.936,333.200 133.102 C 333.200 133.269,332.615 133.663,331.900 133.978 C 331.185 134.293,329.471 135.713,328.090 137.132 C 326.710 138.552,325.497 139.631,325.396 139.530 C 325.295 139.429,325.203 130.860,325.192 120.488 C 325.180 108.831,325.024 101.539,324.786 101.391 C 324.574 101.260,324.400 100.713,324.400 100.176 C 324.400 99.639,324.220 99.200,324.000 99.200 C 323.780 99.200,323.600 98.954,323.600 98.653 C 323.600 97.940,320.060 94.400,319.347 94.400 C 319.046 94.400,318.800 94.220,318.800 94.000 C 318.800 93.780,318.451 93.600,318.024 93.600 C 317.597 93.600,317.136 93.420,317.000 93.200 C 316.864 92.980,316.223 92.800,315.576 92.800 L 314.400 92.800 314.400 182.200 M6.171 276.297 C 6.815 277.009,7.430 277.504,7.538 277.396 C 7.645 277.288,7.658 277.155,7.567 277.100 C 7.475 277.045,6.860 276.551,6.200 276.001 L 5.000 275.003 6.171 276.297 " stroke="none" fill="#04a464" fill-rule="evenodd"></path><path id="path5" d="M313.392 41.987 C 313.565 42.268,313.831 94.090,313.983 157.148 L 314.260 271.800 314.330 182.300 L 314.400 92.800 315.300 92.757 C 316.129 92.718,316.113 92.681,315.100 92.280 L 314.000 91.846 314.000 67.555 C 314.000 54.196,314.109 42.981,314.243 42.633 C 314.508 41.942,315.600 41.754,315.600 42.400 C 315.600 42.620,316.140 42.800,316.800 42.800 C 317.460 42.800,318.000 42.980,318.000 43.200 C 318.000 43.420,318.264 43.600,318.587 43.600 C 319.469 43.600,366.257 89.848,375.400 99.758 C 376.720 101.189,377.935 102.368,378.100 102.380 C 378.868 102.432,378.230 101.382,376.421 99.620 C 375.332 98.560,374.552 97.581,374.687 97.446 C 374.823 97.311,374.677 97.200,374.363 97.200 C 373.810 97.200,372.560 95.658,372.699 95.148 C 372.780 94.854,371.586 93.717,371.000 93.529 C 370.780 93.458,370.649 93.252,370.710 93.070 C 370.770 92.889,370.635 92.855,370.410 92.994 C 370.184 93.133,370.000 93.064,370.000 92.840 C 370.000 92.615,369.059 91.570,367.908 90.516 C 365.240 88.072,361.928 84.760,359.484 82.092 C 358.430 80.941,357.385 80.000,357.160 80.000 C 356.936 80.000,356.867 79.816,357.006 79.590 C 357.145 79.365,357.021 79.230,356.730 79.290 C 356.438 79.351,356.238 79.196,356.284 78.948 C 356.370 78.488,355.328 77.362,354.600 77.129 C 354.380 77.058,354.249 76.852,354.310 76.670 C 354.370 76.489,354.235 76.455,354.010 76.594 C 353.784 76.733,353.600 76.664,353.600 76.440 C 353.600 76.215,352.655 75.172,351.500 74.122 C 348.197 71.118,341.600 64.340,341.600 63.952 C 341.600 63.758,341.319 63.600,340.976 63.600 C 340.633 63.600,340.464 63.420,340.600 63.200 C 340.736 62.980,340.602 62.800,340.302 62.800 C 339.624 62.800,337.200 60.344,337.200 59.657 C 337.200 59.380,337.020 59.264,336.800 59.400 C 336.580 59.536,336.400 59.367,336.400 59.024 C 336.400 58.681,336.242 58.400,336.048 58.400 C 335.660 58.400,328.882 51.803,325.878 48.500 C 324.828 47.345,323.785 46.400,323.560 46.400 C 323.336 46.400,323.264 46.220,323.400 46.000 C 323.536 45.780,323.356 45.600,323.000 45.600 C 322.644 45.600,322.464 45.420,322.600 45.200 C 322.736 44.980,322.668 44.800,322.448 44.800 C 322.229 44.800,321.467 44.268,320.756 43.619 C 320.045 42.969,319.294 42.542,319.087 42.670 C 318.880 42.798,318.576 42.685,318.411 42.418 C 318.247 42.152,316.979 41.832,315.595 41.706 C 313.615 41.527,313.145 41.587,313.392 41.987 M337.600 60.125 C 337.600 60.194,338.185 60.779,338.900 61.425 L 340.200 62.600 339.025 61.300 C 337.930 60.088,337.600 59.816,337.600 60.125 M317.200 93.200 C 317.200 93.420,317.560 93.600,318.000 93.600 C 318.440 93.600,318.800 93.780,318.800 94.000 C 318.800 94.220,319.115 94.399,319.500 94.397 C 320.000 94.395,319.858 94.168,319.000 93.600 C 317.659 92.712,317.200 92.610,317.200 93.200 M320.400 94.640 C 320.400 95.159,323.124 97.809,323.387 97.547 C 323.496 97.437,322.869 96.648,321.993 95.793 C 321.117 94.937,320.400 94.419,320.400 94.640 M325.288 102.800 C 325.095 104.663,325.214 139.348,325.415 139.548 C 325.899 140.032,326.520 138.827,326.067 138.281 C 325.741 137.888,325.577 132.545,325.500 119.764 C 325.440 109.884,325.345 102.250,325.288 102.800 M378.400 103.024 C 378.400 103.240,380.342 105.929,381.992 108.000 C 382.431 108.550,382.792 109.225,382.795 109.500 C 382.798 109.775,382.958 110.000,383.151 110.000 C 383.345 110.000,383.727 110.540,384.000 111.200 C 384.273 111.860,384.611 112.400,384.751 112.400 C 384.890 112.400,385.259 112.985,385.570 113.700 C 385.881 114.415,386.241 115.090,386.370 115.200 C 386.816 115.580,389.200 120.514,389.200 121.056 C 389.200 121.355,389.380 121.600,389.600 121.600 C 389.820 121.600,390.000 121.960,390.000 122.400 C 390.000 122.840,390.180 123.200,390.400 123.200 C 390.620 123.200,390.800 123.650,390.800 124.200 C 390.800 124.750,390.980 125.200,391.200 125.200 C 391.420 125.200,391.600 125.650,391.600 126.200 C 391.600 126.750,391.780 127.200,392.000 127.200 C 392.220 127.200,392.400 127.740,392.400 128.400 C 392.400 129.060,392.580 129.600,392.800 129.600 C 393.470 129.600,393.247 127.709,392.400 126.200 C 391.960 125.417,391.600 124.451,391.600 124.055 C 391.600 123.658,391.465 123.198,391.300 123.033 C 391.135 122.868,390.991 122.613,390.980 122.467 C 390.926 121.750,389.132 118.400,388.803 118.400 C 388.595 118.400,388.528 118.132,388.654 117.803 C 388.785 117.463,388.608 117.101,388.244 116.961 C 387.892 116.827,387.693 116.574,387.800 116.400 C 388.034 116.022,387.511 115.007,385.430 111.800 C 384.574 110.480,383.872 109.183,383.870 108.918 C 383.868 108.652,383.717 108.528,383.533 108.641 C 383.350 108.755,383.200 108.633,383.200 108.371 C 383.200 108.108,382.851 107.591,382.425 107.222 C 381.999 106.852,381.594 106.301,381.525 105.997 C 381.308 105.036,378.400 102.270,378.400 103.024 M393.467 129.467 C 393.045 129.888,393.156 132.000,393.600 132.000 C 393.820 132.000,394.000 131.370,394.000 130.600 C 394.000 129.161,393.927 129.006,393.467 129.467 M333.800 132.400 C 333.664 132.620,333.923 132.800,334.376 132.800 C 334.829 132.800,335.200 132.620,335.200 132.400 C 335.200 132.180,334.941 132.000,334.624 132.000 C 334.307 132.000,333.936 132.180,333.800 132.400 M340.800 132.400 C 340.800 132.620,341.171 132.800,341.624 132.800 C 342.077 132.800,342.336 132.620,342.200 132.400 C 342.064 132.180,341.693 132.000,341.376 132.000 C 341.059 132.000,340.800 132.180,340.800 132.400 M394.000 133.600 C 394.000 134.260,394.180 134.800,394.400 134.800 C 394.620 134.800,394.800 135.520,394.800 136.400 C 394.800 137.280,394.980 138.000,395.200 138.000 C 395.420 138.000,395.600 137.381,395.600 136.624 C 395.600 135.867,395.420 135.136,395.200 135.000 C 394.980 134.864,394.800 134.223,394.800 133.576 C 394.800 132.929,394.620 132.400,394.400 132.400 C 394.180 132.400,394.000 132.940,394.000 133.600 M331.600 133.638 C 331.050 134.090,330.870 134.356,331.200 134.230 C 331.530 134.104,332.115 133.889,332.500 133.754 C 332.885 133.618,333.200 133.348,333.200 133.153 C 333.200 132.594,332.680 132.752,331.600 133.638 M345.793 135.193 C 346.648 136.069,347.444 136.689,347.562 136.571 C 347.801 136.332,345.028 133.600,344.546 133.600 C 344.376 133.600,344.937 134.317,345.793 135.193 M328.475 136.124 C 327.554 137.062,326.800 137.963,326.800 138.126 C 326.800 138.288,327.627 137.594,328.639 136.582 C 329.650 135.571,330.404 134.670,330.314 134.580 C 330.224 134.490,329.396 135.185,328.475 136.124 M347.600 137.339 C 347.600 137.788,348.918 140.015,349.085 139.848 C 349.353 139.580,348.290 137.200,347.902 137.200 C 347.736 137.200,347.600 137.262,347.600 137.339 M395.600 140.400 C 395.600 141.280,395.780 142.000,396.000 142.000 C 396.220 142.000,396.400 141.280,396.400 140.400 C 396.400 139.520,396.220 138.800,396.000 138.800 C 395.780 138.800,395.600 139.520,395.600 140.400 M349.200 143.376 C 349.200 144.859,349.374 146.000,349.600 146.000 C 349.822 146.000,350.000 144.941,350.000 143.624 C 350.000 142.317,349.820 141.136,349.600 141.000 C 349.349 140.845,349.200 141.729,349.200 143.376 M396.342 143.902 C 396.158 145.840,396.359 147.200,396.828 147.200 C 397.305 147.200,397.318 142.920,396.842 142.626 C 396.645 142.504,396.420 143.078,396.342 143.902 M348.612 147.317 C 348.441 147.712,348.413 148.147,348.551 148.284 C 348.957 148.690,349.284 148.120,349.097 147.331 C 348.932 146.633,348.910 146.632,348.612 147.317 M347.613 149.601 C 347.326 150.150,342.667 155.100,337.258 160.600 L 327.424 170.600 337.958 160.138 C 344.043 154.095,348.417 149.450,348.313 149.140 C 348.195 148.786,347.956 148.943,347.613 149.601 M397.095 151.100 C 396.933 152.365,396.951 155.603,397.163 163.100 C 397.183 163.815,397.380 164.400,397.600 164.400 C 397.852 164.400,398.000 161.667,398.000 157.000 C 398.000 150.219,397.569 147.409,397.095 151.100 M396.406 169.300 C 396.410 171.062,396.527 171.623,396.800 171.200 C 397.312 170.407,397.312 166.800,396.800 166.800 C 396.575 166.800,396.403 167.896,396.406 169.300 M326.075 171.721 L 325.210 172.641 325.193 218.621 C 325.178 259.621,325.242 264.614,325.789 264.730 C 326.126 264.801,326.511 264.576,326.644 264.230 C 326.777 263.883,327.091 263.601,327.343 263.602 C 327.594 263.603,329.262 262.073,331.049 260.202 C 332.837 258.331,334.512 256.800,334.773 256.800 C 335.034 256.800,335.136 256.620,335.000 256.400 C 334.864 256.180,335.044 256.000,335.400 256.000 C 335.756 256.000,335.936 255.820,335.800 255.600 C 335.664 255.380,335.844 255.200,336.200 255.200 C 336.556 255.200,336.770 255.065,336.676 254.900 C 336.451 254.505,338.248 252.781,338.559 253.093 C 338.692 253.225,338.800 253.023,338.800 252.643 C 338.800 252.263,338.980 252.064,339.200 252.200 C 339.420 252.336,339.600 252.260,339.600 252.031 C 339.600 251.802,340.410 250.769,341.400 249.735 C 342.390 248.702,343.200 247.709,343.200 247.528 C 343.200 247.348,343.433 247.200,343.719 247.200 C 344.367 247.200,347.200 244.338,347.200 243.683 C 347.200 243.417,347.348 243.200,347.528 243.200 C 347.709 243.200,348.702 242.390,349.735 241.400 C 350.769 240.410,351.802 239.600,352.031 239.600 C 352.260 239.600,352.336 239.420,352.200 239.200 C 352.064 238.980,352.263 238.800,352.643 238.800 C 353.023 238.800,353.225 238.692,353.093 238.559 C 352.781 238.248,354.505 236.451,354.900 236.676 C 355.065 236.770,355.200 236.556,355.200 236.200 C 355.200 235.844,355.380 235.664,355.600 235.800 C 355.820 235.936,356.000 235.756,356.000 235.400 C 356.000 235.044,356.180 234.864,356.400 235.000 C 356.620 235.136,356.800 235.034,356.800 234.773 C 356.800 234.512,358.331 232.837,360.202 231.049 C 362.073 229.262,363.603 227.575,363.602 227.300 C 363.601 227.025,363.744 226.800,363.921 226.800 C 364.097 226.800,365.075 225.990,366.093 225.000 C 367.112 224.010,368.148 223.200,368.396 223.200 C 368.644 223.200,368.736 223.020,368.600 222.800 C 368.464 222.580,368.644 222.400,369.000 222.400 C 369.356 222.400,369.536 222.220,369.400 222.000 C 369.264 221.780,369.444 221.600,369.800 221.600 C 370.156 221.600,370.365 221.465,370.266 221.300 C 370.029 220.909,371.040 219.974,371.357 220.291 C 371.491 220.424,371.600 220.223,371.600 219.843 C 371.600 219.463,371.780 219.264,372.000 219.400 C 372.220 219.536,372.400 219.356,372.400 219.000 C 372.400 218.644,372.580 218.464,372.800 218.600 C 373.020 218.736,373.200 218.567,373.200 218.224 C 373.200 217.881,373.432 217.600,373.715 217.600 C 373.998 217.600,374.257 217.240,374.290 216.800 C 374.323 216.360,374.308 216.000,374.256 216.000 C 373.797 216.000,362.027 228.119,362.205 228.409 C 362.341 228.629,362.149 228.679,361.751 228.526 C 361.229 228.325,361.122 228.419,361.310 228.910 C 361.494 229.390,361.390 229.494,360.910 229.310 C 360.419 229.122,360.325 229.229,360.526 229.751 C 360.672 230.131,360.627 230.340,360.427 230.217 C 359.958 229.927,346.332 243.566,346.622 244.036 C 346.743 244.231,346.531 244.272,346.151 244.126 C 345.629 243.925,345.522 244.019,345.710 244.510 C 345.894 244.990,345.790 245.094,345.310 244.910 C 344.830 244.726,344.726 244.830,344.910 245.310 C 345.094 245.790,344.990 245.894,344.510 245.710 C 344.019 245.522,343.925 245.629,344.126 246.151 C 344.272 246.531,344.231 246.743,344.036 246.622 C 343.566 246.332,329.927 259.958,330.217 260.427 C 330.340 260.627,330.131 260.672,329.751 260.526 C 329.229 260.325,329.122 260.419,329.310 260.910 C 329.494 261.390,329.390 261.494,328.910 261.310 C 328.419 261.122,328.325 261.229,328.526 261.751 C 328.691 262.181,328.634 262.344,328.374 262.184 C 328.145 262.042,327.597 262.342,327.156 262.850 C 326.484 263.625,326.295 263.680,325.984 263.187 C 325.087 261.770,325.520 173.010,326.429 171.854 C 327.451 170.555,327.243 170.477,326.075 171.721 M395.600 173.576 C 395.600 174.469,395.780 175.200,396.000 175.200 C 396.220 175.200,396.400 174.581,396.400 173.824 C 396.400 173.067,396.220 172.336,396.000 172.200 C 395.758 172.051,395.600 172.596,395.600 173.576 M394.865 177.468 C 394.944 178.378,394.803 178.999,394.496 179.101 C 393.908 179.297,393.820 181.600,394.400 181.600 C 394.620 181.600,394.800 181.071,394.800 180.424 C 394.800 179.777,394.980 179.136,395.200 179.000 C 395.740 178.666,395.712 176.000,395.169 176.000 C 394.917 176.000,394.791 176.608,394.865 177.468 M393.200 183.176 C 393.200 183.823,393.380 184.464,393.600 184.600 C 393.838 184.747,394.000 184.271,394.000 183.424 C 394.000 182.641,393.820 182.000,393.600 182.000 C 393.380 182.000,393.200 182.529,393.200 183.176 M392.400 185.400 C 392.400 185.950,392.580 186.400,392.800 186.400 C 393.020 186.400,393.200 185.950,393.200 185.400 C 393.200 184.850,393.020 184.400,392.800 184.400 C 392.580 184.400,392.400 184.850,392.400 185.400 M391.600 187.800 C 391.600 188.350,391.420 188.800,391.200 188.800 C 390.980 188.800,390.800 189.250,390.800 189.800 C 390.800 190.350,390.620 190.800,390.400 190.800 C 390.180 190.800,390.000 191.160,390.000 191.600 C 390.000 192.040,389.820 192.400,389.600 192.400 C 389.380 192.400,389.200 192.760,389.200 193.200 C 389.200 193.640,389.397 194.000,389.637 194.000 C 389.878 194.000,390.169 193.640,390.284 193.200 C 390.399 192.760,390.647 192.400,390.834 192.400 C 391.022 192.400,391.078 192.148,390.960 191.840 C 390.842 191.533,390.938 191.162,391.173 191.017 C 391.408 190.872,391.600 190.313,391.600 189.776 C 391.600 189.239,391.780 188.800,392.000 188.800 C 392.220 188.800,392.400 188.350,392.400 187.800 C 392.400 187.250,392.220 186.800,392.000 186.800 C 391.780 186.800,391.600 187.250,391.600 187.800 M388.400 195.200 C 388.400 195.640,388.254 196.000,388.075 196.000 C 387.896 196.000,387.502 196.630,387.200 197.400 C 386.898 198.170,386.538 198.800,386.400 198.800 C 386.262 198.800,385.902 199.430,385.600 200.200 C 385.298 200.970,384.904 201.600,384.725 201.600 C 384.546 201.600,384.400 201.793,384.400 202.028 C 384.400 202.478,382.206 205.825,381.319 206.729 C 381.034 207.019,380.800 207.481,380.800 207.754 C 380.800 208.027,380.260 208.768,379.600 209.400 C 378.940 210.032,378.400 210.695,378.400 210.873 C 378.400 211.051,377.500 212.115,376.400 213.239 C 374.582 215.095,374.004 216.000,374.635 216.000 C 375.002 216.000,379.200 211.534,379.200 211.143 C 379.200 210.950,379.740 210.228,380.400 209.537 C 381.060 208.846,381.600 208.115,381.600 207.912 C 381.600 207.365,382.665 206.399,382.952 206.686 C 383.089 206.822,383.200 206.723,383.200 206.467 C 383.200 205.693,383.323 205.434,384.078 204.625 C 384.475 204.198,384.800 203.613,384.800 203.325 C 384.800 203.036,384.980 202.800,385.200 202.800 C 385.420 202.800,385.600 202.519,385.600 202.176 C 385.600 201.833,385.784 201.667,386.010 201.806 C 386.235 201.945,386.373 201.911,386.315 201.730 C 386.152 201.219,387.253 198.800,387.649 198.800 C 387.842 198.800,388.000 198.566,388.000 198.280 C 388.000 197.544,388.941 195.607,389.300 195.603 C 389.465 195.601,389.600 195.330,389.600 195.000 C 389.600 194.670,389.330 194.400,389.000 194.400 C 388.667 194.400,388.400 194.756,388.400 195.200 M2.813 235.867 C 2.806 236.123,2.942 236.393,3.114 236.467 C 3.287 236.540,3.847 237.195,4.358 237.923 C 4.869 238.651,5.371 239.163,5.472 239.061 C 5.574 238.959,5.384 238.544,5.050 238.138 C 4.716 237.732,4.079 236.950,3.635 236.400 C 3.190 235.850,2.821 235.610,2.813 235.867 M9.735 241.292 C 9.991 241.455,13.800 241.564,18.200 241.534 C 22.600 241.504,25.750 241.424,25.200 241.355 C 22.957 241.073,9.304 241.018,9.735 241.292 " stroke="none" fill="#22c254" fill-rule="evenodd"></path><path id="path6" d="M2.000 252.024 C 2.000 261.497,2.151 269.154,2.336 269.040 C 2.520 268.926,2.696 269.487,2.726 270.287 C 2.756 271.087,2.921 271.844,3.091 271.971 C 3.262 272.097,3.656 272.693,3.966 273.297 C 4.745 274.807,7.522 277.340,9.513 278.356 C 11.314 279.274,18.102 279.606,18.600 278.800 C 18.736 278.580,19.195 278.400,19.620 278.400 C 20.045 278.400,20.618 278.040,20.893 277.600 C 21.168 277.160,21.619 276.800,21.896 276.800 C 22.173 276.800,22.400 276.620,22.400 276.400 C 22.400 276.180,22.593 276.000,22.829 276.000 C 23.466 276.000,24.400 274.947,24.400 274.229 C 24.400 273.883,24.580 273.600,24.800 273.600 C 25.020 273.600,25.200 273.330,25.200 273.000 C 25.200 272.670,25.380 272.400,25.600 272.400 C 25.820 272.400,26.000 271.896,26.000 271.280 C 26.000 270.664,26.225 269.918,26.500 269.621 C 26.900 269.190,26.900 269.139,26.500 269.365 C 26.225 269.520,26.000 269.457,26.000 269.224 C 26.000 268.991,26.180 268.800,26.400 268.800 C 26.659 268.800,26.800 264.000,26.800 255.200 L 26.800 241.600 18.619 241.600 C 13.491 241.600,10.020 241.432,9.319 241.150 C 6.784 240.131,6.154 239.767,5.200 238.771 C 3.493 236.989,2.800 236.014,2.800 235.395 C 2.800 235.068,2.620 234.800,2.400 234.800 C 2.140 234.800,2.000 240.808,2.000 252.024 M322.585 266.824 C 320.207 269.247,318.495 270.372,315.807 271.274 C 314.150 271.830,313.999 271.952,314.942 271.974 C 316.676 272.014,319.947 270.194,322.400 267.825 C 323.610 266.656,324.960 265.503,325.400 265.262 C 326.196 264.826,326.196 264.824,325.385 264.812 C 324.923 264.805,323.710 265.677,322.585 266.824 " stroke="none" fill="#049a53" fill-rule="evenodd"></path><path id="path7" d="M313.200 181.693 L 313.200 271.547 312.195 271.722 C 311.275 271.883,311.283 271.893,312.295 271.849 L 313.400 271.800 313.600 182.200 C 313.710 132.920,313.665 92.429,313.500 92.220 C 313.335 92.011,313.200 132.274,313.200 181.693 M44.900 157.076 C 45.285 157.176,45.915 157.176,46.300 157.076 C 46.685 156.975,46.370 156.893,45.600 156.893 C 44.830 156.893,44.515 156.975,44.900 157.076 M38.400 157.600 C 37.033 157.888,37.028 157.895,38.200 157.919 C 38.860 157.933,39.760 157.789,40.200 157.600 C 41.162 157.187,40.364 157.187,38.400 157.600 M52.200 157.600 C 52.640 157.789,53.450 157.938,54.000 157.932 L 55.000 157.920 54.000 157.600 C 53.450 157.424,52.640 157.274,52.200 157.268 L 51.400 157.256 52.200 157.600 M88.840 234.825 C 88.572 235.719,87.713 237.204,86.930 238.125 C 85.813 239.441,85.904 239.384,87.354 237.861 C 88.369 236.795,89.200 235.599,89.200 235.204 C 89.200 234.809,89.470 234.382,89.800 234.255 C 90.545 233.969,90.591 233.200,89.863 233.200 C 89.568 233.200,89.108 233.931,88.840 234.825 M6.000 239.220 C 7.387 240.161,8.178 240.435,7.200 239.636 C 6.650 239.186,6.020 238.817,5.800 238.815 C 5.580 238.813,5.670 238.996,6.000 239.220 M73.610 240.700 C 69.766 240.766,66.489 240.950,66.329 241.110 C 66.169 241.269,69.794 241.310,74.386 241.200 C 78.977 241.090,82.869 240.865,83.034 240.700 C 83.198 240.535,82.718 240.440,81.967 240.490 C 81.215 240.539,77.455 240.634,73.610 240.700 M13.600 241.074 C 19.963 241.362,26.310 241.375,26.139 241.100 C 26.037 240.935,22.588 240.835,18.476 240.878 C 14.364 240.921,12.170 241.010,13.600 241.074 M302.200 265.551 C 302.860 265.962,303.929 266.861,304.575 267.549 C 305.221 268.237,305.898 268.800,306.079 268.800 C 306.260 268.800,305.415 267.900,304.200 266.800 C 302.985 265.700,301.768 264.801,301.496 264.801 C 301.223 264.802,301.540 265.140,302.200 265.551 M307.607 270.135 C 309.082 271.126,310.954 271.773,310.577 271.163 C 310.454 270.963,310.048 270.796,309.676 270.791 C 309.304 270.786,308.550 270.430,308.000 270.000 C 307.450 269.570,306.823 269.214,306.607 269.209 C 306.391 269.204,306.841 269.621,307.607 270.135 " stroke="none" fill="#64ac2c" fill-rule="evenodd"></path><path id="path8" d="M313.502 182.600 C 313.446 231.770,313.535 272.000,313.700 272.000 C 313.865 272.000,314.000 231.770,314.000 182.600 C 314.000 133.430,313.911 93.200,313.802 93.200 C 313.693 93.200,313.558 133.430,313.502 182.600 M39.000 157.180 C 38.535 157.368,39.373 157.426,41.000 157.319 C 44.658 157.078,45.216 156.864,42.200 156.860 C 40.880 156.858,39.440 157.002,39.000 157.180 M47.400 157.036 C 49.281 157.335,53.921 157.398,53.481 157.118 C 53.217 156.950,51.560 156.834,49.800 156.861 C 48.040 156.887,46.960 156.966,47.400 157.036 M35.200 158.000 C 34.405 158.514,35.404 158.514,36.600 158.000 L 37.400 157.656 36.600 157.634 C 36.160 157.622,35.530 157.787,35.200 158.000 M54.812 157.722 C 55.186 158.050,58.000 158.342,58.000 158.053 C 58.000 157.890,57.240 157.712,56.312 157.657 C 55.383 157.602,54.708 157.631,54.812 157.722 M89.700 234.265 C 89.007 234.544,89.073 235.067,89.800 235.067 C 90.130 235.067,90.400 234.827,90.400 234.533 C 90.400 234.240,90.355 234.014,90.300 234.032 C 90.245 234.049,89.975 234.154,89.700 234.265 M86.706 238.611 C 85.884 239.375,85.354 240.000,85.527 240.000 C 85.701 240.000,86.454 239.370,87.200 238.600 C 88.941 236.803,88.643 236.810,86.706 238.611 M73.800 241.200 L 66.200 241.427 73.800 241.507 C 78.177 241.554,81.654 241.423,82.000 241.200 C 82.533 240.855,82.533 240.821,82.000 240.893 C 81.670 240.937,77.980 241.075,73.800 241.200 M301.800 265.666 C 302.240 265.908,303.058 266.488,303.619 266.954 C 304.179 267.419,304.046 267.215,303.324 266.500 C 302.602 265.785,301.784 265.205,301.506 265.212 C 301.228 265.219,301.360 265.423,301.800 265.666 " stroke="none" fill="#4c9c30" fill-rule="evenodd"></path></g></svg>