<?xml version="1.0" encoding="utf-8"?>
<svg viewBox="580 0 640 90" data-background-color="#ffffff" preserveAspectRatio="xMidYMid meet" height="400" width="640" xmlns="http://www.w3.org/2000/svg">
  <g id="tight-bounds" transform="matrix(1, 0, 0, 1, -0.409524, -0.491083)">
    <svg viewBox="0 0 640 90" height="400" width="640">
      <g>
        <svg viewBox="0 0 640 90" height="400" width="640">
          <g>
            <svg viewBox="0 0 640 90" height="400" width="640">
              <g>
                <svg viewBox="0 0 640 90" height="400" width="640">
                  <g>
                    <rect width="640" height="400" fill="none" stroke-width="9" stroke="#000593" data-fill-palette-color="none" data-stroke-palette-color="tertiary"/>
                    <rect width="640" height="400" y="77" fill="#000593" data-fill-palette-color="tertiary"/>
                  </g>
                  <g>
                    <svg viewBox="-10 30 900 77" height="77" width="1200">
                      <g transform="matrix(1,0,0,1,23.607599999999998,23.607599999999998)">
                        <svg width="350" viewBox="0.20000000298023224 -36.650001525878906 425 37" height="30" data-palette-color="#000593">
                          <path d="M30.65-33.7L19 0 12.9 0 1.55-33.7 7.05-33.7 11.35-20.3Q12.75-16 13.9-12.08 15.05-8.15 15.5-6.4L15.5-6.4 16-4.6Q17.6-10.6 20.8-20.3L20.8-20.3 25.15-33.7 30.65-33.7ZM61.25-29.63Q65.4-24.9 65.4-17 65.4-9.1 61.22-4.35 57.05 0.4 49.95 0.4L49.95 0.4Q42.9 0.4 38.67-4.35 34.45-9.1 34.45-17L34.45-17Q34.45-24.85 38.65-29.6 42.85-34.35 49.9-34.35L49.9-34.35Q57.1-34.35 61.25-29.63ZM42.52-26.18Q39.85-22.8 39.85-17 39.85-11.2 42.6-7.8 45.35-4.4 49.95-4.4L49.95-4.4Q54.7-4.4 57.35-7.75 60-11.1 60-17L60-17Q60-22.85 57.32-26.2 54.65-29.55 49.9-29.55L49.9-29.55Q45.2-29.55 42.52-26.18ZM91.6-33.7L91.6-29.4 82.75-29.4 82.75 0 77.6 0 77.6-29.4 68.8-29.4 68.8-33.7 91.6-33.7ZM105.89-29.4L105.89-29.4 101.49-29.4 101.49-17.1 106.14-17.1Q109.34-17.1 110.99-18.78 112.64-20.45 112.64-23.25L112.64-23.25Q112.64-29.4 105.89-29.4ZM101.49-12.8L101.49 0 96.34 0 96.34-33.7 105.74-33.7Q111.54-33.7 114.69-30.88 117.84-28.05 117.84-23.2L117.84-23.2Q117.79-19.65 116.04-17.18 114.29-14.7 111.19-13.6L111.19-13.6 119.99 0 113.84 0 105.94-12.8 101.49-12.8ZM144.19-4.3L144.19 0 124.74 0 124.74-33.7 143.94-33.7 143.94-29.4 129.89-29.4 129.89-19 142.34-19 142.34-14.7 129.89-14.7 129.89-4.3 144.19-4.3ZM181.04-4.55L181.04 0 162.09 0 162.09-33.7 167.24-33.7 167.24-4.55 181.04-4.55ZM211.53-29.63Q215.68-24.9 215.68-17 215.68-9.1 211.51-4.35 207.33 0.4 200.23 0.4L200.23 0.4Q193.18 0.4 188.96-4.35 184.73-9.1 184.73-17L184.73-17Q184.73-24.85 188.93-29.6 193.13-34.35 200.18-34.35L200.18-34.35Q207.38-34.35 211.53-29.63ZM192.81-26.18Q190.13-22.8 190.13-17 190.13-11.2 192.88-7.8 195.63-4.4 200.23-4.4L200.23-4.4Q204.98-4.4 207.63-7.75 210.28-11.1 210.28-17L210.28-17Q210.28-22.85 207.61-26.2 204.93-29.55 200.18-29.55L200.18-29.55Q195.48-29.55 192.81-26.18ZM248.68-3.1L248.73-2.75Q244.38 0.4 237.83 0.4L237.83 0.4Q229.93 0.4 225.11-4.25 220.28-8.9 220.28-16.9L220.28-16.9Q220.28-24.65 225.16-29.48 230.03-34.3 237.53-34.3L237.53-34.3Q243.38-34.3 247.33-32.05L247.33-32.05 247.33-26.75Q243.03-29.45 237.73-29.45L237.73-29.45Q232.33-29.45 229.01-26 225.68-22.55 225.68-16.9L225.68-16.9Q225.68-11.1 228.96-7.75 232.23-4.4 237.98-4.4L237.98-4.4Q240.98-4.4 243.68-5.5L243.68-5.5 243.68-14.8 236.83-14.8 236.83-19.25 248.73-19.25 248.73-3.1 248.68-3.1ZM281.13-29.63Q285.28-24.9 285.28-17 285.28-9.1 281.1-4.35 276.93 0.4 269.83 0.4L269.83 0.4Q262.78 0.4 258.55-4.35 254.33-9.1 254.33-17L254.33-17Q254.33-24.85 258.53-29.6 262.73-34.35 269.78-34.35L269.78-34.35Q276.98-34.35 281.13-29.63ZM262.4-26.18Q259.73-22.8 259.73-17 259.73-11.2 262.48-7.8 265.23-4.4 269.83-4.4L269.83-4.4Q274.58-4.4 277.23-7.75 279.88-11.1 279.88-17L279.88-17Q279.88-22.85 277.2-26.2 274.53-29.55 269.78-29.55L269.78-29.55Q265.08-29.55 262.4-26.18ZM308.37-33.7L308.37 0 303.27 0 303.27-33.7 308.37-33.7ZM340.47-6.85L340.47-1.65Q337.37 0.4 331.87 0.4L331.87 0.4Q324.32 0.4 319.52-4.3 314.72-9 314.72-16.9L314.72-16.9Q314.72-24.55 319.55-29.35 324.37-34.15 331.77-34.15L331.77-34.15Q337.17-34.15 340.42-32.3L340.42-32.3 340.42-27.25Q338.22-28.45 336.44-28.93 334.67-29.4 331.92-29.4L331.92-29.4Q326.87-29.4 323.5-25.98 320.12-22.55 320.12-16.9L320.12-16.9Q320.12-11.15 323.47-7.75 326.82-4.35 332.32-4.35L332.32-4.35Q337.17-4.35 340.47-6.85L340.47-6.85ZM351.82-33.7L351.82 0 346.72 0 346.72-33.7 351.82-33.7Z" opacity="1" transform="matrix(1,0,0,1,0,0)" fill="#000593" class="undefined-text-0" data-fill-palette-color="primary" id="text-0"/>
                        </svg>
                      </g>
                    </svg>
                  </g>
                </svg>
              </g>
            </svg>
          </g>
        </svg>
      </g>
    </svg>
    <rect width="640" height="90" fill="none" stroke="none" visibility="hidden"/>
  </g>
</svg>