<?xml version="1.0" encoding="utf-8"?>
<svg viewBox="580 0 640 90" data-background-color="#ffffff" preserveAspectRatio="xMidYMid meet" height="400" width="640" xmlns="http://www.w3.org/2000/svg">
  <g id="tight-bounds" transform="matrix(1, 0, 0, 1, -0.409524, -0.491083)">
    <svg viewBox="0 0 640 90" height="400" width="640">
      <g>
        <svg viewBox="0 0 640 90" height="400" width="640">
          <g>
            <svg viewBox="0 0 640 90" height="400" width="640">
              <g>
                <svg viewBox="0 0 640 90" height="400" width="640">
                  <g>
                    <rect width="640" height="400" fill="none" stroke-width="9" stroke="#000593" data-fill-palette-color="none" data-stroke-palette-color="tertiary"/>
                    <rect width="640" height="400" y="77" fill="#000593" data-fill-palette-color="tertiary"/>
                  </g>
                  <g>
                    <svg viewBox="-10 30 900 77" height="77" width="1200">
                      <g transform="matrix(1,0,0,1,23.607599999999998,23.607599999999998)">
                        <svg width="350" viewBox="0.20000000298023224 -36.650001525878906 425 37" height="30" data-palette-color="#000593">
                          <path d="M32.5-36.25L19.15-11.95 19.15 0 13.65 0 13.65-11.95Q13.3-12.5 12.28-14.35 11.25-16.2 9.88-18.73 8.5-21.25 6.93-24.1 5.35-26.95 3.98-29.48 2.6-32 1.58-33.85 0.55-35.7 0.2-36.25L0.2-36.25 6.4-36.25Q6.85-35.5 8-33.38 9.15-31.25 10.55-28.58 11.95-25.9 13.4-23.18 14.85-20.45 15.85-18.5L15.85-18.5 16.4-16.85Q16.6-17.25 16.75-17.68 16.9-18.1 17.05-18.5L17.05-18.5Q18.1-20.45 19.5-23.18 20.9-25.9 22.28-28.58 23.65-31.25 24.78-33.38 25.9-35.5 26.35-36.25L26.35-36.25 32.5-36.25ZM32.55-18.1L32.55-18.1Q32.55-21.85 34-25.23 35.45-28.6 37.97-31.15 40.5-33.7 43.85-35.18 47.2-36.65 51.05-36.65L51.05-36.65Q54.85-36.65 58.22-35.18 61.6-33.7 64.12-31.15 66.65-28.6 68.12-25.23 69.6-21.85 69.6-18.1L69.6-18.1Q69.6-14.25 68.12-10.9 66.65-7.55 64.12-5.03 61.6-2.5 58.22-1.05 54.85 0.4 51.05 0.4L51.05 0.4Q47.2 0.4 43.85-1.05 40.5-2.5 37.97-5.03 35.45-7.55 34-10.9 32.55-14.25 32.55-18.1ZM38-18.05L38-18.05Q38-15.3 39.02-12.88 40.05-10.45 41.85-8.65 43.65-6.85 46.05-5.8 48.45-4.75 51.15-4.75L51.15-4.75Q53.85-4.75 56.22-5.8 58.6-6.85 60.37-8.65 62.15-10.45 63.17-12.88 64.2-15.3 64.2-18.1L64.2-18.1Q64.2-20.85 63.17-23.28 62.15-25.7 60.35-27.5 58.55-29.3 56.17-30.35 53.8-31.4 51.1-31.4L51.1-31.4Q48.4-31.4 46-30.35 43.6-29.3 41.82-27.5 40.05-25.7 39.02-23.25 38-20.8 38-18.05ZM89.34 0.4L89.34 0.4Q86.45 0.4 83.95-0.55 81.45-1.5 79.57-3.23 77.7-4.95 76.62-7.38 75.55-9.8 75.55-12.8L75.55-12.8 75.55-36.25 81.05-36.25 81.05-12.95Q81.05-11.2 81.67-9.73 82.3-8.25 83.42-7.13 84.55-6 86.05-5.38 87.55-4.75 89.34-4.75L89.34-4.75Q91.09-4.75 92.62-5.38 94.15-6 95.27-7.13 96.4-8.25 97.05-9.73 97.7-11.2 97.7-12.95L97.7-12.95 97.7-36.25 103.2-36.25 103.2-12.8Q103.2-9.8 102.12-7.38 101.05-4.95 99.17-3.23 97.3-1.5 94.77-0.55 92.25 0.4 89.34 0.4ZM117.19 0L111.69 0 111.69-36.25 121.59-36.25Q124.44-36.25 126.82-35.5 129.19-34.75 130.92-33.27 132.64-31.8 133.59-29.68 134.54-27.55 134.54-24.8L134.54-24.8Q134.54-23.3 134.24-21.83 133.94-20.35 133.27-18.98 132.59-17.6 131.54-16.43 130.49-15.25 128.99-14.45L128.99-14.45Q130.99-11.3 133.34-7.48 135.69-3.65 138.09 0L138.09 0 131.54 0Q130.54-1.55 129.47-3.25 128.39-4.95 127.32-6.63 126.24-8.3 125.22-9.93 124.19-11.55 123.29-12.95L123.29-12.95 122.29-12.95 117.19-12.95 117.19 0ZM117.19-31.15L117.19-18.1 122.14-18.1Q124.14-18.1 125.49-18.78 126.84-19.45 127.62-20.45 128.39-21.45 128.72-22.6 129.04-23.75 129.04-24.7L129.04-24.7Q129.04-25.65 128.72-26.78 128.39-27.9 127.59-28.88 126.79-29.85 125.47-30.5 124.14-31.15 122.19-31.15L122.19-31.15 117.19-31.15ZM173.09 0L149.59 0 149.59-36.25 155.09-36.25 155.09-5.2 173.09-5.2 173.09 0ZM174.54-18.1L174.54-18.1Q174.54-21.85 175.99-25.23 177.44-28.6 179.96-31.15 182.49-33.7 185.84-35.18 189.19-36.65 193.04-36.65L193.04-36.65Q196.84-36.65 200.21-35.18 203.59-33.7 206.11-31.15 208.64-28.6 210.11-25.23 211.59-21.85 211.59-18.1L211.59-18.1Q211.59-14.25 210.11-10.9 208.64-7.55 206.11-5.03 203.59-2.5 200.21-1.05 196.84 0.4 193.04 0.4L193.04 0.4Q189.19 0.4 185.84-1.05 182.49-2.5 179.96-5.03 177.44-7.55 175.99-10.9 174.54-14.25 174.54-18.1ZM179.99-18.05L179.99-18.05Q179.99-15.3 181.01-12.88 182.04-10.45 183.84-8.65 185.64-6.85 188.04-5.8 190.44-4.75 193.14-4.75L193.14-4.75Q195.84-4.75 198.21-5.8 200.59-6.85 202.36-8.65 204.14-10.45 205.16-12.88 206.19-15.3 206.19-18.1L206.19-18.1Q206.19-20.85 205.16-23.28 204.14-25.7 202.34-27.5 200.54-29.3 198.16-30.35 195.79-31.4 193.09-31.4L193.09-31.4Q190.39-31.4 187.99-30.35 185.59-29.3 183.81-27.5 182.04-25.7 181.01-23.25 179.99-20.8 179.99-18.05ZM232.88-17.35L244.98-17.35 244.98-2.15Q242.88-0.95 239.98-0.28 237.08 0.4 234.08 0.4L234.08 0.4Q229.78 0.4 226.36-0.95 222.93-2.3 220.48-4.67 218.03-7.05 216.73-10.3 215.43-13.55 215.43-17.4L215.43-17.4Q215.43-21.65 216.96-25.18 218.48-28.7 221.11-31.25 223.73-33.8 227.16-35.23 230.58-36.65 234.43-36.65L234.43-36.65Q237.03-36.65 239.88-35.98 242.73-35.3 244.83-34.05L244.83-34.05 242.18-29.6Q241.43-30.05 240.46-30.4 239.48-30.75 238.43-31 237.38-31.25 236.33-31.38 235.28-31.5 234.33-31.5L234.33-31.5Q231.68-31.5 229.23-30.45 226.78-29.4 224.93-27.55 223.08-25.7 221.98-23.2 220.88-20.7 220.88-17.8L220.88-17.8Q220.88-15.15 221.86-12.8 222.83-10.45 224.58-8.65 226.33-6.85 228.78-5.8 231.23-4.75 234.18-4.75L234.18-4.75Q235.33-4.75 236.91-4.98 238.48-5.2 239.93-5.75L239.93-5.75 239.93-12.65 232.88-12.65 232.88-17.35ZM249.63-18.1L249.63-18.1Q249.63-21.85 251.08-25.23 252.53-28.6 255.06-31.15 257.58-33.7 260.93-35.18 264.28-36.65 268.13-36.65L268.13-36.65Q271.93-36.65 275.31-35.18 278.68-33.7 281.21-31.15 283.73-28.6 285.21-25.23 286.68-21.85 286.68-18.1L286.68-18.1Q286.68-14.25 285.21-10.9 283.73-7.55 281.21-5.03 278.68-2.5 275.31-1.05 271.93 0.4 268.13 0.4L268.13 0.4Q264.28 0.4 260.93-1.05 257.58-2.5 255.06-5.03 252.53-7.55 251.08-10.9 249.63-14.25 249.63-18.1ZM255.08-18.05L255.08-18.05Q255.08-15.3 256.11-12.88 257.13-10.45 258.93-8.65 260.73-6.85 263.13-5.8 265.53-4.75 268.23-4.75L268.23-4.75Q270.93-4.75 273.31-5.8 275.68-6.85 277.46-8.65 279.23-10.45 280.25-12.88 281.28-15.3 281.28-18.1L281.28-18.1Q281.28-20.85 280.25-23.28 279.23-25.7 277.43-27.5 275.63-29.3 273.25-30.35 270.88-31.4 268.18-31.4L268.18-31.4Q265.48-31.4 263.08-30.35 260.68-29.3 258.91-27.5 257.13-25.7 256.11-23.25 255.08-20.8 255.08-18.05ZM304.98 0L299.53 0 299.53-36.25 304.98-36.25 304.98-20.85 323.13-20.85 323.13-36.25 328.63-36.25Q328.63-35.6 328.63-33.83 328.63-32.05 328.63-29.6 328.63-27.15 328.63-24.18 328.63-21.2 328.6-18.13 328.58-15.05 328.58-12.08 328.58-9.1 328.58-6.65 328.58-4.2 328.58-2.43 328.58-0.65 328.58 0L328.58 0 323.13 0 323.13-15.65 304.98-15.65 304.98 0ZM362.02 0L337.52 0 337.52-36.25 361.32-36.25 361.32-31.3 343.02-31.3 343.02-20.7 359.32-20.7 359.32-15.65 343.02-15.65 343.02-5.05 362.02-5.05 362.02 0ZM373.87 0L368.37 0 368.37-36.25 378.27-36.25Q381.12-36.25 383.5-35.5 385.87-34.75 387.6-33.27 389.32-31.8 390.27-29.68 391.22-27.55 391.22-24.8L391.22-24.8Q391.22-23.3 390.92-21.83 390.62-20.35 389.95-18.98 389.27-17.6 388.22-16.43 387.17-15.25 385.67-14.45L385.67-14.45Q387.67-11.3 390.02-7.48 392.37-3.65 394.77 0L394.77 0 388.22 0Q387.22-1.55 386.15-3.25 385.07-4.95 384-6.63 382.92-8.3 381.9-9.93 380.87-11.55 379.97-12.95L379.97-12.95 378.97-12.95 373.87-12.95 373.87 0ZM373.87-31.15L373.87-18.1 378.82-18.1Q380.82-18.1 382.17-18.78 383.52-19.45 384.3-20.45 385.07-21.45 385.4-22.6 385.72-23.75 385.72-24.7L385.72-24.7Q385.72-25.65 385.4-26.78 385.07-27.9 384.27-28.88 383.47-29.85 382.15-30.5 380.82-31.15 378.87-31.15L378.87-31.15 373.87-31.15ZM424.27 0L399.77 0 399.77-36.25 423.57-36.25 423.57-31.3 405.27-31.3 405.27-20.7 421.57-20.7 421.57-15.65 405.27-15.65 405.27-5.05 424.27-5.05 424.27 0Z" opacity="1" transform="matrix(1,0,0,1,0,0)" fill="#000593" class="undefined-text-0" data-fill-palette-color="primary" id="text-0"/>
                        </svg>
                      </g>
                    </svg>
                  </g>
                </svg>
              </g>
            </svg>
          </g>
        </svg>
      </g>
    </svg>
    <rect width="640" height="90" fill="none" stroke="none" visibility="hidden"/>
  </g>
</svg>