<svg id="svg" version="1.1" xmlns="http://www.w3.org/2000/svg" xmlns:xlink="http://www.w3.org/1999/xlink" width="400" height="400" viewBox="0, 0, 400,400"><g id="svgg"><path id="path0" d="M298.198 170.402 C 297.175 171.532,297.610 171.637,298.686 170.520 C 299.173 170.014,299.426 169.600,299.248 169.600 C 299.070 169.600,298.597 169.961,298.198 170.402 M102.347 209.900 C 102.082 210.395,101.715 210.800,101.532 210.800 C 101.350 210.800,101.200 211.070,101.200 211.400 C 101.200 211.730,101.020 212.000,100.800 212.000 C 100.580 212.000,100.400 212.236,100.400 212.525 C 100.400 212.813,100.040 213.436,99.600 213.908 C 99.160 214.380,98.800 214.866,98.800 214.988 C 98.800 215.109,98.080 216.264,97.200 217.553 C 96.320 218.842,95.600 220.060,95.600 220.260 C 95.600 220.460,95.250 220.876,94.821 221.185 C 94.393 221.493,94.121 221.872,94.216 222.026 C 94.311 222.180,94.032 222.761,93.595 223.316 C 93.158 223.872,92.800 224.489,92.800 224.688 C 92.800 224.886,92.485 225.398,92.100 225.825 C 91.715 226.251,91.131 227.140,90.803 227.800 C 90.474 228.460,89.889 229.291,89.503 229.647 C 89.116 230.003,88.800 230.548,88.800 230.859 C 88.800 231.169,88.440 231.683,88.000 232.000 C 87.560 232.317,87.200 232.897,87.200 233.288 C 87.200 233.680,87.050 234.000,86.868 234.000 C 86.685 234.000,86.280 234.495,85.968 235.100 C 85.655 235.705,85.085 236.549,84.700 236.975 C 84.315 237.402,84.000 237.987,84.000 238.275 C 84.000 238.564,83.820 238.800,83.600 238.800 C 83.380 238.800,83.200 239.081,83.200 239.424 C 83.200 239.793,83.012 239.931,82.738 239.762 C 82.464 239.593,82.385 239.651,82.542 239.906 C 82.688 240.142,82.536 240.607,82.204 240.939 C 81.872 241.271,81.600 241.806,81.600 242.129 C 81.600 242.451,81.344 242.813,81.030 242.933 C 80.717 243.053,80.168 243.768,79.810 244.522 C 79.453 245.275,78.854 246.231,78.480 246.646 C 78.106 247.061,77.444 248.075,77.009 248.900 C 76.574 249.725,76.079 250.400,75.909 250.400 C 75.739 250.400,75.600 250.760,75.600 251.200 C 75.600 251.640,75.420 252.000,75.200 252.000 C 74.980 252.000,74.800 252.294,74.800 252.653 C 74.800 253.012,74.484 253.597,74.097 253.953 C 73.711 254.309,73.140 255.095,72.830 255.700 C 72.519 256.305,72.115 256.800,71.932 256.800 C 71.750 256.800,71.600 257.120,71.600 257.512 C 71.600 257.903,71.240 258.483,70.800 258.800 C 70.360 259.117,70.000 259.529,70.000 259.716 C 70.000 259.903,69.460 260.841,68.800 261.800 C 68.140 262.759,67.600 263.722,67.600 263.939 C 67.600 264.156,67.455 264.393,67.277 264.467 C 66.856 264.640,64.400 268.241,64.400 268.684 C 64.400 268.871,64.050 269.276,63.621 269.585 C 63.193 269.893,62.919 270.269,63.013 270.421 C 63.106 270.572,62.737 271.214,62.192 271.848 C 61.647 272.482,61.201 273.211,61.200 273.469 C 61.200 273.727,60.795 274.448,60.300 275.071 C 59.805 275.693,59.175 276.607,58.900 277.101 C 57.649 279.349,57.356 279.809,56.700 280.555 C 56.315 280.993,56.000 281.504,56.000 281.692 C 56.000 281.880,55.640 282.420,55.200 282.892 C 54.760 283.364,54.400 283.987,54.400 284.275 C 54.400 284.564,54.220 284.800,54.000 284.800 C 53.780 284.800,53.600 285.036,53.600 285.325 C 53.600 285.613,53.240 286.236,52.800 286.708 C 52.360 287.180,52.000 287.804,52.000 288.095 C 52.000 288.386,51.640 288.883,51.200 289.200 C 50.760 289.517,50.400 290.005,50.400 290.284 C 50.400 290.739,49.788 291.634,48.581 292.945 C 48.350 293.195,47.579 294.422,46.868 295.671 C 46.157 296.920,45.445 298.000,45.287 298.071 C 45.129 298.142,44.554 299.055,44.008 300.100 C 43.463 301.145,42.867 302.000,42.685 302.000 C 42.502 302.000,42.464 302.180,42.600 302.400 C 42.736 302.620,42.657 302.800,42.424 302.800 C 42.191 302.800,42.000 303.120,42.000 303.512 C 42.000 303.903,41.640 304.483,41.200 304.800 C 40.760 305.117,40.400 305.614,40.400 305.905 C 40.400 306.196,40.069 306.789,39.664 307.223 C 39.259 307.658,38.674 308.505,38.364 309.107 C 38.054 309.708,37.485 310.549,37.100 310.975 C 36.715 311.401,36.176 312.256,35.903 312.875 C 35.629 313.494,35.269 314.000,35.102 314.000 C 34.936 314.000,34.800 314.230,34.800 314.512 C 34.800 314.793,34.440 315.283,34.000 315.600 C 33.560 315.917,33.200 316.497,33.200 316.888 C 33.200 317.280,33.020 317.600,32.800 317.600 C 32.580 317.600,32.400 317.881,32.400 318.224 C 32.400 318.593,32.212 318.731,31.938 318.562 C 31.664 318.393,31.585 318.451,31.742 318.706 C 31.888 318.942,31.736 319.407,31.404 319.739 C 31.072 320.071,30.800 320.626,30.800 320.971 C 30.800 321.317,30.650 321.600,30.468 321.600 C 30.285 321.600,29.880 322.095,29.568 322.700 C 29.255 323.305,28.685 324.149,28.300 324.575 C 27.915 325.002,27.600 325.587,27.600 325.875 C 27.600 326.164,27.448 326.400,27.263 326.400 C 27.078 326.400,26.587 327.030,26.172 327.800 C 25.757 328.570,25.279 329.200,25.109 329.200 C 24.939 329.200,24.800 329.560,24.800 330.000 C 24.800 330.440,24.642 330.800,24.449 330.800 C 24.255 330.800,23.873 331.340,23.600 332.000 C 23.327 332.660,22.945 333.200,22.751 333.200 C 22.558 333.200,22.400 333.520,22.400 333.912 C 22.400 334.303,22.040 334.883,21.600 335.200 C 21.160 335.517,20.800 336.057,20.800 336.400 C 20.800 336.743,20.440 337.283,20.000 337.600 C 19.560 337.917,19.200 338.497,19.200 338.888 C 19.200 339.280,19.050 339.600,18.868 339.600 C 18.685 339.600,18.281 340.095,17.970 340.700 C 17.660 341.305,17.089 342.091,16.703 342.447 C 16.316 342.803,16.000 343.398,16.000 343.771 C 16.000 344.143,15.820 344.336,15.600 344.200 C 15.380 344.064,15.200 344.199,15.200 344.501 C 15.200 344.802,14.840 345.436,14.400 345.908 C 13.960 346.380,13.600 347.052,13.600 347.401 C 13.600 348.063,17.493 354.101,18.070 354.333 C 18.251 354.407,18.400 354.822,18.400 355.257 C 18.400 355.692,18.553 355.953,18.740 355.837 C 18.927 355.722,19.332 356.116,19.640 356.714 C 19.948 357.311,20.515 358.149,20.900 358.575 C 21.285 359.002,21.600 359.504,21.600 359.692 C 21.600 359.880,21.960 360.420,22.400 360.892 C 22.840 361.364,23.200 361.987,23.200 362.275 C 23.200 362.564,23.359 362.800,23.554 362.800 C 23.749 362.800,24.207 363.385,24.572 364.100 C 25.328 365.581,26.050 366.726,27.900 369.377 C 28.615 370.402,29.200 371.411,29.200 371.620 C 29.200 371.829,29.380 372.000,29.600 372.000 C 29.820 372.000,30.000 372.270,30.000 372.600 C 30.000 372.930,30.180 373.200,30.400 373.200 C 30.620 373.200,30.800 373.470,30.800 373.800 C 30.800 374.130,30.950 374.400,31.132 374.400 C 31.315 374.400,31.720 374.895,32.032 375.500 C 32.345 376.105,32.915 376.949,33.300 377.375 C 33.685 377.802,34.000 378.387,34.000 378.675 C 34.000 378.964,34.150 379.200,34.332 379.200 C 34.515 379.200,34.920 379.695,35.232 380.300 C 35.545 380.905,36.115 381.749,36.500 382.175 C 36.885 382.602,37.200 383.187,37.200 383.475 C 37.200 383.764,37.335 384.002,37.500 384.004 C 37.665 384.007,38.610 385.260,39.600 386.790 C 41.453 389.653,42.895 390.390,43.419 388.740 C 43.539 388.363,44.436 387.187,45.414 386.127 C 46.392 385.067,47.193 384.065,47.196 383.901 C 47.198 383.736,47.826 382.938,48.592 382.126 C 49.357 381.315,49.912 380.579,49.825 380.491 C 49.737 380.404,50.277 379.684,51.025 378.891 C 51.772 378.099,52.304 377.370,52.206 377.273 C 52.108 377.175,52.517 376.622,53.114 376.044 C 53.711 375.465,54.259 374.726,54.332 374.400 C 54.405 374.074,54.594 373.716,54.753 373.604 C 54.912 373.492,55.573 372.680,56.221 371.800 C 56.870 370.920,57.625 369.962,57.900 369.671 C 58.175 369.381,58.400 368.998,58.400 368.822 C 58.400 368.645,59.030 367.813,59.800 366.972 C 60.570 366.131,61.200 365.209,61.200 364.922 C 61.200 364.635,61.341 364.400,61.514 364.400 C 61.686 364.400,62.121 363.905,62.479 363.300 C 62.837 362.695,63.596 361.660,64.165 361.000 C 64.734 360.340,65.199 359.615,65.200 359.388 C 65.200 359.162,65.560 358.717,66.000 358.400 C 66.440 358.083,66.800 357.633,66.800 357.400 C 66.800 357.167,67.160 356.717,67.600 356.400 C 68.040 356.083,68.400 355.608,68.400 355.345 C 68.400 355.082,68.547 354.807,68.728 354.733 C 68.908 354.660,69.815 353.475,70.743 352.100 C 71.671 350.725,72.614 349.600,72.839 349.600 C 73.063 349.600,73.158 349.456,73.050 349.280 C 72.941 349.104,73.470 348.179,74.226 347.224 C 74.982 346.269,75.600 345.341,75.600 345.162 C 75.600 344.983,76.005 344.416,76.500 343.902 C 77.670 342.689,80.000 339.710,80.000 339.428 C 80.000 339.209,80.959 337.975,81.900 336.984 C 82.175 336.694,82.400 336.264,82.400 336.029 C 82.400 335.793,82.541 335.600,82.714 335.600 C 82.886 335.600,83.321 335.105,83.679 334.500 C 84.037 333.895,84.796 332.860,85.365 332.200 C 85.934 331.540,86.399 330.841,86.400 330.647 C 86.400 330.453,86.715 330.001,87.100 329.643 C 88.023 328.784,88.800 327.372,88.800 326.553 C 88.800 325.937,90.472 323.515,97.096 314.535 C 98.583 312.519,101.682 308.289,103.982 305.135 C 106.282 301.981,109.690 297.330,111.557 294.800 C 117.492 286.754,125.032 276.488,131.093 268.200 C 135.939 261.574,135.794 261.725,136.754 262.300 C 137.213 262.575,138.042 262.800,138.595 262.800 C 139.148 262.800,139.600 262.980,139.600 263.200 C 139.600 263.420,140.219 263.600,140.976 263.600 C 141.733 263.600,142.464 263.780,142.600 264.000 C 142.736 264.220,143.456 264.400,144.200 264.400 C 144.944 264.400,145.664 264.580,145.800 264.800 C 145.936 265.020,146.667 265.200,147.424 265.200 C 148.181 265.200,148.800 265.380,148.800 265.600 C 148.800 265.820,149.520 266.000,150.400 266.000 C 151.280 266.000,152.000 266.180,152.000 266.400 C 152.000 266.620,152.619 266.800,153.376 266.800 C 154.133 266.800,154.864 266.980,155.000 267.200 C 155.136 267.420,155.777 267.600,156.424 267.600 C 157.071 267.600,157.600 267.743,157.600 267.918 C 157.600 268.093,158.266 268.281,159.081 268.336 C 159.895 268.391,160.750 268.587,160.981 268.771 C 161.211 268.955,162.075 269.217,162.900 269.353 C 166.632 269.968,167.221 270.110,167.427 270.444 C 167.548 270.640,168.177 270.800,168.824 270.800 C 169.471 270.800,170.000 271.008,170.000 271.262 C 170.000 271.538,170.294 271.458,170.731 271.062 C 171.398 270.459,173.989 270.400,199.731 270.400 C 216.088 270.400,228.000 270.249,228.000 270.042 C 228.000 269.845,226.247 268.090,224.104 266.142 C 220.129 262.528,215.165 257.966,214.802 257.593 C 214.691 257.479,210.280 253.432,205.000 248.601 C 199.720 243.769,194.590 239.074,193.600 238.167 C 192.610 237.260,189.370 234.296,186.400 231.580 C 175.389 221.510,172.400 218.637,172.400 218.125 C 172.400 217.750,171.714 217.600,170.000 217.600 C 168.667 217.600,167.600 217.422,167.600 217.200 C 167.600 216.971,166.400 216.800,164.800 216.800 C 163.260 216.800,162.000 216.647,162.000 216.461 C 162.000 216.274,160.709 216.084,159.130 216.037 C 157.552 215.991,155.944 215.784,155.557 215.577 C 155.169 215.370,153.681 215.200,152.250 215.200 C 150.818 215.200,149.536 215.020,149.400 214.800 C 149.264 214.580,147.813 214.400,146.176 214.400 C 144.459 214.400,143.200 214.231,143.200 214.000 C 143.200 213.769,141.925 213.600,140.176 213.600 C 138.513 213.600,137.247 213.447,137.363 213.260 C 137.478 213.073,136.279 212.883,134.699 212.837 C 133.118 212.790,131.639 212.599,131.412 212.411 C 131.186 212.223,129.650 211.972,128.000 211.853 C 126.350 211.734,123.650 211.452,122.000 211.226 C 118.839 210.794,113.687 210.180,110.000 209.796 C 108.790 209.670,107.350 209.456,106.800 209.322 C 104.487 208.755,102.846 208.968,102.347 209.900 " stroke="none" fill="#046cb4" fill-rule="evenodd"></path><path id="path1" d="M267.000 0.294 C 266.120 0.382,265.229 0.621,265.020 0.827 C 264.811 1.032,264.046 1.200,263.320 1.200 C 262.594 1.200,262.000 1.380,262.000 1.600 C 262.000 1.820,261.728 2.000,261.395 2.000 C 261.062 2.000,260.477 2.159,260.095 2.353 C 259.713 2.548,258.860 2.930,258.200 3.202 C 257.540 3.475,256.530 3.941,255.956 4.238 C 255.382 4.536,254.768 4.649,254.592 4.489 C 254.416 4.330,254.401 4.425,254.559 4.700 C 254.737 5.009,254.609 5.200,254.224 5.200 C 253.881 5.200,253.600 5.380,253.600 5.600 C 253.600 5.820,253.240 6.000,252.800 6.000 C 252.360 6.000,252.000 6.180,252.000 6.400 C 252.000 6.620,251.706 6.800,251.347 6.800 C 250.988 6.800,250.403 7.132,250.047 7.537 C 249.691 7.943,248.961 8.507,248.425 8.791 C 246.385 9.873,238.800 17.584,238.800 18.575 C 238.800 18.822,238.440 19.283,238.000 19.600 C 237.560 19.917,237.200 20.457,237.200 20.800 C 237.200 21.143,236.840 21.683,236.400 22.000 C 235.960 22.317,235.600 22.897,235.600 23.288 C 235.600 23.680,235.420 24.000,235.200 24.000 C 234.980 24.000,234.800 24.360,234.800 24.800 C 234.800 25.240,234.664 25.600,234.498 25.600 C 234.228 25.600,233.852 26.362,232.820 29.000 C 232.648 29.440,232.328 30.250,232.109 30.800 C 231.351 32.705,230.800 34.660,230.800 35.448 C 230.800 35.884,230.640 36.411,230.443 36.620 C 230.247 36.829,229.968 38.170,229.822 39.600 C 229.676 41.030,229.458 43.067,229.338 44.126 C 229.162 45.674,229.258 46.154,229.826 46.570 C 230.380 46.975,230.595 47.945,230.820 51.043 C 231.378 58.749,234.060 66.452,238.605 73.400 C 239.472 74.725,239.384 74.616,242.200 77.915 C 246.410 82.848,257.255 90.400,260.129 90.400 C 260.425 90.400,260.790 90.523,260.941 90.674 C 261.380 91.113,264.119 91.987,265.076 91.994 C 265.558 91.997,266.052 92.161,266.174 92.358 C 266.465 92.829,268.917 93.187,273.700 93.456 L 277.600 93.675 277.600 46.837 L 277.600 0.000 273.100 0.067 C 270.625 0.104,267.880 0.206,267.000 0.294 M181.600 196.400 C 181.600 196.840,181.420 197.200,181.200 197.200 C 180.980 197.200,180.800 197.436,180.800 197.725 C 180.800 198.216,179.654 200.929,178.785 202.495 C 178.573 202.877,178.400 203.462,178.400 203.795 C 178.400 204.128,178.220 204.400,178.000 204.400 C 177.780 204.400,177.600 204.760,177.600 205.200 C 177.600 205.640,177.420 206.000,177.200 206.000 C 176.980 206.000,176.800 206.236,176.800 206.525 C 176.800 206.814,176.350 207.983,175.800 209.123 C 175.250 210.263,174.800 211.467,174.800 211.798 C 174.800 212.129,174.620 212.400,174.400 212.400 C 174.180 212.400,174.000 212.850,174.000 213.400 C 174.000 213.950,173.820 214.400,173.600 214.400 C 173.380 214.400,173.200 214.760,173.200 215.200 C 173.200 215.640,173.020 216.000,172.800 216.000 C 172.580 216.000,172.400 216.523,172.400 217.162 C 172.400 218.504,174.256 220.343,190.191 234.794 C 191.287 235.787,193.447 237.777,194.991 239.215 C 196.536 240.654,199.870 243.714,202.400 246.015 C 204.930 248.317,207.090 250.290,207.200 250.400 C 207.512 250.712,216.765 259.189,218.989 261.200 C 220.084 262.190,222.154 264.092,223.590 265.427 C 225.025 266.762,226.830 268.426,227.600 269.125 L 229.000 270.396 238.400 270.393 C 248.656 270.389,249.600 270.284,249.600 269.153 C 249.600 268.739,249.780 268.400,250.000 268.400 C 250.220 268.400,250.400 268.040,250.400 267.600 C 250.400 267.160,250.580 266.800,250.800 266.800 C 251.020 266.800,251.200 266.440,251.200 266.000 C 251.200 265.560,251.380 265.200,251.600 265.200 C 251.820 265.200,252.000 264.840,252.000 264.400 C 252.000 263.960,252.180 263.600,252.400 263.600 C 252.620 263.600,252.800 263.240,252.800 262.800 C 252.800 262.360,252.980 262.000,253.200 262.000 C 253.420 262.000,253.600 261.640,253.600 261.200 C 253.600 260.760,253.345 260.400,253.033 260.400 C 252.722 260.400,252.407 260.265,252.333 260.100 C 252.260 259.935,251.300 259.000,250.200 258.021 C 247.464 255.588,240.414 249.159,237.007 245.990 C 233.646 242.864,224.992 234.917,222.209 232.400 C 221.113 231.410,218.953 229.419,217.409 227.976 C 215.864 226.533,213.700 224.534,212.600 223.534 C 211.500 222.533,207.184 218.584,203.009 214.757 C 198.834 210.931,194.528 206.990,193.439 206.000 C 192.350 205.010,190.186 203.017,188.630 201.570 C 181.630 195.066,181.600 195.043,181.600 196.400 " stroke="none" fill="#f6d5c7" fill-rule="evenodd"></path><path id="path2" d="M305.000 168.052 C 297.734 170.451,298.919 169.239,293.502 179.812 L 289.000 188.600 288.893 229.234 L 288.785 269.869 258.914 270.130 L 229.042 270.391 228.021 269.502 C 227.459 269.012,227.225 268.870,227.500 269.186 C 227.775 269.502,228.000 269.904,228.000 270.080 C 228.000 270.256,215.256 270.400,199.680 270.400 C 182.328 270.400,171.213 270.547,170.980 270.780 C 170.742 271.018,170.638 295.283,170.702 335.580 L 170.805 400.000 183.202 400.000 L 195.600 400.000 195.600 370.800 L 195.600 341.600 242.200 341.600 L 288.800 341.600 288.800 370.800 L 288.800 400.000 301.200 400.000 L 313.600 400.000 313.600 283.000 L 313.600 166.000 312.300 166.036 C 311.585 166.055,308.300 166.963,305.000 168.052 M172.800 218.925 C 172.800 218.994,173.385 219.579,174.100 220.225 L 175.400 221.400 174.225 220.100 C 173.130 218.888,172.800 218.616,172.800 218.925 M179.800 225.600 C 180.659 226.480,181.452 227.200,181.562 227.200 C 181.672 227.200,181.059 226.480,180.200 225.600 C 179.341 224.720,178.548 224.000,178.438 224.000 C 178.328 224.000,178.941 224.720,179.800 225.600 M184.200 229.600 C 185.059 230.480,185.852 231.200,185.962 231.200 C 186.072 231.200,185.459 230.480,184.600 229.600 C 183.741 228.720,182.948 228.000,182.838 228.000 C 182.728 228.000,183.341 228.720,184.200 229.600 M188.800 233.725 C 188.800 233.794,189.385 234.379,190.100 235.025 L 191.400 236.200 190.225 234.900 C 189.130 233.688,188.800 233.416,188.800 233.725 M192.400 236.925 C 192.400 236.994,192.985 237.579,193.700 238.225 L 195.000 239.400 193.825 238.100 C 192.730 236.888,192.400 236.616,192.400 236.925 M198.000 242.125 C 198.000 242.194,198.585 242.779,199.300 243.425 L 200.600 244.600 199.425 243.300 C 198.330 242.088,198.000 241.816,198.000 242.125 M202.400 246.125 C 202.400 246.194,202.985 246.779,203.700 247.425 L 205.000 248.600 203.825 247.300 C 202.730 246.088,202.400 245.816,202.400 246.125 M207.600 250.925 C 207.600 250.994,208.185 251.579,208.900 252.225 L 210.200 253.400 209.025 252.100 C 207.930 250.888,207.600 250.616,207.600 250.925 M212.000 254.925 C 212.000 254.994,212.585 255.579,213.300 256.225 L 214.600 257.400 213.425 256.100 C 212.330 254.888,212.000 254.616,212.000 254.925 M217.600 260.125 C 217.600 260.194,218.185 260.779,218.900 261.425 L 220.200 262.600 219.025 261.300 C 217.930 260.088,217.600 259.816,217.600 260.125 M221.200 263.325 C 221.200 263.394,221.785 263.979,222.500 264.625 L 223.800 265.800 222.625 264.500 C 221.530 263.288,221.200 263.016,221.200 263.325 M288.800 305.800 L 288.800 316.800 242.200 316.800 L 195.600 316.800 195.600 305.800 L 195.600 294.800 242.200 294.800 L 288.800 294.800 288.800 305.800 " stroke="none" fill="#04c5f8" fill-rule="evenodd"></path><path id="path3" d="M175.530 46.793 C 175.458 46.998,174.725 47.210,173.900 47.264 C 173.075 47.319,172.400 47.507,172.400 47.682 C 172.400 47.857,172.040 48.000,171.600 48.000 C 171.160 48.000,170.800 48.180,170.800 48.400 C 170.800 48.620,170.395 48.804,169.900 48.809 C 169.405 48.814,168.550 49.170,168.000 49.600 C 167.450 50.030,166.775 50.386,166.500 50.391 C 166.225 50.396,166.000 50.580,166.000 50.800 C 166.000 51.020,165.746 51.200,165.435 51.200 C 164.764 51.200,159.574 56.241,159.905 56.572 C 160.031 56.697,159.923 56.800,159.667 56.800 C 159.410 56.800,159.200 57.070,159.200 57.400 C 159.200 57.730,159.048 58.000,158.863 58.000 C 158.677 58.000,158.092 58.855,157.563 59.900 C 157.033 60.945,156.465 61.860,156.300 61.933 C 156.135 62.007,156.000 62.401,156.000 62.810 C 156.000 63.218,155.820 63.664,155.600 63.800 C 155.380 63.936,155.200 64.487,155.200 65.024 C 155.200 65.561,155.020 66.000,154.800 66.000 C 154.580 66.000,154.400 66.641,154.400 67.424 C 154.400 68.207,154.246 68.752,154.058 68.636 C 153.870 68.520,153.679 69.810,153.635 71.503 C 153.586 73.359,153.365 74.698,153.080 74.874 C 152.719 75.098,152.724 75.284,153.103 75.663 C 153.413 75.973,153.600 77.324,153.600 79.256 C 153.600 80.959,153.780 82.464,154.000 82.600 C 154.220 82.736,154.400 83.477,154.400 84.247 C 154.400 85.079,154.562 85.547,154.800 85.400 C 155.027 85.260,155.200 85.596,155.200 86.176 C 155.200 86.739,155.380 87.200,155.600 87.200 C 155.820 87.200,156.000 87.560,156.000 88.000 C 156.000 88.440,156.180 88.800,156.400 88.800 C 156.620 88.800,156.800 89.171,156.800 89.624 C 156.800 90.077,156.980 90.336,157.200 90.200 C 157.420 90.064,157.600 90.257,157.600 90.629 C 157.600 91.002,157.972 91.629,158.426 92.023 C 158.881 92.417,159.266 92.888,159.283 93.070 C 159.348 93.785,160.512 95.182,161.236 95.411 C 161.656 95.545,162.000 95.883,162.000 96.164 C 162.000 96.444,163.620 98.341,165.600 100.378 C 167.580 102.415,169.200 104.254,169.200 104.465 C 169.200 104.675,169.380 104.736,169.600 104.600 C 169.820 104.464,170.000 104.559,170.000 104.811 C 170.000 105.063,171.125 106.404,172.500 107.790 C 176.437 111.758,179.901 115.565,179.731 115.736 C 179.645 115.821,180.031 116.190,180.588 116.555 C 181.144 116.920,181.600 117.484,181.600 117.809 C 181.600 118.134,181.881 118.400,182.224 118.400 C 182.567 118.400,182.736 118.580,182.600 118.800 C 182.464 119.020,182.527 119.200,182.740 119.200 C 182.953 119.200,184.179 120.308,185.464 121.661 C 186.749 123.015,188.290 124.570,188.889 125.117 C 189.488 125.665,189.865 126.295,189.727 126.518 C 189.584 126.749,189.675 126.801,189.938 126.638 C 190.192 126.481,190.400 126.521,190.400 126.727 C 190.400 126.933,191.099 127.843,191.953 128.751 C 192.808 129.658,193.442 130.400,193.363 130.400 C 193.285 130.400,194.655 131.834,196.410 133.586 C 198.164 135.338,199.600 136.988,199.600 137.252 C 199.600 137.517,199.719 137.614,199.865 137.468 C 200.011 137.322,200.458 137.742,200.859 138.401 C 201.260 139.061,201.861 139.600,202.194 139.600 C 202.527 139.600,202.755 139.773,202.700 139.984 C 202.645 140.196,203.365 141.075,204.299 141.938 C 205.868 143.385,206.601 145.600,205.513 145.600 C 205.341 145.600,205.200 145.971,205.200 146.424 C 205.200 146.877,205.020 147.136,204.800 147.000 C 204.573 146.860,204.400 147.196,204.400 147.776 C 204.400 148.339,204.220 148.800,204.000 148.800 C 203.780 148.800,203.600 149.034,203.600 149.320 C 203.600 150.056,202.659 151.993,202.300 151.997 C 202.135 151.999,202.000 152.450,202.000 153.000 C 202.000 153.550,201.820 154.000,201.600 154.000 C 201.380 154.000,201.200 154.461,201.200 155.024 C 201.200 155.604,201.027 155.940,200.800 155.800 C 200.580 155.664,200.400 155.934,200.400 156.400 C 200.400 156.866,200.220 157.136,200.000 157.000 C 199.773 156.860,199.600 157.196,199.600 157.776 C 199.600 158.339,199.420 158.800,199.200 158.800 C 198.980 158.800,198.800 159.160,198.800 159.600 C 198.800 160.040,198.620 160.400,198.400 160.400 C 198.180 160.400,198.000 160.760,198.000 161.200 C 198.000 161.640,197.809 162.000,197.576 162.000 C 197.343 162.000,197.255 162.165,197.380 162.368 C 197.505 162.570,197.336 163.007,197.004 163.339 C 196.672 163.671,196.400 164.316,196.400 164.771 C 196.400 165.227,196.220 165.600,196.000 165.600 C 195.780 165.600,195.600 166.061,195.600 166.624 C 195.600 167.187,195.442 167.550,195.250 167.431 C 195.057 167.312,194.674 168.021,194.398 169.007 C 194.122 169.993,193.739 170.800,193.548 170.800 C 193.357 170.800,193.200 171.160,193.200 171.600 C 193.200 172.040,193.020 172.400,192.800 172.400 C 192.580 172.400,192.394 172.715,192.386 173.100 C 192.379 173.485,192.034 174.517,191.620 175.392 C 191.206 176.268,190.970 177.151,191.095 177.354 C 191.221 177.557,191.116 177.595,190.862 177.438 C 190.608 177.281,190.400 177.352,190.400 177.596 C 190.400 177.839,190.040 178.784,189.600 179.694 C 189.160 180.605,188.800 181.586,188.800 181.875 C 188.800 182.164,188.620 182.400,188.400 182.400 C 188.180 182.400,188.000 182.760,188.000 183.200 C 188.000 183.640,187.820 184.000,187.600 184.000 C 187.380 184.000,187.200 184.360,187.200 184.800 C 187.200 185.240,187.020 185.600,186.800 185.600 C 186.580 185.600,186.400 185.924,186.400 186.320 C 186.400 186.716,186.235 187.211,186.033 187.420 C 185.832 187.629,185.607 188.160,185.533 188.600 C 185.460 189.040,185.085 189.749,184.700 190.175 C 184.315 190.602,184.000 191.367,184.000 191.875 C 184.000 192.384,183.820 192.800,183.600 192.800 C 183.380 192.800,183.200 193.070,183.200 193.400 C 183.200 193.730,183.007 194.000,182.772 194.000 C 181.581 194.000,183.061 195.846,187.400 199.777 C 194.379 206.099,202.581 213.634,206.581 217.400 C 207.048 217.840,209.131 219.730,211.209 221.600 C 213.287 223.470,215.542 225.540,216.220 226.200 C 216.898 226.860,218.341 228.187,219.427 229.149 C 221.541 231.023,228.137 237.063,232.395 241.023 C 236.578 244.914,238.940 247.086,239.841 247.869 C 241.081 248.946,248.319 255.608,249.762 257.000 C 252.918 260.043,254.400 260.967,254.400 259.889 C 254.400 259.344,256.597 254.936,257.286 254.100 C 257.513 253.825,257.568 253.600,257.409 253.600 C 257.251 253.600,257.499 252.960,257.960 252.177 C 258.422 251.395,258.800 250.495,258.800 250.177 C 258.800 249.860,258.980 249.600,259.200 249.600 C 259.420 249.600,259.600 249.240,259.600 248.800 C 259.600 248.360,259.780 248.000,260.000 248.000 C 260.220 248.000,260.400 247.640,260.400 247.200 C 260.400 246.760,260.580 246.400,260.800 246.400 C 261.020 246.400,261.200 246.040,261.200 245.600 C 261.200 245.160,261.380 244.800,261.600 244.800 C 261.820 244.800,262.000 244.440,262.000 244.000 C 262.000 243.560,262.180 243.200,262.400 243.200 C 262.620 243.200,262.800 242.840,262.800 242.400 C 262.800 241.960,262.980 241.600,263.200 241.600 C 263.420 241.600,263.600 241.229,263.600 240.776 C 263.600 240.323,263.780 240.064,264.000 240.200 C 264.220 240.336,264.400 240.077,264.400 239.624 C 264.400 239.171,264.580 238.800,264.800 238.800 C 265.020 238.800,265.200 238.555,265.200 238.256 C 265.200 237.599,267.676 232.655,268.100 232.467 C 268.265 232.393,268.400 231.988,268.400 231.567 C 268.400 231.145,268.580 230.800,268.800 230.800 C 269.020 230.800,269.200 230.440,269.200 230.000 C 269.200 229.560,269.380 229.200,269.600 229.200 C 269.820 229.200,270.000 228.840,270.000 228.400 C 270.000 227.960,270.180 227.600,270.400 227.600 C 270.620 227.600,270.800 227.364,270.800 227.075 C 270.800 226.414,272.267 223.335,273.240 221.955 C 273.645 221.380,273.852 220.785,273.700 220.633 C 273.548 220.481,273.655 220.213,273.938 220.038 C 274.221 219.863,274.513 219.468,274.585 219.160 C 274.940 217.659,275.326 216.800,275.647 216.800 C 275.841 216.800,276.000 216.440,276.000 216.000 C 276.000 215.560,276.180 215.200,276.400 215.200 C 276.620 215.200,276.800 214.840,276.800 214.400 C 276.800 213.960,276.980 213.600,277.200 213.600 C 277.420 213.600,277.600 213.240,277.600 212.800 C 277.600 212.360,277.780 212.000,278.000 212.000 C 278.220 212.000,278.400 211.640,278.400 211.200 C 278.400 210.760,278.580 210.400,278.800 210.400 C 279.020 210.400,279.200 210.040,279.200 209.600 C 279.200 209.160,279.346 208.800,279.525 208.800 C 279.704 208.800,280.098 208.170,280.400 207.400 C 280.702 206.630,281.096 206.000,281.275 206.000 C 281.454 206.000,281.600 205.640,281.600 205.200 C 281.600 204.760,281.780 204.400,282.000 204.400 C 282.220 204.400,282.400 204.040,282.400 203.600 C 282.400 203.160,282.580 202.800,282.800 202.800 C 283.020 202.800,283.200 202.440,283.200 202.000 C 283.200 201.560,283.380 201.200,283.600 201.200 C 283.820 201.200,284.000 200.840,284.000 200.400 C 284.000 199.960,284.180 199.600,284.400 199.600 C 284.620 199.600,284.800 199.240,284.800 198.800 C 284.800 198.360,284.980 198.000,285.200 198.000 C 285.420 198.000,285.600 197.640,285.600 197.200 C 285.600 196.760,285.780 196.400,286.000 196.400 C 286.220 196.400,286.400 196.147,286.400 195.838 C 286.400 195.172,288.068 191.859,288.500 191.667 C 288.665 191.593,288.800 190.686,288.800 189.650 C 288.800 187.819,296.617 171.116,298.102 169.775 C 299.838 168.207,313.302 164.704,313.767 165.700 C 313.953 166.100,314.047 166.100,314.233 165.700 C 314.362 165.425,314.992 165.200,315.633 165.200 C 316.275 165.200,316.800 165.020,316.800 164.800 C 316.800 164.580,317.351 164.400,318.024 164.400 C 318.737 164.400,319.144 164.233,319.000 164.000 C 318.853 163.762,319.329 163.600,320.176 163.600 C 320.959 163.600,321.600 163.420,321.600 163.200 C 321.600 162.980,322.039 162.800,322.576 162.800 C 323.113 162.800,323.664 162.620,323.800 162.400 C 323.936 162.180,324.487 162.000,325.024 162.000 C 325.561 162.000,326.000 161.820,326.000 161.600 C 326.000 161.380,326.540 161.200,327.200 161.200 C 327.860 161.200,328.400 161.020,328.400 160.800 C 328.400 160.580,328.940 160.400,329.600 160.400 C 330.260 160.400,330.800 160.220,330.800 160.000 C 330.800 159.780,331.325 159.600,331.967 159.600 C 332.608 159.600,333.193 159.465,333.267 159.300 C 333.423 158.948,338.280 157.531,339.292 157.542 C 339.673 157.546,340.088 157.381,340.216 157.175 C 340.343 156.969,340.887 156.800,341.424 156.800 C 341.961 156.800,342.400 156.620,342.400 156.400 C 342.400 156.180,342.940 156.000,343.600 156.000 C 344.260 156.000,344.800 155.820,344.800 155.600 C 344.800 155.380,345.340 155.200,346.000 155.200 C 346.660 155.200,347.200 155.020,347.200 154.800 C 347.200 154.580,347.740 154.400,348.400 154.400 C 349.060 154.400,349.600 154.220,349.600 154.000 C 349.600 153.780,350.140 153.600,350.800 153.600 C 351.460 153.600,352.000 153.420,352.000 153.200 C 352.000 152.980,352.540 152.800,353.200 152.800 C 353.860 152.800,354.400 152.620,354.400 152.400 C 354.400 152.180,354.940 152.000,355.600 152.000 C 356.260 152.000,356.800 151.820,356.800 151.600 C 356.800 151.380,357.239 151.200,357.776 151.200 C 358.313 151.200,358.864 151.020,359.000 150.800 C 359.136 150.580,359.676 150.400,360.200 150.400 C 360.724 150.400,361.264 150.220,361.400 150.000 C 361.536 149.780,362.087 149.600,362.624 149.600 C 363.161 149.600,363.600 149.420,363.600 149.200 C 363.600 148.980,364.219 148.800,364.976 148.800 C 365.733 148.800,366.464 148.620,366.600 148.400 C 366.736 148.180,367.197 148.000,367.624 148.000 C 368.051 148.000,368.400 147.820,368.400 147.600 C 368.400 147.380,368.665 147.200,368.989 147.200 C 369.794 147.200,373.200 145.518,373.200 145.120 C 373.200 144.944,373.398 144.800,373.640 144.800 C 373.881 144.800,374.583 144.260,375.200 143.600 C 375.817 142.940,376.474 142.400,376.660 142.400 C 377.215 142.399,379.200 140.547,379.200 140.030 C 379.200 139.767,379.380 139.664,379.600 139.800 C 379.820 139.936,380.000 139.833,380.000 139.571 C 380.000 139.308,380.329 138.803,380.730 138.447 C 381.132 138.091,381.710 137.228,382.015 136.529 C 382.320 135.830,382.712 135.345,382.885 135.452 C 383.058 135.560,383.200 135.277,383.200 134.824 C 383.200 134.371,383.380 134.000,383.600 134.000 C 383.820 134.000,384.000 133.460,384.000 132.800 C 384.000 132.140,384.180 131.600,384.400 131.600 C 384.620 131.600,384.800 131.060,384.800 130.400 C 384.800 129.740,384.980 129.200,385.200 129.200 C 385.420 129.200,385.600 128.480,385.600 127.600 C 385.600 126.720,385.788 126.000,386.019 126.000 C 386.289 126.000,386.415 124.378,386.374 121.404 C 386.338 118.848,386.152 116.906,385.955 117.028 C 385.760 117.148,385.600 116.427,385.600 115.424 C 385.600 114.421,385.420 113.600,385.200 113.600 C 384.980 113.600,384.800 113.060,384.800 112.400 C 384.800 111.740,384.620 111.200,384.400 111.200 C 384.180 111.200,384.000 110.750,384.000 110.200 C 384.000 109.650,383.820 109.200,383.600 109.200 C 383.380 109.200,383.200 108.964,383.200 108.675 C 383.200 108.387,382.840 107.764,382.400 107.292 C 381.960 106.820,381.600 106.246,381.600 106.018 C 381.600 105.789,380.880 104.837,380.000 103.903 C 379.120 102.969,378.400 102.056,378.400 101.874 C 378.400 101.435,377.343 100.390,377.122 100.611 C 377.027 100.706,376.285 100.157,375.474 99.392 C 374.662 98.626,373.901 98.000,373.782 98.000 C 373.664 98.000,373.180 97.640,372.708 97.200 C 372.236 96.760,371.613 96.400,371.325 96.400 C 371.036 96.400,370.800 96.220,370.800 96.000 C 370.800 95.780,370.440 95.600,370.000 95.600 C 369.560 95.600,369.200 95.458,369.200 95.284 C 369.200 95.110,368.213 94.467,367.007 93.857 C 365.801 93.246,364.710 92.578,364.583 92.373 C 364.457 92.168,364.003 92.000,363.576 92.000 C 363.149 92.000,362.800 91.820,362.800 91.600 C 362.800 91.380,362.440 91.200,362.000 91.200 C 361.560 91.200,361.200 91.020,361.200 90.800 C 361.200 90.580,360.922 90.400,360.583 90.400 C 360.244 90.400,359.580 90.040,359.108 89.600 C 358.636 89.160,357.744 88.576,357.125 88.303 C 356.506 88.029,356.000 87.669,356.000 87.502 C 356.000 87.336,355.629 87.200,355.176 87.200 C 354.723 87.200,354.464 87.020,354.600 86.800 C 354.736 86.580,354.567 86.400,354.224 86.400 C 353.881 86.400,353.600 86.220,353.600 86.000 C 353.600 85.780,353.240 85.600,352.800 85.600 C 352.360 85.600,352.000 85.420,352.000 85.200 C 352.000 84.980,351.640 84.800,351.200 84.800 C 350.760 84.800,350.400 84.620,350.400 84.400 C 350.400 84.180,350.119 84.000,349.776 84.000 C 349.433 84.000,349.267 83.816,349.406 83.590 C 349.545 83.365,349.511 83.225,349.330 83.279 C 348.860 83.421,346.400 82.265,346.400 81.902 C 346.400 81.736,346.029 81.600,345.576 81.600 C 345.123 81.600,344.864 81.420,345.000 81.200 C 345.136 80.980,344.967 80.800,344.624 80.800 C 344.281 80.800,344.000 80.620,344.000 80.400 C 344.000 80.180,343.640 80.000,343.200 80.000 C 342.760 80.000,342.400 79.820,342.400 79.600 C 342.400 79.380,342.164 79.200,341.875 79.200 C 341.587 79.200,340.976 78.851,340.518 78.424 C 340.060 77.997,339.602 77.732,339.500 77.834 C 339.398 77.936,339.086 77.745,338.808 77.410 C 338.530 77.074,338.076 76.800,337.800 76.800 C 337.524 76.800,337.079 76.536,336.811 76.213 C 336.543 75.890,336.206 75.651,336.062 75.683 C 335.774 75.745,333.520 74.741,333.200 74.408 C 332.824 74.017,330.601 72.751,329.900 72.529 C 329.515 72.407,329.200 72.148,329.200 71.953 C 329.200 71.759,328.906 71.600,328.547 71.600 C 328.188 71.600,327.558 71.212,327.147 70.739 C 326.705 70.230,326.400 70.091,326.400 70.400 C 326.400 70.709,326.095 70.570,325.653 70.061 C 325.242 69.588,324.702 69.200,324.453 69.200 C 324.204 69.200,324.000 69.020,324.000 68.800 C 324.000 68.580,323.764 68.400,323.475 68.400 C 323.187 68.400,322.567 68.042,322.097 67.604 C 320.958 66.544,320.199 66.912,318.913 69.147 C 311.259 82.450,299.945 90.721,285.672 93.448 C 279.333 94.659,268.067 94.281,265.105 92.757 C 264.723 92.561,264.046 92.400,263.600 92.400 C 263.154 92.400,262.477 92.241,262.095 92.047 C 261.713 91.852,260.950 91.511,260.400 91.289 C 252.208 87.973,244.709 82.528,240.448 76.803 C 239.874 76.031,239.302 75.310,239.176 75.200 C 235.631 72.100,231.247 60.734,230.173 51.862 C 229.858 49.256,229.498 46.959,229.373 46.757 C 229.067 46.262,175.703 46.298,175.530 46.793 " stroke="none" fill="#fc4e59" fill-rule="evenodd"></path><path id="path4" d="M134.705 263.278 C 134.172 264.005,132.482 266.310,130.949 268.400 C 129.415 270.490,126.460 274.521,124.380 277.358 C 119.776 283.641,116.040 288.723,111.557 294.800 C 109.690 297.330,106.282 301.981,103.982 305.135 C 101.682 308.289,98.583 312.519,97.096 314.535 C 90.287 323.766,88.800 325.950,88.800 326.724 C 88.800 327.180,88.620 327.664,88.400 327.800 C 88.138 327.962,88.000 340.471,88.000 364.024 L 88.000 400.000 112.601 400.000 L 137.202 400.000 137.101 331.105 C 136.990 255.280,137.154 259.937,134.705 263.278 " stroke="none" fill="#044484" fill-rule="evenodd"></path><path id="path5" d="M277.600 46.742 L 277.600 93.600 275.100 93.660 C 273.725 93.693,273.050 93.790,273.600 93.875 C 274.927 94.080,284.121 93.335,286.400 92.836 C 287.390 92.620,288.740 92.330,289.400 92.191 C 290.060 92.053,290.960 91.791,291.400 91.609 C 291.840 91.427,293.280 90.865,294.600 90.361 C 303.296 87.037,311.891 79.771,316.999 71.426 C 318.319 69.270,319.693 67.300,320.053 67.048 C 320.710 66.588,322.560 63.600,322.188 63.600 C 322.079 63.600,322.264 62.942,322.600 62.139 C 322.936 61.335,323.120 60.586,323.009 60.475 C 322.898 60.364,322.962 60.077,323.151 59.837 C 323.720 59.115,324.378 55.576,324.484 52.667 C 324.540 51.163,324.723 49.848,324.892 49.743 C 325.349 49.461,325.266 47.600,324.797 47.600 C 324.552 47.600,324.582 47.298,324.873 46.832 C 325.254 46.221,325.235 45.921,324.776 45.356 C 324.418 44.915,324.389 44.760,324.700 44.947 C 324.975 45.112,325.200 45.067,325.200 44.847 C 325.200 44.627,325.062 44.362,324.892 44.257 C 324.723 44.152,324.530 42.839,324.462 41.338 C 324.395 39.838,324.218 38.518,324.070 38.405 C 323.921 38.292,323.806 37.660,323.814 37.000 C 323.821 36.340,323.620 35.260,323.366 34.600 C 323.112 33.940,322.986 33.175,323.085 32.900 C 323.185 32.625,323.042 32.400,322.767 32.400 C 322.492 32.400,322.379 32.288,322.516 32.150 C 322.653 32.013,322.387 31.158,321.924 30.250 C 321.461 29.343,321.106 28.510,321.136 28.400 C 321.252 27.974,320.669 26.612,320.148 26.091 C 319.847 25.790,319.482 25.062,319.337 24.472 C 319.191 23.882,318.786 23.130,318.436 22.800 C 318.086 22.470,317.742 21.930,317.670 21.600 C 317.599 21.270,317.374 20.940,317.170 20.867 C 316.967 20.793,316.800 20.472,316.800 20.153 C 316.800 19.834,316.215 18.959,315.500 18.208 C 313.795 16.419,313.124 15.600,313.361 15.600 C 313.682 15.600,308.023 10.243,307.285 9.848 C 306.908 9.647,306.274 9.144,305.876 8.732 C 305.478 8.320,304.983 8.087,304.776 8.215 C 304.569 8.343,304.400 8.257,304.400 8.024 C 304.400 7.791,304.100 7.600,303.733 7.600 C 303.367 7.600,303.182 7.485,303.323 7.344 C 303.579 7.087,301.611 5.784,300.300 5.342 C 299.915 5.213,299.600 4.948,299.600 4.753 C 299.600 4.559,299.240 4.400,298.800 4.400 C 298.360 4.400,298.000 4.220,298.000 4.000 C 298.000 3.780,297.640 3.600,297.200 3.600 C 296.760 3.600,296.400 3.420,296.400 3.200 C 296.400 2.980,295.860 2.800,295.200 2.800 C 294.540 2.800,294.000 2.620,294.000 2.400 C 294.000 2.180,293.550 2.000,293.000 2.000 C 292.450 2.000,292.000 1.820,292.000 1.600 C 292.000 1.380,291.370 1.200,290.600 1.200 C 289.830 1.200,289.200 1.059,289.200 0.886 C 289.200 0.519,289.313 0.532,282.700 0.166 L 277.600 -0.116 277.600 46.742 M230.534 50.800 C 230.534 52.450,230.605 53.125,230.691 52.300 C 230.778 51.475,230.778 50.125,230.691 49.300 C 230.605 48.475,230.534 49.150,230.534 50.800 M231.268 56.600 C 231.262 57.040,231.411 57.760,231.600 58.200 C 232.038 59.219,232.038 58.168,231.600 56.800 C 231.343 55.996,231.277 55.957,231.268 56.600 M232.006 59.833 C 232.009 60.255,232.195 60.870,232.418 61.200 C 232.715 61.638,232.752 61.476,232.556 60.600 C 232.227 59.129,231.998 58.810,232.006 59.833 M242.200 78.400 C 243.059 79.280,243.852 80.000,243.962 80.000 C 244.072 80.000,243.459 79.280,242.600 78.400 C 241.741 77.520,240.948 76.800,240.838 76.800 C 240.728 76.800,241.341 77.520,242.200 78.400 M245.400 81.565 C 246.538 82.805,248.800 84.627,248.800 84.304 C 248.800 84.221,247.765 83.276,246.500 82.205 C 245.023 80.954,244.629 80.725,245.400 81.565 M250.289 85.471 C 251.555 86.580,255.600 88.976,255.600 88.617 C 255.600 88.516,254.745 87.947,253.700 87.351 C 252.655 86.756,251.170 85.836,250.400 85.306 L 249.000 84.342 250.289 85.471 M265.000 92.400 C 266.101 92.873,266.492 92.873,266.200 92.400 C 266.064 92.180,265.558 92.013,265.076 92.028 C 264.231 92.055,264.229 92.069,265.000 92.400 M268.400 93.200 C 269.768 93.638,270.819 93.638,269.800 93.200 C 269.360 93.011,268.640 92.862,268.200 92.868 C 267.557 92.877,267.596 92.943,268.400 93.200 M182.800 196.125 C 182.800 196.194,183.385 196.779,184.100 197.425 L 185.400 198.600 184.225 197.300 C 183.130 196.088,182.800 195.816,182.800 196.125 M188.600 201.600 C 189.459 202.480,190.252 203.200,190.362 203.200 C 190.472 203.200,189.859 202.480,189.000 201.600 C 188.141 200.720,187.348 200.000,187.238 200.000 C 187.128 200.000,187.741 200.720,188.600 201.600 M198.600 210.800 C 199.459 211.680,200.252 212.400,200.362 212.400 C 200.472 212.400,199.859 211.680,199.000 210.800 C 198.141 209.920,197.348 209.200,197.238 209.200 C 197.128 209.200,197.741 209.920,198.600 210.800 M203.000 214.800 C 203.859 215.680,204.652 216.400,204.762 216.400 C 204.872 216.400,204.259 215.680,203.400 214.800 C 202.541 213.920,201.748 213.200,201.638 213.200 C 201.528 213.200,202.141 213.920,203.000 214.800 M208.200 219.600 C 209.059 220.480,209.852 221.200,209.962 221.200 C 210.072 221.200,209.459 220.480,208.600 219.600 C 207.741 218.720,206.948 218.000,206.838 218.000 C 206.728 218.000,207.341 218.720,208.200 219.600 M212.000 223.000 C 212.746 223.770,213.447 224.400,213.557 224.400 C 213.667 224.400,213.146 223.770,212.400 223.000 C 211.654 222.230,210.953 221.600,210.843 221.600 C 210.733 221.600,211.254 222.230,212.000 223.000 M218.200 228.800 C 219.059 229.680,219.852 230.400,219.962 230.400 C 220.072 230.400,219.459 229.680,218.600 228.800 C 217.741 227.920,216.948 227.200,216.838 227.200 C 216.728 227.200,217.341 227.920,218.200 228.800 M221.800 232.000 C 222.659 232.880,223.452 233.600,223.562 233.600 C 223.672 233.600,223.059 232.880,222.200 232.000 C 221.341 231.120,220.548 230.400,220.438 230.400 C 220.328 230.400,220.941 231.120,221.800 232.000 M227.800 237.600 C 228.659 238.480,229.452 239.200,229.562 239.200 C 229.672 239.200,229.059 238.480,228.200 237.600 C 227.341 236.720,226.548 236.000,226.438 236.000 C 226.328 236.000,226.941 236.720,227.800 237.600 M231.983 241.300 C 232.964 242.345,233.819 243.200,233.883 243.200 C 234.184 243.200,233.866 242.841,232.100 241.183 L 230.200 239.400 231.983 241.300 M237.800 246.800 C 238.659 247.680,239.452 248.400,239.562 248.400 C 239.672 248.400,239.059 247.680,238.200 246.800 C 237.341 245.920,236.548 245.200,236.438 245.200 C 236.328 245.200,236.941 245.920,237.800 246.800 M241.400 250.000 C 242.259 250.880,243.052 251.600,243.162 251.600 C 243.272 251.600,242.659 250.880,241.800 250.000 C 240.941 249.120,240.148 248.400,240.038 248.400 C 239.928 248.400,240.541 249.120,241.400 250.000 M246.783 254.900 C 248.441 256.666,248.800 256.984,248.800 256.683 C 248.800 256.619,247.945 255.764,246.900 254.783 L 245.000 253.000 246.783 254.900 M249.600 257.325 C 249.600 257.394,250.185 257.979,250.900 258.625 L 252.200 259.800 251.025 258.500 C 249.930 257.288,249.600 257.016,249.600 257.325 " stroke="none" fill="#f4a4a4" fill-rule="evenodd"></path><path id="path6" d="M229.394 46.843 C 229.511 47.150,229.763 48.480,229.954 49.800 L 230.302 52.200 230.351 49.749 C 230.386 47.996,230.227 47.154,229.791 46.792 C 229.293 46.379,229.220 46.388,229.394 46.843 M230.468 54.600 C 230.462 55.260,230.611 56.160,230.800 56.600 C 231.270 57.694,231.270 55.867,230.800 54.400 C 230.488 53.425,230.479 53.430,230.468 54.600 M231.256 58.200 C 231.256 58.640,231.411 59.360,231.600 59.800 L 231.944 60.600 231.944 59.800 C 231.944 59.360,231.789 58.640,231.600 58.200 L 231.256 57.400 231.256 58.200 M232.012 61.200 C 232.012 61.530,232.187 62.070,232.400 62.400 C 232.745 62.933,232.788 62.933,232.788 62.400 C 232.788 62.070,232.613 61.530,232.400 61.200 C 232.055 60.667,232.012 60.667,232.012 61.200 M233.010 64.050 C 233.744 66.411,238.070 74.232,239.176 75.200 C 239.302 75.310,239.874 76.031,240.448 76.803 C 242.520 79.587,248.385 84.956,251.100 86.553 C 252.264 87.238,251.450 86.453,249.500 85.011 C 242.946 80.165,233.600 67.950,233.600 64.231 C 233.600 63.910,233.401 63.524,233.157 63.374 C 232.853 63.185,232.807 63.397,233.010 64.050 M319.394 67.700 C 319.040 68.195,317.660 70.310,316.328 72.400 C 311.275 80.325,302.987 87.173,294.600 90.354 C 293.280 90.854,291.887 91.430,291.505 91.632 C 291.123 91.834,290.506 92.000,290.134 92.000 C 289.761 92.000,288.904 92.175,288.228 92.388 C 287.553 92.602,286.307 92.883,285.459 93.014 C 284.612 93.145,284.021 93.354,284.147 93.480 C 284.449 93.782,288.641 92.945,291.662 91.980 C 302.576 88.494,313.568 79.381,318.562 69.679 C 318.936 68.952,319.593 68.007,320.021 67.579 C 320.450 67.150,320.628 66.800,320.419 66.800 C 320.209 66.800,319.748 67.205,319.394 67.700 M252.000 86.960 C 252.000 87.259,255.606 89.327,255.796 89.137 C 255.884 89.049,255.066 88.477,253.978 87.866 C 252.890 87.254,252.000 86.847,252.000 86.960 M262.190 91.984 C 262.332 92.213,262.917 92.400,263.490 92.400 C 264.744 92.400,264.599 92.208,263.066 91.840 C 262.323 91.662,262.021 91.711,262.190 91.984 M264.946 92.713 C 265.233 93.176,267.208 93.547,270.600 93.774 C 271.920 93.863,272.460 93.861,271.800 93.769 C 270.261 93.557,266.423 92.807,265.450 92.529 C 265.009 92.403,264.801 92.478,264.946 92.713 M275.400 94.000 L 273.000 94.266 275.400 94.280 C 276.720 94.289,279.150 94.168,280.800 94.012 L 283.800 93.729 280.800 93.732 C 279.150 93.733,276.720 93.854,275.400 94.000 M184.600 197.600 C 185.459 198.480,186.252 199.200,186.362 199.200 C 186.472 199.200,185.859 198.480,185.000 197.600 C 184.141 196.720,183.348 196.000,183.238 196.000 C 183.128 196.000,183.741 196.720,184.600 197.600 M191.509 203.958 C 194.089 206.355,196.266 208.254,196.348 208.177 C 196.429 208.101,196.244 207.805,195.938 207.519 C 191.947 203.804,187.228 199.600,187.048 199.600 C 186.922 199.600,188.929 201.561,191.509 203.958 M201.776 213.285 C 203.989 215.422,205.919 217.177,206.065 217.185 C 206.211 217.193,205.132 216.075,203.667 214.700 C 202.202 213.325,200.909 212.110,200.793 212.000 C 200.678 211.890,199.946 211.260,199.167 210.600 C 198.388 209.940,199.562 211.148,201.776 213.285 M211.600 222.292 C 213.910 224.502,215.864 226.252,215.941 226.181 C 216.087 226.047,212.952 223.089,209.400 220.008 C 208.300 219.054,209.290 220.082,211.600 222.292 M218.574 228.693 C 219.440 229.624,220.235 230.299,220.341 230.193 C 220.447 230.087,220.456 229.955,220.362 229.900 C 220.268 229.845,219.473 229.170,218.596 228.401 L 217.000 227.001 218.574 228.693 M222.987 232.701 C 224.301 234.075,225.528 235.200,225.716 235.200 C 225.904 235.200,225.807 234.975,225.501 234.700 C 225.195 234.425,223.967 233.300,222.772 232.201 L 220.600 230.202 222.987 232.701 M228.324 237.684 C 233.641 242.553,234.403 243.155,230.628 239.506 C 228.413 237.364,226.476 235.609,226.324 235.606 C 226.172 235.603,227.072 236.538,228.324 237.684 M236.041 244.643 C 236.063 244.840,236.963 245.790,238.041 246.757 C 239.118 247.723,239.982 248.353,239.959 248.157 C 239.937 247.960,239.037 247.010,237.959 246.043 C 236.882 245.077,236.018 244.447,236.041 244.643 M242.587 250.701 C 243.901 252.075,245.128 253.200,245.316 253.200 C 245.504 253.200,245.407 252.975,245.101 252.700 C 244.795 252.425,243.567 251.300,242.372 250.201 L 240.200 248.202 242.587 250.701 M247.583 255.302 C 248.564 256.346,249.522 257.200,249.712 257.200 C 250.069 257.200,250.001 257.130,247.376 254.802 C 245.871 253.466,245.880 253.489,247.583 255.302 " stroke="none" fill="#fa908d" fill-rule="evenodd"></path><path id="path7" d="M309.600 166.000 C 309.067 166.345,309.067 166.388,309.600 166.388 C 309.930 166.388,310.470 166.213,310.800 166.000 C 311.333 165.655,311.333 165.612,310.800 165.612 C 310.470 165.612,309.930 165.787,309.600 166.000 M307.200 166.800 C 306.667 167.145,306.667 167.188,307.200 167.188 C 307.530 167.188,308.070 167.013,308.400 166.800 C 308.933 166.455,308.933 166.412,308.400 166.412 C 308.070 166.412,307.530 166.587,307.200 166.800 M291.770 182.300 C 290.500 184.885,289.391 187.135,289.307 187.300 C 289.222 187.465,289.235 187.600,289.337 187.600 C 289.438 187.600,290.560 185.485,291.830 182.900 C 293.100 180.315,294.209 178.065,294.293 177.900 C 294.378 177.735,294.365 177.600,294.263 177.600 C 294.162 177.600,293.040 179.715,291.770 182.300 " stroke="none" fill="#a4648c" fill-rule="evenodd"></path><path id="path8" d="" stroke="none" fill="#b45c84" fill-rule="evenodd"></path></g></svg>