<svg id="svg" version="1.1" xmlns="http://www.w3.org/2000/svg" xmlns:xlink="http://www.w3.org/1999/xlink" width="400" height="400" viewBox="0, 0, 400,400"><g id="svgg"><path id="path0" d="M200.400 91.800 L 200.400 159.200 225.693 159.200 L 250.986 159.200 249.559 158.230 C 246.742 156.316,246.600 155.825,246.601 148.000 C 246.603 133.305,253.476 123.590,266.600 119.730 C 269.655 118.832,310.152 118.391,314.000 119.215 C 323.631 121.276,331.305 127.836,334.803 137.000 C 337.615 144.363,336.751 155.900,333.210 158.300 L 331.882 159.200 354.143 159.200 L 376.405 159.200 376.274 97.100 C 376.147 36.851,376.083 33.330,375.073 31.206 C 374.137 29.237,371.072 26.000,370.144 26.000 C 369.845 26.000,369.600 25.820,369.600 25.600 C 369.600 25.380,369.150 25.200,368.600 25.200 C 368.050 25.200,367.600 25.020,367.600 24.800 C 367.600 24.535,339.467 24.400,284.000 24.400 L 200.400 24.400 200.400 91.800 M298.330 61.641 C 324.371 69.974,325.090 104.802,299.400 113.395 C 293.609 115.332,284.457 114.475,279.259 111.508 C 278.457 111.049,277.356 110.438,276.813 110.150 C 266.477 104.652,261.644 88.186,266.960 76.575 C 272.274 64.968,286.928 57.991,298.330 61.641 M85.392 120.188 C 82.312 120.859,77.600 122.739,77.600 123.298 C 77.600 123.464,77.324 123.600,76.987 123.600 C 75.568 123.600,69.450 130.474,67.732 134.000 C 62.830 144.058,63.503 158.396,68.876 158.400 C 69.248 158.400,69.664 158.580,69.800 158.800 C 69.959 159.058,76.937 159.200,89.424 159.200 L 108.800 159.200 108.800 139.400 L 108.800 119.600 98.300 119.632 C 91.245 119.653,87.010 119.836,85.392 120.188 M292.100 197.087 C 292.705 197.178,293.695 197.178,294.300 197.087 C 294.905 196.995,294.410 196.920,293.200 196.920 C 291.990 196.920,291.495 196.995,292.100 197.087 M304.400 200.420 C 305.787 201.361,306.578 201.635,305.600 200.836 C 305.050 200.386,304.420 200.017,304.200 200.015 C 303.980 200.013,304.070 200.196,304.400 200.420 M317.693 218.800 C 317.693 219.570,317.775 219.885,317.876 219.500 C 317.976 219.115,317.976 218.485,317.876 218.100 C 317.775 217.715,317.693 218.030,317.693 218.800 M317.693 228.800 C 317.693 229.570,317.775 229.885,317.876 229.500 C 317.976 229.115,317.976 228.485,317.876 228.100 C 317.775 227.715,317.693 228.030,317.693 228.800 M290.313 250.695 C 291.476 250.776,293.276 250.776,294.313 250.693 C 295.351 250.611,294.400 250.545,292.200 250.546 C 290.000 250.547,289.151 250.614,290.313 250.695 M109.107 275.188 L 109.000 294.800 129.446 294.800 C 152.542 294.800,151.063 295.004,152.811 291.578 C 153.934 289.377,153.935 280.380,152.813 275.927 C 150.866 268.202,145.668 261.684,138.804 258.362 C 133.551 255.820,133.947 255.878,120.707 255.717 L 109.215 255.576 109.107 275.188 " stroke="none" fill="#f84f50" fill-rule="evenodd"></path><path id="path1" d="M31.600 24.777 C 31.270 24.959,30.484 25.350,29.852 25.647 C 27.240 26.875,25.289 29.429,24.061 33.228 C 23.105 36.188,23.433 284.727,24.397 287.285 C 25.355 289.829,27.155 291.870,29.823 293.438 L 31.800 294.600 49.598 294.720 L 67.395 294.839 66.172 293.520 C 64.233 291.426,63.999 290.447,64.014 284.481 C 64.057 268.202,73.330 257.113,88.492 255.212 C 93.988 254.523,128.148 254.676,131.674 255.405 C 138.811 256.882,144.407 260.303,148.353 265.600 C 148.926 266.370,149.497 267.090,149.622 267.200 C 149.852 267.402,152.239 272.326,152.823 273.800 C 153.557 275.653,153.737 277.351,153.884 283.791 C 154.050 291.123,153.939 291.680,151.908 293.703 L 150.801 294.806 175.300 294.703 L 199.800 294.600 199.901 159.500 L 200.001 24.400 116.101 24.424 C 69.955 24.436,31.930 24.596,31.600 24.777 M114.989 61.405 C 136.936 66.054,143.395 94.437,125.773 108.800 C 123.617 110.558,120.781 112.082,117.793 113.088 C 113.439 114.555,110.146 114.988,109.011 114.244 C 108.420 113.857,107.184 113.600,105.912 113.600 C 99.988 113.600,89.845 107.406,87.089 102.104 C 86.590 101.146,86.112 100.203,84.350 96.705 C 84.157 96.323,84.000 95.684,84.000 95.285 C 84.000 94.886,83.839 94.389,83.642 94.180 C 83.353 93.873,83.048 91.620,82.780 87.800 C 82.500 83.824,84.289 77.800,87.068 73.364 C 88.395 71.244,92.918 66.400,93.569 66.400 C 93.775 66.400,94.188 66.175,94.487 65.900 C 95.263 65.187,97.328 64.052,99.400 63.200 C 100.060 62.929,100.913 62.548,101.295 62.353 C 101.677 62.159,102.622 62.000,103.395 62.000 C 104.168 62.000,104.800 61.829,104.800 61.620 C 104.800 61.281,106.212 61.108,110.800 60.883 C 111.570 60.845,113.455 61.080,114.989 61.405 M132.154 119.226 C 136.898 120.453,139.979 121.873,143.432 124.424 C 150.630 129.741,154.000 137.311,154.000 148.158 C 154.000 155.819,153.355 157.373,149.507 158.981 C 147.659 159.753,72.474 159.932,69.452 159.171 C 65.387 158.148,64.000 155.452,64.000 148.571 C 64.000 133.576,72.391 122.258,85.600 119.436 C 88.909 118.729,129.524 118.546,132.154 119.226 M116.200 197.901 C 133.975 202.548,141.680 223.767,131.198 239.203 C 127.983 243.937,124.104 246.871,117.600 249.489 C 115.129 250.484,111.043 250.897,108.400 250.419 C 106.970 250.161,105.080 249.852,104.200 249.734 C 103.320 249.615,102.429 249.356,102.220 249.159 C 102.011 248.962,101.514 248.800,101.115 248.800 C 100.716 248.800,100.077 248.641,99.695 248.447 C 99.313 248.252,98.460 247.851,97.800 247.554 C 92.684 245.256,87.482 240.056,85.239 235.000 C 84.946 234.340,84.548 233.487,84.353 233.105 C 84.159 232.723,84.000 231.969,84.000 231.429 C 84.000 230.889,83.845 230.351,83.654 230.234 C 82.670 229.625,82.670 217.975,83.654 217.366 C 83.845 217.249,84.000 216.801,84.000 216.371 C 84.000 215.941,84.180 215.232,84.400 214.795 C 84.620 214.358,84.980 213.642,85.200 213.205 C 85.420 212.768,85.600 212.221,85.600 211.989 C 85.600 211.756,85.785 211.349,86.011 211.083 C 86.236 210.817,86.962 209.762,87.623 208.739 C 89.066 206.503,91.706 203.884,94.069 202.343 C 95.021 201.722,96.017 201.031,96.283 200.807 C 96.549 200.583,97.044 200.400,97.383 200.400 C 97.722 200.400,98.000 200.220,98.000 200.000 C 98.000 199.780,98.349 199.600,98.776 199.600 C 99.203 199.600,99.664 199.420,99.800 199.200 C 99.936 198.980,100.577 198.800,101.224 198.800 C 101.871 198.800,102.400 198.637,102.400 198.437 C 102.400 198.237,103.345 197.983,104.500 197.872 C 105.655 197.761,107.320 197.495,108.200 197.281 C 110.096 196.820,112.894 197.037,116.200 197.901 " stroke="none" fill="#e5f1f6" fill-rule="evenodd"></path><path id="path2" d="M283.000 0.371 L 200.200 0.600 200.094 12.300 L 199.988 24.000 283.294 24.002 C 338.822 24.004,367.091 24.141,368.073 24.413 C 370.501 25.088,373.287 27.273,374.700 29.613 C 375.657 31.196,376.000 31.532,376.000 30.882 C 376.000 30.397,375.820 30.000,375.600 30.000 C 375.380 30.000,375.200 29.782,375.200 29.515 C 375.200 28.855,370.868 24.800,370.164 24.800 C 369.854 24.800,369.600 24.620,369.600 24.400 C 369.600 23.879,369.771 23.893,371.347 24.552 C 374.274 25.775,376.043 28.375,376.360 31.922 C 376.933 38.320,376.357 284.126,375.765 286.183 C 374.762 289.666,372.661 291.974,368.640 294.012 C 367.064 294.811,334.140 294.902,334.298 294.107 C 334.358 293.801,333.905 293.914,333.098 294.406 C 331.828 295.180,330.944 295.197,291.474 295.199 C 249.338 295.200,250.512 295.248,248.403 293.450 C 247.429 292.620,247.422 292.619,248.104 293.432 C 249.247 294.796,249.185 294.800,224.334 294.800 L 200.402 294.800 200.300 227.100 L 200.198 159.400 200.099 238.900 L 200.000 318.400 173.419 318.400 C 143.360 318.400,144.800 318.256,144.800 321.264 C 144.800 322.329,144.620 323.200,144.400 323.200 C 144.180 323.200,144.000 324.179,144.000 325.376 C 144.000 326.573,143.849 327.646,143.664 327.760 C 143.479 327.875,143.295 328.899,143.255 330.037 C 143.214 331.175,143.082 332.267,142.961 332.462 C 142.840 332.658,142.656 333.669,142.551 334.709 C 142.447 335.749,142.169 337.950,141.934 339.600 C 141.698 341.250,141.422 343.680,141.319 345.000 C 141.217 346.320,140.968 347.571,140.766 347.780 C 140.565 347.989,140.400 349.103,140.400 350.256 C 140.400 351.409,140.220 352.464,140.000 352.600 C 139.780 352.736,139.600 353.917,139.600 355.224 C 139.600 356.541,139.422 357.600,139.200 357.600 C 138.978 357.600,138.800 358.667,138.800 360.000 C 138.800 361.333,138.622 362.400,138.400 362.400 C 138.174 362.400,138.000 363.533,138.000 365.000 C 138.000 366.467,137.826 367.600,137.600 367.600 C 137.378 367.600,137.200 368.667,137.200 370.000 C 137.200 371.333,137.022 372.400,136.800 372.400 C 136.110 372.400,136.324 375.485,137.033 375.757 C 137.381 375.891,151.688 376.000,168.827 376.000 L 199.988 376.000 200.094 387.700 L 200.200 399.400 249.200 399.495 C 281.025 399.556,297.990 399.453,297.600 399.201 C 297.114 398.886,297.172 398.811,297.900 398.806 C 298.395 398.803,298.800 398.620,298.800 398.400 C 298.800 398.180,299.035 398.000,299.322 398.000 C 299.991 398.000,302.559 395.588,302.730 394.800 C 302.802 394.470,303.027 394.140,303.230 394.067 C 303.434 393.993,303.600 393.588,303.600 393.167 C 303.600 392.745,303.780 392.400,304.000 392.400 C 304.220 392.400,304.400 391.770,304.400 391.000 C 304.400 390.230,304.585 389.600,304.810 389.600 C 305.050 389.600,305.175 388.772,305.110 387.600 C 305.050 386.500,304.865 385.600,304.700 385.600 C 304.535 385.600,304.387 384.745,304.372 383.700 C 304.351 382.270,304.259 381.998,304.000 382.600 C 303.672 383.363,303.655 383.359,303.628 382.500 C 303.613 382.005,303.420 381.600,303.200 381.600 C 302.980 381.600,302.800 381.229,302.800 380.776 C 302.800 380.249,302.631 380.057,302.332 380.242 C 302.018 380.436,301.947 380.314,302.118 379.870 C 302.257 379.507,302.243 379.229,302.086 379.252 C 301.304 379.369,301.065 379.146,301.600 378.800 C 302.083 378.488,302.019 378.411,301.276 378.406 C 300.764 378.403,300.463 378.222,300.600 378.000 C 300.736 377.780,300.612 377.586,300.324 377.569 C 300.036 377.553,299.440 377.452,299.000 377.346 C 298.560 377.240,297.975 377.134,297.700 377.110 C 297.425 377.086,297.200 376.823,297.200 376.526 C 297.200 376.148,296.897 376.061,296.195 376.237 C 295.589 376.389,294.929 376.273,294.534 375.945 C 294.011 375.510,290.658 375.375,277.939 375.275 L 262.000 375.150 262.000 373.775 C 262.000 373.019,261.820 372.400,261.600 372.400 C 261.380 372.400,261.200 373.120,261.200 374.000 L 261.200 375.600 230.600 375.600 L 200.000 375.600 200.000 347.400 L 200.000 319.200 226.656 319.200 C 251.573 319.200,253.346 319.246,253.843 319.900 C 254.349 320.567,254.375 320.567,254.387 319.900 C 254.399 319.237,257.499 319.200,313.776 319.200 C 352.929 319.200,373.237 319.064,373.400 318.800 C 373.536 318.580,374.357 318.400,375.224 318.400 C 376.091 318.400,376.800 318.220,376.800 318.000 C 376.800 317.780,377.340 317.600,378.000 317.600 C 378.660 317.600,379.200 317.453,379.200 317.272 C 379.200 317.092,380.100 316.700,381.200 316.400 C 382.300 316.100,383.200 315.708,383.200 315.528 C 383.200 315.347,383.478 315.200,383.817 315.200 C 384.156 315.200,384.820 314.840,385.292 314.400 C 385.764 313.960,386.398 313.600,386.699 313.600 C 387.001 313.600,387.136 313.420,387.000 313.200 C 386.864 312.980,387.033 312.800,387.376 312.800 C 387.719 312.800,388.000 312.620,388.000 312.400 C 388.000 312.180,388.172 312.000,388.382 312.000 C 388.918 312.000,390.763 310.097,390.491 309.824 C 390.368 309.701,390.485 309.600,390.752 309.600 C 391.305 309.600,393.200 307.813,393.200 307.290 C 393.200 307.100,393.650 306.553,394.200 306.075 C 394.750 305.596,395.513 304.484,395.894 303.603 C 396.276 302.721,396.726 302.000,396.894 302.000 C 397.062 302.000,397.200 301.640,397.200 301.200 C 397.200 300.760,397.380 300.400,397.600 300.400 C 397.820 300.400,398.000 300.051,398.000 299.624 C 398.000 299.197,398.180 298.736,398.400 298.600 C 398.620 298.464,398.800 297.949,398.800 297.456 C 398.800 296.963,399.025 296.335,399.300 296.060 C 399.698 295.662,399.800 267.795,399.800 159.400 C 399.800 51.005,399.698 23.138,399.300 22.740 C 399.025 22.465,398.800 21.736,398.800 21.120 C 398.800 20.504,398.620 20.000,398.400 20.000 C 398.180 20.000,398.000 19.640,398.000 19.200 C 398.000 18.760,397.820 18.400,397.600 18.400 C 397.380 18.400,397.200 18.040,397.200 17.600 C 397.200 17.160,397.020 16.800,396.800 16.800 C 396.580 16.800,396.400 16.440,396.400 16.000 C 396.400 15.560,396.259 15.200,396.086 15.200 C 395.914 15.200,395.451 14.655,395.057 13.989 C 394.664 13.323,393.905 12.341,393.371 11.807 C 392.837 11.273,392.400 10.648,392.400 10.418 C 392.400 10.188,392.261 10.000,392.091 10.000 C 391.921 10.000,390.718 9.010,389.418 7.800 C 388.118 6.590,386.920 5.600,386.756 5.600 C 386.591 5.600,386.219 5.375,385.929 5.100 C 385.089 4.306,382.154 2.800,381.446 2.800 C 381.090 2.800,380.800 2.620,380.800 2.400 C 380.800 2.180,380.440 2.000,380.000 2.000 C 379.560 2.000,379.200 1.820,379.200 1.600 C 379.200 1.380,378.696 1.200,378.080 1.200 C 377.464 1.200,376.789 1.029,376.580 0.820 C 375.933 0.173,368.280 0.136,283.000 0.371 M269.200 255.216 C 265.815 255.797,260.800 257.598,260.800 258.234 C 260.800 258.351,260.935 258.377,261.100 258.291 C 265.848 255.817,267.830 255.500,280.400 255.210 L 291.800 254.948 281.400 254.927 C 275.680 254.916,270.190 255.046,269.200 255.216 M311.200 255.220 C 312.190 255.397,313.540 255.532,314.200 255.520 C 315.085 255.505,314.928 255.416,313.600 255.180 C 312.610 255.003,311.260 254.868,310.600 254.880 C 309.715 254.895,309.872 254.984,311.200 255.220 M316.000 255.982 C 316.330 256.205,316.827 256.391,317.104 256.394 C 317.510 256.399,320.249 257.529,321.700 258.290 C 321.865 258.376,322.000 258.352,322.000 258.235 C 322.000 257.930,318.018 256.170,316.600 255.848 C 315.725 255.650,315.563 255.686,316.000 255.982 M257.600 260.055 C 253.969 262.780,248.612 269.145,249.339 269.872 C 249.452 269.985,249.921 269.339,250.381 268.436 C 251.481 266.280,256.002 261.515,258.455 259.925 C 259.525 259.232,260.400 258.606,260.400 258.533 C 260.400 258.126,259.563 258.582,257.600 260.055 M324.243 259.769 C 325.361 260.522,327.591 262.547,329.199 264.269 C 330.808 265.991,331.823 266.950,331.455 266.400 C 329.783 263.896,323.653 258.400,322.533 258.400 C 322.356 258.400,323.125 259.016,324.243 259.769 M332.600 268.800 C 332.941 269.460,333.311 270.000,333.421 270.000 C 333.531 270.000,333.341 269.460,333.000 268.800 C 332.659 268.140,332.289 267.600,332.179 267.600 C 332.069 267.600,332.259 268.140,332.600 268.800 M248.223 271.806 C 247.322 273.964,247.511 274.528,248.437 272.442 C 248.866 271.475,249.134 270.600,249.032 270.498 C 248.930 270.397,248.566 270.985,248.223 271.806 M247.073 274.953 C 246.923 275.345,246.811 275.966,246.825 276.333 C 246.842 276.775,246.981 276.674,247.237 276.034 C 247.449 275.503,247.561 274.882,247.485 274.654 C 247.409 274.427,247.224 274.561,247.073 274.953 M335.444 275.800 C 335.773 277.271,336.002 277.590,335.994 276.567 C 335.991 276.145,335.805 275.530,335.582 275.200 C 335.285 274.762,335.248 274.924,335.444 275.800 M246.252 278.900 C 245.909 280.182,245.954 289.709,246.306 290.260 C 246.468 290.513,246.602 287.858,246.605 284.360 C 246.611 277.524,246.613 277.552,246.252 278.900 M336.195 284.516 C 336.198 287.707,336.332 290.111,336.494 289.859 C 336.854 289.297,336.823 280.964,336.456 279.657 C 336.310 279.139,336.193 281.325,336.195 284.516 M88.700 295.500 C 99.975 295.559,118.425 295.559,129.700 295.500 C 140.975 295.441,131.750 295.393,109.200 295.393 C 86.650 295.393,77.425 295.441,88.700 295.500 M254.370 322.500 C 254.046 323.593,254.112 324.662,254.569 325.707 L 255.135 327.000 255.167 324.700 C 255.192 322.964,254.665 321.509,254.370 322.500 M255.170 327.676 C 254.688 329.683,254.902 331.600,255.608 331.600 C 256.124 331.600,256.117 328.120,255.600 327.800 C 255.380 327.664,255.187 327.608,255.170 327.676 M255.803 334.388 C 255.503 335.754,255.879 337.322,256.425 336.984 C 256.857 336.718,256.807 333.651,256.366 333.379 C 256.201 333.277,255.947 333.731,255.803 334.388 M256.478 340.700 C 256.612 342.783,257.366 343.323,257.456 341.400 C 257.528 339.841,257.246 338.800,256.751 338.800 C 256.530 338.800,256.410 339.634,256.478 340.700 M257.200 345.953 C 257.200 346.833,257.380 347.664,257.600 347.800 C 257.841 347.949,258.000 347.412,258.000 346.447 C 258.000 345.567,257.820 344.736,257.600 344.600 C 257.359 344.451,257.200 344.988,257.200 345.953 M258.006 351.100 C 258.003 352.504,258.175 353.600,258.400 353.600 C 258.912 353.600,258.912 349.993,258.400 349.200 C 258.127 348.777,258.010 349.338,258.006 351.100 M259.067 355.467 C 258.641 355.893,258.759 359.200,259.200 359.200 C 259.420 359.200,259.600 358.300,259.600 357.200 C 259.600 355.172,259.544 354.989,259.067 355.467 M259.600 363.024 C 259.600 364.137,259.756 364.751,260.000 364.600 C 260.220 364.464,260.400 363.643,260.400 362.776 C 260.400 361.909,260.220 361.200,260.000 361.200 C 259.780 361.200,259.600 362.021,259.600 363.024 M260.400 368.424 C 260.400 369.537,260.546 370.357,260.724 370.247 C 261.218 369.942,261.305 366.400,260.818 366.400 C 260.582 366.400,260.400 367.282,260.400 368.424 " stroke="none" fill="#2453be" fill-rule="evenodd"></path><path id="path3" d="M200.400 227.200 L 200.400 294.800 224.376 294.800 C 247.416 294.800,249.521 294.696,248.230 293.625 C 244.142 290.232,245.484 275.481,250.616 267.400 C 254.812 260.792,261.727 256.408,269.943 255.146 C 275.533 254.287,314.285 254.916,317.059 255.911 C 329.808 260.481,336.817 270.891,336.794 285.224 C 336.788 289.243,336.273 291.349,334.872 293.089 C 333.480 294.820,333.899 294.862,351.248 294.728 L 367.800 294.600 369.400 293.653 C 372.148 292.027,373.026 291.294,374.122 289.713 C 376.514 286.261,376.391 289.930,376.396 221.900 L 376.400 159.600 288.400 159.600 L 200.400 159.600 200.400 227.200 M297.354 197.244 C 298.259 197.488,299.360 197.830,299.800 198.004 C 300.240 198.177,301.230 198.554,302.000 198.840 C 307.195 200.772,313.586 206.890,315.957 212.200 C 316.252 212.860,316.652 213.713,316.847 214.095 C 317.041 214.477,317.200 215.116,317.200 215.515 C 317.200 215.914,317.362 216.411,317.559 216.620 C 317.756 216.829,318.015 217.720,318.134 218.600 C 318.253 219.480,318.476 221.166,318.630 222.347 C 319.861 231.767,312.711 243.829,303.299 248.213 C 298.680 250.365,298.249 250.464,292.600 250.687 C 284.209 251.017,278.269 248.714,272.421 242.862 C 257.273 227.706,264.679 202.162,285.600 197.404 C 288.423 196.762,295.224 196.670,297.354 197.244 M200.000 347.400 L 200.000 375.600 230.600 375.600 L 261.200 375.600 261.200 372.776 C 261.200 370.996,261.052 370.044,260.800 370.200 C 260.547 370.357,260.400 369.330,260.400 367.400 C 260.400 365.470,260.253 364.443,260.000 364.600 C 259.748 364.756,259.600 363.804,259.600 362.024 C 259.600 360.408,259.429 359.200,259.200 359.200 C 258.971 359.200,258.800 358.000,258.800 356.400 C 258.800 354.557,258.643 353.600,258.340 353.600 C 258.012 353.600,257.939 352.541,258.087 349.900 C 258.201 347.865,258.215 346.608,258.118 347.106 C 257.842 348.530,257.200 347.723,257.200 345.953 C 257.200 344.891,257.348 344.444,257.640 344.625 C 257.949 344.816,257.965 344.674,257.694 344.148 C 257.482 343.737,257.391 343.169,257.492 342.888 C 257.592 342.606,257.433 342.426,257.137 342.488 C 256.726 342.574,256.604 341.928,256.619 339.727 C 256.629 338.146,256.513 336.930,256.361 337.024 C 255.835 337.349,255.587 335.891,255.842 333.969 C 256.044 332.445,255.954 331.897,255.415 331.358 C 254.899 330.842,254.784 330.248,254.945 328.936 C 255.076 327.867,254.937 326.669,254.586 325.829 C 254.227 324.969,254.102 323.838,254.250 322.783 C 254.394 321.751,254.288 320.739,253.975 320.153 L 253.465 319.200 226.732 319.200 L 200.000 319.200 200.000 347.400 " stroke="none" fill="#04245b" fill-rule="evenodd"></path><path id="path4" d="M107.100 61.096 C 105.835 61.175,104.800 61.411,104.800 61.620 C 104.800 61.829,104.168 62.000,103.395 62.000 C 102.622 62.000,101.677 62.159,101.295 62.353 C 100.913 62.548,100.060 62.929,99.400 63.200 C 97.328 64.052,95.263 65.187,94.487 65.900 C 94.188 66.175,93.775 66.400,93.569 66.400 C 92.918 66.400,88.395 71.244,87.068 73.364 C 84.561 77.366,83.449 80.544,82.996 85.000 C 82.861 86.320,82.764 87.580,82.780 87.800 C 83.048 91.620,83.353 93.873,83.642 94.180 C 83.839 94.389,84.000 94.886,84.000 95.285 C 84.000 95.684,84.157 96.323,84.350 96.705 C 86.112 100.203,86.590 101.146,87.089 102.104 C 89.845 107.406,99.988 113.600,105.912 113.600 C 107.184 113.600,108.420 113.857,109.011 114.244 C 109.871 114.807,110.332 114.826,112.697 114.391 C 117.960 113.423,122.463 111.498,125.773 108.800 C 139.582 97.544,139.377 77.107,125.344 66.101 C 121.759 63.290,114.539 60.699,110.800 60.883 C 110.030 60.920,108.365 61.016,107.100 61.096 M287.000 61.180 C 267.539 64.431,258.326 86.599,269.560 103.141 C 271.183 105.531,274.921 109.144,276.813 110.150 C 277.356 110.438,278.457 111.049,279.259 111.508 C 290.986 118.202,307.763 113.314,314.644 101.200 C 323.470 85.662,315.880 67.257,298.330 61.641 C 296.423 61.030,289.564 60.751,287.000 61.180 M268.193 119.409 C 254.299 122.463,246.604 132.653,246.601 148.000 C 246.600 155.888,246.807 156.544,249.907 158.472 L 251.400 159.400 289.200 159.524 C 335.060 159.674,333.098 159.824,335.369 156.000 C 336.408 154.250,336.608 142.747,335.654 139.600 C 333.930 133.912,332.197 130.979,328.208 127.000 C 323.787 122.589,320.827 120.952,314.154 119.226 C 311.603 118.566,271.298 118.727,268.193 119.409 M108.200 197.281 C 107.320 197.495,105.655 197.761,104.500 197.872 C 103.345 197.983,102.400 198.237,102.400 198.437 C 102.400 198.637,101.871 198.800,101.224 198.800 C 100.577 198.800,99.936 198.980,99.800 199.200 C 99.664 199.420,99.203 199.600,98.776 199.600 C 98.349 199.600,98.000 199.780,98.000 200.000 C 98.000 200.220,97.722 200.400,97.383 200.400 C 97.044 200.400,96.549 200.583,96.283 200.807 C 96.017 201.031,95.021 201.722,94.069 202.343 C 91.706 203.884,89.066 206.503,87.623 208.739 C 86.962 209.762,86.236 210.817,86.011 211.083 C 85.785 211.349,85.600 211.756,85.600 211.989 C 85.600 212.221,85.420 212.768,85.200 213.205 C 84.980 213.642,84.620 214.358,84.400 214.795 C 84.180 215.232,84.000 215.941,84.000 216.371 C 84.000 216.801,83.845 217.249,83.654 217.366 C 82.670 217.975,82.670 229.625,83.654 230.234 C 83.845 230.351,84.000 230.889,84.000 231.429 C 84.000 231.969,84.159 232.723,84.353 233.105 C 84.548 233.487,84.946 234.340,85.239 235.000 C 87.482 240.056,92.684 245.256,97.800 247.554 C 98.460 247.851,99.313 248.252,99.695 248.447 C 100.077 248.641,100.716 248.800,101.115 248.800 C 101.514 248.800,102.011 248.962,102.220 249.159 C 102.429 249.356,103.320 249.615,104.200 249.734 C 105.080 249.852,106.970 250.161,108.400 250.419 C 111.043 250.897,115.129 250.484,117.600 249.489 C 133.528 243.078,140.281 227.267,133.458 212.361 C 129.096 202.834,116.440 195.278,108.200 197.281 M284.907 198.002 C 270.810 201.696,262.349 215.370,265.355 229.600 C 265.891 232.137,268.379 238.144,269.165 238.800 C 269.297 238.910,270.032 239.832,270.799 240.849 C 277.668 249.965,292.161 253.122,303.200 247.907 C 304.630 247.232,305.890 246.562,306.000 246.420 C 306.110 246.278,306.830 245.723,307.600 245.186 C 316.461 239.013,320.485 225.609,316.670 214.972 C 316.023 213.167,314.036 209.113,313.645 208.800 C 313.508 208.690,312.922 207.970,312.343 207.200 C 307.616 200.911,299.798 197.172,291.480 197.222 C 289.220 197.236,286.684 197.537,284.907 198.002 M88.024 255.235 C 78.023 256.529,68.907 263.680,65.776 272.687 C 63.007 280.652,63.257 290.811,66.293 293.704 L 67.451 294.807 88.226 294.704 L 109.000 294.600 109.104 275.100 L 109.208 255.600 120.504 255.553 C 126.717 255.527,131.260 255.368,130.600 255.200 C 128.972 254.786,91.255 254.817,88.024 255.235 M132.400 256.000 C 132.730 256.213,133.407 256.391,133.905 256.394 C 134.403 256.397,135.123 256.561,135.505 256.758 C 135.887 256.955,137.372 257.680,138.804 258.369 C 143.890 260.817,148.109 265.069,150.863 270.524 C 154.430 277.591,154.763 289.914,151.483 293.500 C 151.031 293.995,150.839 294.400,151.058 294.400 C 151.544 294.400,152.816 292.945,153.519 291.585 C 154.078 290.504,154.012 278.151,153.434 275.800 C 152.993 274.002,150.206 267.715,149.622 267.200 C 149.497 267.090,148.926 266.370,148.353 265.600 C 145.161 261.314,140.549 258.060,135.086 256.238 C 132.859 255.496,131.422 255.368,132.400 256.000 " stroke="none" fill="#fbb93d" fill-rule="evenodd"></path><path id="path5" d="M28.300 0.294 C 27.255 0.376,26.400 0.614,26.400 0.822 C 26.400 1.030,25.781 1.200,25.024 1.200 C 24.267 1.200,23.536 1.380,23.400 1.600 C 23.264 1.820,22.803 2.000,22.376 2.000 C 21.949 2.000,21.600 2.180,21.600 2.400 C 21.600 2.620,21.257 2.800,20.838 2.800 C 19.931 2.800,16.800 4.408,16.800 4.874 C 16.800 5.053,16.480 5.200,16.088 5.200 C 15.697 5.200,15.117 5.560,14.800 6.000 C 14.483 6.440,14.002 6.800,13.732 6.800 C 13.114 6.800,6.800 12.954,6.800 13.556 C 6.800 13.800,6.620 14.000,6.400 14.000 C 6.180 14.000,6.000 14.188,6.000 14.417 C 6.000 14.646,5.640 15.220,5.200 15.692 C 4.760 16.164,4.400 16.787,4.400 17.075 C 4.400 17.364,4.220 17.600,4.000 17.600 C 3.780 17.600,3.600 17.960,3.600 18.400 C 3.600 18.840,3.420 19.200,3.200 19.200 C 2.980 19.200,2.800 19.560,2.800 20.000 C 2.800 20.440,2.659 20.800,2.487 20.800 C 2.315 20.800,1.926 21.655,1.622 22.700 C 1.318 23.745,0.874 24.728,0.635 24.885 C -0.042 25.330,0.023 293.674,0.700 293.900 C 0.975 293.992,1.200 294.592,1.200 295.233 C 1.200 295.875,1.380 296.400,1.600 296.400 C 1.820 296.400,2.000 296.760,2.000 297.200 C 2.000 297.640,2.180 298.000,2.400 298.000 C 2.620 298.000,2.800 298.360,2.800 298.800 C 2.800 299.240,2.980 299.600,3.200 299.600 C 3.420 299.600,3.600 299.960,3.600 300.400 C 3.600 300.840,3.780 301.200,4.000 301.200 C 4.220 301.200,4.400 301.520,4.400 301.912 C 4.400 302.303,4.760 302.883,5.200 303.200 C 5.640 303.517,6.000 303.972,6.000 304.210 C 6.000 304.449,6.585 305.282,7.300 306.063 C 8.015 306.844,8.958 307.959,9.395 308.541 C 9.832 309.124,10.327 309.600,10.494 309.600 C 10.662 309.600,11.541 310.320,12.448 311.200 C 13.355 312.080,14.262 312.800,14.465 312.800 C 14.668 312.800,15.220 313.160,15.692 313.600 C 16.164 314.040,16.787 314.400,17.075 314.400 C 17.364 314.400,17.600 314.580,17.600 314.800 C 17.600 315.020,17.960 315.200,18.400 315.200 C 18.840 315.200,19.200 315.380,19.200 315.600 C 19.200 315.820,19.560 316.000,20.000 316.000 C 20.440 316.000,20.800 316.180,20.800 316.400 C 20.800 316.620,21.340 316.800,22.000 316.800 C 22.660 316.800,23.200 316.980,23.200 317.200 C 23.200 317.420,23.740 317.600,24.400 317.600 C 25.060 317.600,25.600 317.780,25.600 318.000 C 25.600 318.220,26.374 318.400,27.320 318.400 C 28.266 318.400,29.221 318.581,29.443 318.803 C 29.837 319.197,109.790 319.083,172.900 318.597 L 200.000 318.389 200.000 306.766 L 200.000 295.143 140.100 295.387 C 62.117 295.705,32.504 295.356,30.116 294.092 C 27.771 292.850,25.431 290.446,24.331 288.146 L 23.400 286.200 23.400 159.600 L 23.400 33.000 24.255 31.151 C 25.463 28.538,27.863 26.032,30.200 24.941 L 32.200 24.008 116.094 24.004 L 199.988 24.000 200.094 12.300 L 200.200 0.600 283.000 0.399 C 341.114 0.257,315.773 0.189,198.000 0.171 C 105.710 0.156,29.345 0.212,28.300 0.294 M369.600 24.400 C 369.600 24.620,369.854 24.800,370.164 24.800 C 370.868 24.800,375.200 28.855,375.200 29.515 C 375.200 29.782,375.380 30.000,375.600 30.000 C 375.820 30.000,376.014 30.405,376.032 30.900 C 376.049 31.395,376.153 31.577,376.264 31.303 C 376.902 29.723,373.941 25.636,371.383 24.567 C 369.769 23.893,369.600 23.877,369.600 24.400 M271.131 295.100 C 282.422 295.159,300.782 295.159,311.931 295.100 C 323.079 295.041,313.840 294.993,291.400 294.993 C 268.960 294.993,259.839 295.041,271.131 295.100 M104.927 375.569 C 101.395 376.155,96.400 379.808,96.400 381.805 C 96.400 382.132,96.264 382.400,96.097 382.400 C 95.554 382.400,94.800 385.538,94.800 387.800 C 94.800 390.062,95.554 393.200,96.097 393.200 C 96.264 393.200,96.400 393.474,96.400 393.809 C 96.400 394.582,100.590 398.800,101.358 398.800 C 101.674 398.800,102.008 399.025,102.100 399.300 C 102.233 399.698,121.979 399.801,199.033 399.805 C 263.295 399.808,279.744 399.741,248.000 399.605 L 200.200 399.400 200.094 387.705 L 199.988 376.010 168.494 375.810 C 151.172 375.700,130.160 375.538,121.800 375.450 C 113.440 375.363,105.847 375.416,104.927 375.569 M293.000 375.491 C 293.660 375.585,294.371 375.828,294.580 376.031 C 295.110 376.546,296.400 376.493,296.400 375.957 C 296.400 375.714,296.136 375.616,295.813 375.740 C 295.490 375.864,295.119 375.793,294.989 375.583 C 294.859 375.372,294.088 375.227,293.276 375.260 C 291.924 375.315,291.901 375.334,293.000 375.491 M297.200 376.667 C 297.200 377.033,297.314 377.220,297.453 377.081 C 297.592 376.942,298.018 376.995,298.400 377.200 C 298.782 377.405,299.206 377.461,299.341 377.325 C 299.477 377.190,299.120 376.836,298.548 376.539 C 297.236 375.859,297.200 375.862,297.200 376.667 M304.400 384.733 C 304.400 385.210,304.564 385.600,304.765 385.600 C 305.171 385.600,305.111 384.577,304.678 384.145 C 304.525 383.992,304.400 384.257,304.400 384.733 M304.400 390.600 C 304.400 391.150,304.469 391.600,304.553 391.600 C 304.638 391.600,304.793 391.150,304.898 390.600 C 305.003 390.050,304.934 389.600,304.745 389.600 C 304.555 389.600,304.400 390.050,304.400 390.600 " stroke="none" fill="#048cfb" fill-rule="evenodd"></path><path id="path6" d="M30.200 24.941 C 26.986 26.441,23.214 31.426,23.710 33.517 C 23.820 33.982,23.968 33.817,24.174 33.000 C 24.729 30.790,25.659 29.142,27.187 27.659 C 28.565 26.322,29.381 25.805,31.800 24.741 C 32.250 24.543,69.244 24.347,116.400 24.293 L 200.200 24.198 116.200 24.103 L 32.200 24.008 30.200 24.941 M23.298 159.640 C 23.200 285.264,23.214 286.834,24.480 288.200 C 24.684 288.420,24.614 288.060,24.325 287.400 C 23.897 286.421,23.763 263.003,23.598 160.200 L 23.397 34.200 23.298 159.640 M267.000 256.097 C 258.767 258.922,253.958 262.586,250.289 268.829 C 246.570 275.159,245.178 287.605,247.690 292.075 C 249.251 294.852,248.804 294.800,271.160 294.800 L 291.200 294.800 291.200 275.200 L 291.200 255.600 279.700 255.643 C 272.978 255.667,267.701 255.856,267.000 256.097 M24.800 289.104 C 24.800 289.853,28.247 293.103,30.079 294.081 L 31.800 295.000 50.200 295.021 L 68.600 295.042 50.184 294.821 L 31.767 294.600 29.522 293.239 C 28.288 292.490,26.720 291.153,26.039 290.266 C 25.357 289.380,24.800 288.857,24.800 289.104 M174.800 294.800 L 149.800 295.009 174.900 295.105 C 191.430 295.167,200.000 295.063,200.000 294.800 C 200.000 294.580,199.955 294.443,199.900 294.495 C 199.845 294.548,188.550 294.685,174.800 294.800 " stroke="none" fill="#7bfbe3" fill-rule="evenodd"></path><path id="path7" d="M281.600 255.200 L 271.400 255.421 281.300 255.510 L 291.200 255.600 291.200 275.200 L 291.200 294.800 312.004 294.800 L 332.807 294.800 333.945 293.700 C 336.258 291.462,336.914 287.178,336.072 279.800 C 334.554 266.507,325.089 257.044,311.484 255.218 C 308.348 254.797,300.429 254.793,281.600 255.200 " stroke="none" fill="#0be6cf" fill-rule="evenodd"></path><path id="path8" d="M200.000 91.800 L 200.000 159.600 226.700 159.503 L 253.400 159.406 226.900 159.300 L 200.400 159.194 200.400 91.798 L 200.400 24.402 283.900 24.300 L 367.400 24.198 283.700 24.099 L 200.000 24.000 200.000 91.800 M367.600 24.800 C 367.600 25.020,368.050 25.200,368.600 25.200 C 369.150 25.200,369.600 25.380,369.600 25.600 C 369.600 25.820,369.845 26.000,370.144 26.000 C 371.072 26.000,374.137 29.237,375.073 31.206 C 376.083 33.330,376.147 36.851,376.274 97.097 L 376.405 159.193 353.602 159.302 L 330.800 159.410 353.700 159.405 L 376.600 159.400 376.600 96.391 L 376.600 33.383 375.286 30.714 C 373.976 28.053,372.351 26.401,369.720 25.055 C 368.254 24.305,367.600 24.226,367.600 24.800 M85.600 119.436 C 77.958 121.069,69.916 127.437,66.704 134.400 C 62.878 142.693,62.906 154.839,66.758 157.876 C 68.027 158.877,70.295 159.601,69.836 158.858 C 69.680 158.606,69.248 158.400,68.876 158.400 C 63.503 158.396,62.830 144.058,67.732 134.000 C 69.450 130.474,75.568 123.600,76.987 123.600 C 77.324 123.600,77.600 123.462,77.600 123.294 C 77.600 122.927,80.119 121.785,83.400 120.664 C 85.548 119.931,87.005 119.828,97.300 119.690 L 108.800 119.536 108.800 139.364 L 108.800 159.192 89.500 159.300 C 78.885 159.359,87.711 159.451,109.113 159.504 C 151.261 159.608,149.579 159.687,151.905 157.501 C 154.600 154.969,154.975 143.901,152.599 137.000 C 151.089 132.613,147.089 127.125,143.432 124.424 C 139.979 121.873,136.898 120.453,132.154 119.226 C 129.524 118.546,88.909 118.729,85.600 119.436 M288.505 197.087 C 289.114 197.179,290.014 197.177,290.505 197.082 C 290.997 196.987,290.500 196.911,289.400 196.914 C 288.300 196.917,287.897 196.995,288.505 197.087 M273.951 203.231 L 272.200 204.862 274.100 203.346 C 275.145 202.513,276.000 201.779,276.000 201.715 C 276.000 201.407,275.563 201.730,273.951 203.231 M270.959 206.100 C 269.207 208.121,268.687 208.800,268.890 208.800 C 269.007 208.800,269.767 207.990,270.579 207.000 C 272.081 205.166,272.379 204.463,270.959 206.100 M265.029 217.429 C 264.881 218.015,264.838 218.572,264.932 218.666 C 265.027 218.760,265.224 218.358,265.371 217.771 C 265.519 217.185,265.562 216.628,265.468 216.534 C 265.373 216.440,265.176 216.842,265.029 217.429 M264.509 222.000 C 264.509 222.990,264.587 223.395,264.682 222.900 C 264.778 222.405,264.778 221.595,264.682 221.100 C 264.587 220.605,264.509 221.010,264.509 222.000 M318.531 223.800 C 318.533 225.340,318.605 225.921,318.692 225.091 C 318.779 224.261,318.777 223.001,318.689 222.291 C 318.600 221.581,318.529 222.260,318.531 223.800 M264.509 225.600 C 264.509 226.590,264.587 226.995,264.682 226.500 C 264.778 226.005,264.778 225.195,264.682 224.700 C 264.587 224.205,264.509 224.610,264.509 225.600 M264.806 229.433 C 264.809 229.855,264.995 230.470,265.218 230.800 C 265.515 231.238,265.552 231.076,265.356 230.200 C 265.027 228.729,264.798 228.410,264.806 229.433 M267.800 237.200 C 268.141 237.860,268.511 238.400,268.621 238.400 C 268.731 238.400,268.541 237.860,268.200 237.200 C 267.859 236.540,267.489 236.000,267.379 236.000 C 267.269 236.000,267.459 236.540,267.800 237.200 M269.591 239.988 C 270.057 240.641,270.642 241.302,270.891 241.456 C 271.141 241.611,270.841 241.076,270.225 240.268 C 268.888 238.515,268.384 238.292,269.591 239.988 M310.175 243.300 L 309.000 244.600 310.300 243.425 C 311.512 242.330,311.784 242.000,311.475 242.000 C 311.406 242.000,310.821 242.585,310.175 243.300 M275.469 245.632 C 275.966 246.233,278.400 247.764,278.400 247.476 C 278.400 247.383,277.635 246.802,276.700 246.185 C 275.765 245.568,275.211 245.320,275.469 245.632 M286.000 250.400 C 286.550 250.576,287.360 250.720,287.800 250.720 C 288.433 250.720,288.392 250.654,287.600 250.400 C 287.050 250.224,286.240 250.080,285.800 250.080 C 285.167 250.080,285.208 250.146,286.000 250.400 M109.200 294.800 L 68.200 295.006 109.000 295.097 C 134.823 295.154,150.020 295.045,150.400 294.800 C 150.730 294.587,150.820 294.453,150.600 294.503 C 150.380 294.553,131.750 294.687,109.200 294.800 " stroke="none" fill="#e44a78" fill-rule="evenodd"></path></g></svg>