<?xml version="1.0" standalone="no"?>
<!DOCTYPE svg PUBLIC "-//W3C//DTD SVG 20010904//EN"
 "http://www.w3.org/TR/2001/REC-SVG-20010904/DTD/svg10.dtd">
<svg version="1.0" xmlns="http://www.w3.org/2000/svg"
 width="867.000000pt" height="238.000000pt" viewBox="0 0 867.000000 238.000000"
 preserveAspectRatio="xMidYMid meet">

<g transform="translate(0.000000,238.000000) scale(0.100000,-0.100000)"
fill="#000000" stroke="none">
<path d="M0 1190 l0 -1190 4335 0 4335 0 0 1190 0 1190 -4335 0 -4335 0 0
-1190z m5368 -47 l-3 -338 -967 -3 -968 -2 0 340 0 340 970 0 970 0 -2 -337z
m-2804 219 c38 -22 41 -34 18 -62 -19 -23 -20 -23 -61 -7 -23 9 -52 17 -64 17
-34 0 -67 -28 -67 -55 0 -28 22 -44 95 -71 68 -24 93 -42 111 -75 19 -38 17
-86 -5 -135 -41 -90 -196 -113 -284 -42 l-27 23 24 30 24 30 40 -23 c53 -30
115 -30 136 0 37 53 16 81 -84 113 -30 10 -67 30 -82 45 -29 29 -44 85 -34
125 9 36 63 94 100 105 41 12 124 3 160 -18z m4796 -2 c166 -85 173 -343 13
-437 -42 -24 -58 -28 -128 -28 -69 0 -86 4 -126 27 -187 110 -140 415 71 459
48 10 128 0 170 -21z m-6270 -172 c0 -175 -2 -196 -20 -226 -28 -46 -76 -72
-132 -72 -59 0 -78 7 -78 30 0 41 11 50 61 50 76 0 79 9 79 227 l0 183 45 0
45 0 0 -192z m378 -50 l2 -238 -50 0 -50 0 0 241 0 240 48 -3 47 -3 3 -237z
m617 202 l0 -35 -72 -3 -73 -3 0 -199 0 -200 -50 0 -51 0 3 200 3 200 -72 0
-73 0 0 40 0 40 193 -2 192 -3 0 -35z m865 -200 l0 -240 -45 0 -45 0 0 240 0
240 45 0 45 0 0 -240z m3147 220 c56 -25 83 -70 83 -138 0 -104 -53 -152 -176
-160 l-74 -5 0 -78 0 -79 -45 0 -45 0 0 240 0 240 108 0 c84 0 116 -5 149 -20z
m578 1 c64 -29 80 -54 80 -121 0 -54 -3 -62 -34 -94 -19 -20 -41 -36 -47 -36
-7 0 11 -35 40 -77 29 -43 61 -90 71 -105 l17 -28 -53 0 -54 0 -59 90 c-51 79
-62 90 -87 90 l-29 0 0 -91 0 -90 -47 3 -48 3 -3 225 c-1 123 0 230 2 237 9
22 201 17 251 -6z"/>
<path d="M4293 1356 c-119 -56 -165 -217 -99 -344 73 -140 304 -157 397 -29
76 105 60 261 -35 345 -66 57 -174 69 -263 28z m196 -73 c40 -30 61 -80 61
-147 0 -104 -55 -166 -150 -166 -85 0 -139 54 -147 149 -8 83 21 144 79 172
52 24 118 20 157 -8z"/>
<path d="M3580 1134 l0 -236 123 3 c100 3 128 8 157 24 72 42 91 145 35 192
-14 13 -33 23 -41 23 -8 0 -14 5 -14 10 0 6 5 10 10 10 6 0 22 11 35 25 19 18
25 35 25 67 0 92 -48 118 -215 118 l-115 0 0 -236z m213 165 c29 -16 37 -28
37 -61 0 -44 -42 -69 -109 -66 l-56 3 -3 54 c-2 29 -1 60 2 67 7 17 98 19 129
3z m25 -205 c16 -11 22 -25 22 -54 0 -54 -25 -70 -112 -70 l-68 0 0 70 0 70
68 0 c45 0 75 -5 90 -16z"/>
<path d="M4898 1313 c21 -32 55 -84 75 -115 l36 -57 -75 -115 c-41 -63 -74
-117 -74 -120 0 -3 18 -6 40 -6 41 0 41 1 103 96 70 110 55 112 137 -18 l49
-78 46 0 c25 0 45 2 45 5 0 2 -34 56 -75 120 -41 63 -75 118 -75 120 0 3 32
53 70 110 39 57 70 107 70 110 0 3 -19 5 -42 5 l-43 0 -55 -90 c-30 -49 -57
-90 -60 -89 -3 0 -28 39 -56 87 l-51 87 -52 3 -52 3 39 -58z"/>
<path d="M7167 1282 c-60 -37 -86 -159 -49 -231 27 -54 62 -74 127 -74 65 0
100 20 127 74 38 74 10 202 -51 233 -40 21 -119 20 -154 -2z"/>
<path d="M5930 1220 l0 -80 55 0 c69 0 105 29 105 84 0 50 -36 76 -106 76
l-54 0 0 -80z"/>
<path d="M6520 1224 l0 -77 51 6 c66 8 89 29 89 78 0 49 -27 69 -92 69 l-48 0
0 -76z"/>
</g>
</svg>
